solid OpenSCAD_Model
  facet normal -1 0 0
    outer loop
      vertex 0 45 9
      vertex 0 38 40
      vertex 0 45 80
    endloop
  endfacet
  facet normal -1 0 0
    outer loop
      vertex 0 45 9
      vertex 0 15 40
      vertex 0 38 40
    endloop
  endfacet
  facet normal -1 0 0
    outer loop
      vertex 0 0 9
      vertex 0 15 40
      vertex 0 45 9
    endloop
  endfacet
  facet normal -1 0 0
    outer loop
      vertex 0 0 46
      vertex 0 15 40
      vertex 0 0 9
    endloop
  endfacet
  facet normal -1 0 0
    outer loop
      vertex 0 15 40
      vertex 0 0 46
      vertex 0 15 46
    endloop
  endfacet
  facet normal -1 -0 0
    outer loop
      vertex 0 45 80
      vertex 0 38 40
      vertex 0 38 80
    endloop
  endfacet
  facet normal 0 0 1
    outer loop
      vertex 70 38 40
      vertex 42.5 20 40
      vertex 70 15 40
    endloop
  endfacet
  facet normal 0 0 1
    outer loop
      vertex 70 38 40
      vertex 27.5 20 40
      vertex 42.5 20 40
    endloop
  endfacet
  facet normal -0 0 1
    outer loop
      vertex 0 38 40
      vertex 27.5 20 40
      vertex 70 38 40
    endloop
  endfacet
  facet normal 0 0 1
    outer loop
      vertex 0 15 40
      vertex 27.5 20 40
      vertex 0 38 40
    endloop
  endfacet
  facet normal 0 0 1
    outer loop
      vertex 27.5 20 40
      vertex 0 15 40
      vertex 27.5 15 40
    endloop
  endfacet
  facet normal 0 0 1
    outer loop
      vertex 70 15 40
      vertex 42.5 20 40
      vertex 42.5 15 40
    endloop
  endfacet
  facet normal 1 0 0
    outer loop
      vertex 70 15 46
      vertex 70 0 46
      vertex 70 15 40
    endloop
  endfacet
  facet normal 1 0 0
    outer loop
      vertex 70 38 40
      vertex 70 45 80
      vertex 70 38 80
    endloop
  endfacet
  facet normal 1 0 0
    outer loop
      vertex 70 45 80
      vertex 70 38 40
      vertex 70 45 0
    endloop
  endfacet
  facet normal 1 -0 0
    outer loop
      vertex 70 15 40
      vertex 70 45 0
      vertex 70 38 40
    endloop
  endfacet
  facet normal 1 0 0
    outer loop
      vertex 70 0 0
      vertex 70 15 40
      vertex 70 0 46
    endloop
  endfacet
  facet normal 1 0 0
    outer loop
      vertex 70 15 40
      vertex 70 0 0
      vertex 70 45 0
    endloop
  endfacet
  facet normal 0 0 -1
    outer loop
      vertex 65 40 0
      vertex 70 0 0
      vertex 65 4 0
    endloop
  endfacet
  facet normal 0 0 -1
    outer loop
      vertex 70 0 0
      vertex 5 4 0
      vertex 65 4 0
    endloop
  endfacet
  facet normal -0 0 -1
    outer loop
      vertex 5 4 0
      vertex -20 0 0
      vertex 5 40 0
    endloop
  endfacet
  facet normal 0 0 -1
    outer loop
      vertex -20 0 0
      vertex 5 4 0
      vertex 70 0 0
    endloop
  endfacet
  facet normal 0 0 -1
    outer loop
      vertex 70 0 0
      vertex 65 40 0
      vertex 70 45 0
    endloop
  endfacet
  facet normal 0 0 -1
    outer loop
      vertex 42 45 0
      vertex 65 40 0
      vertex 42 40 0
    endloop
  endfacet
  facet normal 0 0 -1
    outer loop
      vertex 65 40 0
      vertex 42 45 0
      vertex 70 45 0
    endloop
  endfacet
  facet normal 0 0 -1
    outer loop
      vertex 5 40 0
      vertex 28 45 0
      vertex 28 40 0
    endloop
  endfacet
  facet normal 0 0 -1
    outer loop
      vertex 5 40 0
      vertex -20 45 0
      vertex 28 45 0
    endloop
  endfacet
  facet normal 0 0 -1
    outer loop
      vertex -20 45 0
      vertex 5 40 0
      vertex -20 0 0
    endloop
  endfacet
  facet normal 0 0 -1
    outer loop
      vertex -30 10 0
      vertex -26.5 15 0
      vertex -26.5 10 0
    endloop
  endfacet
  facet normal -0 0 -1
    outer loop
      vertex -26.5 15 0
      vertex -30 10 0
      vertex -30 15 0
    endloop
  endfacet
  facet normal 0 0 -1
    outer loop
      vertex -30 30 0
      vertex -26.5 35 0
      vertex -26.5 30 0
    endloop
  endfacet
  facet normal -0 0 -1
    outer loop
      vertex -26.5 35 0
      vertex -30 30 0
      vertex -30 35 0
    endloop
  endfacet
  facet normal 0 0 -1
    outer loop
      vertex 32 40 0
      vertex 38 45 0
      vertex 38 40 0
    endloop
  endfacet
  facet normal -0 0 -1
    outer loop
      vertex 38 45 0
      vertex 32 40 0
      vertex 32 45 0
    endloop
  endfacet
  facet normal 0 -1 0
    outer loop
      vertex -20 0 5
      vertex -30 0 9
      vertex -30 0 5
    endloop
  endfacet
  facet normal 0 -1 0
    outer loop
      vertex 0 0 9
      vertex 70 0 46
      vertex 0 0 46
    endloop
  endfacet
  facet normal 0 -1 0
    outer loop
      vertex -30 0 9
      vertex -20 0 5
      vertex 0 0 9
    endloop
  endfacet
  facet normal 0 -1 0
    outer loop
      vertex -20 0 0
      vertex 0 0 9
      vertex -20 0 5
    endloop
  endfacet
  facet normal 0 -1 0
    outer loop
      vertex 0 0 9
      vertex 70 0 0
      vertex 70 0 46
    endloop
  endfacet
  facet normal 0 -1 0
    outer loop
      vertex 70 0 0
      vertex 0 0 9
      vertex -20 0 0
    endloop
  endfacet
  facet normal 0 1 0
    outer loop
      vertex -20 45 0
      vertex 0 45 9
      vertex 28 45 0
    endloop
  endfacet
  facet normal 0 1 0
    outer loop
      vertex 0 45 9
      vertex -20 45 0
      vertex -20 45 5
    endloop
  endfacet
  facet normal 0 1 -0
    outer loop
      vertex 38 45 0
      vertex 32 45 5
      vertex 38 45 5
    endloop
  endfacet
  facet normal 0 1 0
    outer loop
      vertex 32 45 5
      vertex 38 45 0
      vertex 32 45 0
    endloop
  endfacet
  facet normal 0 1 -0
    outer loop
      vertex 32 45 5
      vertex 0 45 80
      vertex 70 45 80
    endloop
  endfacet
  facet normal 0 1 0
    outer loop
      vertex 32 45 5
      vertex 70 45 80
      vertex 38 45 5
    endloop
  endfacet
  facet normal 0 1 0
    outer loop
      vertex 38 45 5
      vertex 70 45 80
      vertex 42 45 5
    endloop
  endfacet
  facet normal 0 1 -0
    outer loop
      vertex 70 45 0
      vertex 42 45 5
      vertex 70 45 80
    endloop
  endfacet
  facet normal 0 1 0
    outer loop
      vertex 42 45 5
      vertex 70 45 0
      vertex 42 45 0
    endloop
  endfacet
  facet normal 0 1 0
    outer loop
      vertex 0 45 80
      vertex 32 45 5
      vertex 28 45 5
    endloop
  endfacet
  facet normal 0 1 0
    outer loop
      vertex 0 45 80
      vertex 28 45 5
      vertex 0 45 9
    endloop
  endfacet
  facet normal 0 1 -0
    outer loop
      vertex 28 45 0
      vertex 0 45 9
      vertex 28 45 5
    endloop
  endfacet
  facet normal 0 1 0
    outer loop
      vertex 0 45 9
      vertex -20 45 5
      vertex -30 45 9
    endloop
  endfacet
  facet normal 0 1 0
    outer loop
      vertex -30 45 9
      vertex -20 45 5
      vertex -30 45 5
    endloop
  endfacet
  facet normal -0 0 1
    outer loop
      vertex 0 15 46
      vertex 70 0 46
      vertex 70 15 46
    endloop
  endfacet
  facet normal 0 0 1
    outer loop
      vertex 70 0 46
      vertex 0 15 46
      vertex 0 0 46
    endloop
  endfacet
  facet normal 0 1 0
    outer loop
      vertex 70 15 46
      vertex 42.5 15 43
      vertex 0 15 46
    endloop
  endfacet
  facet normal 0 1 -0
    outer loop
      vertex 70 15 40
      vertex 42.5 15 43
      vertex 70 15 46
    endloop
  endfacet
  facet normal 0 1 0
    outer loop
      vertex 42.5 15 43
      vertex 70 15 40
      vertex 42.5 15 40
    endloop
  endfacet
  facet normal 0 1 -0
    outer loop
      vertex 27.5 15 43
      vertex 0 15 46
      vertex 42.5 15 43
    endloop
  endfacet
  facet normal 0 1 0
    outer loop
      vertex 0 15 40
      vertex 27.5 15 43
      vertex 27.5 15 40
    endloop
  endfacet
  facet normal 0 1 0
    outer loop
      vertex 27.5 15 43
      vertex 0 15 40
      vertex 0 15 46
    endloop
  endfacet
  facet normal -0 0 1
    outer loop
      vertex 0 45 80
      vertex 70 38 80
      vertex 70 45 80
    endloop
  endfacet
  facet normal 0 0 1
    outer loop
      vertex 70 38 80
      vertex 0 45 80
      vertex 0 38 80
    endloop
  endfacet
  facet normal 0 -1 0
    outer loop
      vertex 0 38 40
      vertex 70 38 80
      vertex 0 38 80
    endloop
  endfacet
  facet normal 0 -1 -0
    outer loop
      vertex 70 38 80
      vertex 0 38 40
      vertex 70 38 40
    endloop
  endfacet
  facet normal -1 0 0
    outer loop
      vertex -30 15 0
      vertex -30 10 0
      vertex -30 15 5
    endloop
  endfacet
  facet normal -1 0 0
    outer loop
      vertex -30 35 0
      vertex -30 30 0
      vertex -30 35 5
    endloop
  endfacet
  facet normal -1 0 0
    outer loop
      vertex -30 35 5
      vertex -30 45 9
      vertex -30 45 5
    endloop
  endfacet
  facet normal -1 0 0
    outer loop
      vertex -30 30 5
      vertex -30 35 5
      vertex -30 30 0
    endloop
  endfacet
  facet normal -1 0 0
    outer loop
      vertex -30 30 5
      vertex -30 45 9
      vertex -30 35 5
    endloop
  endfacet
  facet normal -1 0 0
    outer loop
      vertex -30 15 5
      vertex -30 45 9
      vertex -30 30 5
    endloop
  endfacet
  facet normal -1 0 0
    outer loop
      vertex -30 10 5
      vertex -30 15 5
      vertex -30 10 0
    endloop
  endfacet
  facet normal -1 0 0
    outer loop
      vertex -30 0 9
      vertex -30 15 5
      vertex -30 10 5
    endloop
  endfacet
  facet normal -1 0 0
    outer loop
      vertex -30 0 9
      vertex -30 10 5
      vertex -30 0 5
    endloop
  endfacet
  facet normal -1 0 0
    outer loop
      vertex -30 15 5
      vertex -30 0 9
      vertex -30 45 9
    endloop
  endfacet
  facet normal -0 0 1
    outer loop
      vertex -30 45 9
      vertex 0 0 9
      vertex 0 45 9
    endloop
  endfacet
  facet normal 0 0 1
    outer loop
      vertex 0 0 9
      vertex -30 45 9
      vertex -30 0 9
    endloop
  endfacet
  facet normal 0 0 -1
    outer loop
      vertex -30 15 5
      vertex -26.5 30 5
      vertex -26.5 15 5
    endloop
  endfacet
  facet normal -0 0 -1
    outer loop
      vertex -26.5 30 5
      vertex -30 15 5
      vertex -30 30 5
    endloop
  endfacet
  facet normal 0 0 -1
    outer loop
      vertex -26.5 15 5
      vertex -20 0 5
      vertex -26.5 10 5
    endloop
  endfacet
  facet normal 0 0 -1
    outer loop
      vertex -30 0 5
      vertex -26.5 10 5
      vertex -20 0 5
    endloop
  endfacet
  facet normal -0 0 -1
    outer loop
      vertex -26.5 10 5
      vertex -30 0 5
      vertex -30 10 5
    endloop
  endfacet
  facet normal 0 0 -1
    outer loop
      vertex -20 0 5
      vertex -26.5 15 5
      vertex -20 45 5
    endloop
  endfacet
  facet normal 0 0 -1
    outer loop
      vertex -26.5 30 5
      vertex -20 45 5
      vertex -26.5 15 5
    endloop
  endfacet
  facet normal 0 0 -1
    outer loop
      vertex -26.5 35 5
      vertex -20 45 5
      vertex -26.5 30 5
    endloop
  endfacet
  facet normal 0 0 -1
    outer loop
      vertex -30 45 5
      vertex -26.5 35 5
      vertex -30 35 5
    endloop
  endfacet
  facet normal 0 0 -1
    outer loop
      vertex -26.5 35 5
      vertex -30 45 5
      vertex -20 45 5
    endloop
  endfacet
  facet normal 0 -1 0
    outer loop
      vertex -30 10 0
      vertex -26.5 10 5
      vertex -30 10 5
    endloop
  endfacet
  facet normal 0 -1 -0
    outer loop
      vertex -26.5 10 5
      vertex -30 10 0
      vertex -26.5 10 0
    endloop
  endfacet
  facet normal 0 1 -0
    outer loop
      vertex -26.5 35 0
      vertex -30 35 5
      vertex -26.5 35 5
    endloop
  endfacet
  facet normal 0 1 0
    outer loop
      vertex -30 35 5
      vertex -26.5 35 0
      vertex -30 35 0
    endloop
  endfacet
  facet normal 0 -1 0
    outer loop
      vertex -30 30 0
      vertex -26.5 30 5
      vertex -30 30 5
    endloop
  endfacet
  facet normal 0 -1 -0
    outer loop
      vertex -26.5 30 5
      vertex -30 30 0
      vertex -26.5 30 0
    endloop
  endfacet
  facet normal 0 1 -0
    outer loop
      vertex -26.5 15 0
      vertex -30 15 5
      vertex -26.5 15 5
    endloop
  endfacet
  facet normal 0 1 0
    outer loop
      vertex -30 15 5
      vertex -26.5 15 0
      vertex -30 15 0
    endloop
  endfacet
  facet normal 1 -0 0
    outer loop
      vertex -26.5 10 5
      vertex -26.5 15 0
      vertex -26.5 15 5
    endloop
  endfacet
  facet normal 1 0 0
    outer loop
      vertex -26.5 15 0
      vertex -26.5 10 5
      vertex -26.5 10 0
    endloop
  endfacet
  facet normal 1 -0 0
    outer loop
      vertex -26.5 30 5
      vertex -26.5 35 0
      vertex -26.5 35 5
    endloop
  endfacet
  facet normal 1 0 0
    outer loop
      vertex -26.5 35 0
      vertex -26.5 30 5
      vertex -26.5 30 0
    endloop
  endfacet
  facet normal -1 0 0
    outer loop
      vertex -20 0 0
      vertex -20 45 5
      vertex -20 45 0
    endloop
  endfacet
  facet normal -1 -0 0
    outer loop
      vertex -20 45 5
      vertex -20 0 0
      vertex -20 0 5
    endloop
  endfacet
  facet normal 1 -0 0
    outer loop
      vertex 5 4 34
      vertex 5 40 0
      vertex 5 40 34
    endloop
  endfacet
  facet normal 1 0 0
    outer loop
      vertex 5 40 0
      vertex 5 4 34
      vertex 5 4 0
    endloop
  endfacet
  facet normal 0 0 -1
    outer loop
      vertex 42.5 20 34
      vertex 65 4 34
      vertex 42.5 10 34
    endloop
  endfacet
  facet normal 0 0 -1
    outer loop
      vertex 65 4 34
      vertex 27.5 10 34
      vertex 42.5 10 34
    endloop
  endfacet
  facet normal -0 0 -1
    outer loop
      vertex 27.5 10 34
      vertex 5 4 34
      vertex 27.5 20 34
    endloop
  endfacet
  facet normal 0 0 -1
    outer loop
      vertex 5 4 34
      vertex 27.5 10 34
      vertex 65 4 34
    endloop
  endfacet
  facet normal 0 0 -1
    outer loop
      vertex 65 4 34
      vertex 42.5 20 34
      vertex 65 40 34
    endloop
  endfacet
  facet normal 0 0 -1
    outer loop
      vertex 27.5 20 34
      vertex 65 40 34
      vertex 42.5 20 34
    endloop
  endfacet
  facet normal 0 0 -1
    outer loop
      vertex 27.5 20 34
      vertex 5 40 34
      vertex 65 40 34
    endloop
  endfacet
  facet normal 0 0 -1
    outer loop
      vertex 5 40 34
      vertex 27.5 20 34
      vertex 5 4 34
    endloop
  endfacet
  facet normal -1 0 0
    outer loop
      vertex 65 4 0
      vertex 65 40 34
      vertex 65 40 0
    endloop
  endfacet
  facet normal -1 -0 0
    outer loop
      vertex 65 40 34
      vertex 65 4 0
      vertex 65 4 34
    endloop
  endfacet
  facet normal 0 -1 0
    outer loop
      vertex 32 40 0
      vertex 38 40 5
      vertex 32 40 5
    endloop
  endfacet
  facet normal 0 -1 -0
    outer loop
      vertex 38 40 5
      vertex 32 40 0
      vertex 38 40 0
    endloop
  endfacet
  facet normal 0 -1 0
    outer loop
      vertex 32 40 5
      vertex 5 40 34
      vertex 28 40 5
    endloop
  endfacet
  facet normal 0 -1 0
    outer loop
      vertex 5 40 0
      vertex 28 40 5
      vertex 5 40 34
    endloop
  endfacet
  facet normal 0 -1 -0
    outer loop
      vertex 28 40 5
      vertex 5 40 0
      vertex 28 40 0
    endloop
  endfacet
  facet normal 0 -1 0
    outer loop
      vertex 5 40 34
      vertex 32 40 5
      vertex 65 40 34
    endloop
  endfacet
  facet normal 0 -1 0
    outer loop
      vertex 38 40 5
      vertex 65 40 34
      vertex 32 40 5
    endloop
  endfacet
  facet normal 0 -1 0
    outer loop
      vertex 42 40 5
      vertex 65 40 34
      vertex 38 40 5
    endloop
  endfacet
  facet normal 0 -1 0
    outer loop
      vertex 65 40 0
      vertex 42 40 5
      vertex 42 40 0
    endloop
  endfacet
  facet normal 0 -1 0
    outer loop
      vertex 42 40 5
      vertex 65 40 0
      vertex 65 40 34
    endloop
  endfacet
  facet normal 0 1 -0
    outer loop
      vertex 65 4 0
      vertex 5 4 34
      vertex 65 4 34
    endloop
  endfacet
  facet normal 0 1 0
    outer loop
      vertex 5 4 34
      vertex 65 4 0
      vertex 5 4 0
    endloop
  endfacet
  facet normal 1 0 0
    outer loop
      vertex 27.5 15 43
      vertex 27.5 10 43
      vertex 27.5 15 40
    endloop
  endfacet
  facet normal 1 -0 0
    outer loop
      vertex 27.5 15 40
      vertex 27.5 20 34
      vertex 27.5 20 40
    endloop
  endfacet
  facet normal 1 0 0
    outer loop
      vertex 27.5 10 34
      vertex 27.5 15 40
      vertex 27.5 10 43
    endloop
  endfacet
  facet normal 1 0 0
    outer loop
      vertex 27.5 15 40
      vertex 27.5 10 34
      vertex 27.5 20 34
    endloop
  endfacet
  facet normal 0 0 -1
    outer loop
      vertex 27.5 10 43
      vertex 42.5 15 43
      vertex 42.5 10 43
    endloop
  endfacet
  facet normal -0 0 -1
    outer loop
      vertex 42.5 15 43
      vertex 27.5 10 43
      vertex 27.5 15 43
    endloop
  endfacet
  facet normal -1 0 0
    outer loop
      vertex 42.5 20 34
      vertex 42.5 15 40
      vertex 42.5 20 40
    endloop
  endfacet
  facet normal -1 0 0
    outer loop
      vertex 42.5 10 34
      vertex 42.5 15 40
      vertex 42.5 20 34
    endloop
  endfacet
  facet normal -1 0 0
    outer loop
      vertex 42.5 10 43
      vertex 42.5 15 40
      vertex 42.5 10 34
    endloop
  endfacet
  facet normal -1 0 0
    outer loop
      vertex 42.5 15 40
      vertex 42.5 10 43
      vertex 42.5 15 43
    endloop
  endfacet
  facet normal 0 -1 0
    outer loop
      vertex 27.5 20 34
      vertex 42.5 20 40
      vertex 27.5 20 40
    endloop
  endfacet
  facet normal 0 -1 -0
    outer loop
      vertex 42.5 20 40
      vertex 27.5 20 34
      vertex 42.5 20 34
    endloop
  endfacet
  facet normal 0 1 -0
    outer loop
      vertex 42.5 10 34
      vertex 27.5 10 43
      vertex 42.5 10 43
    endloop
  endfacet
  facet normal 0 1 0
    outer loop
      vertex 27.5 10 43
      vertex 42.5 10 34
      vertex 27.5 10 34
    endloop
  endfacet
  facet normal 1 -0 0
    outer loop
      vertex 28 40 5
      vertex 28 45 0
      vertex 28 45 5
    endloop
  endfacet
  facet normal 1 0 0
    outer loop
      vertex 28 45 0
      vertex 28 40 5
      vertex 28 40 0
    endloop
  endfacet
  facet normal 0 0 -1
    outer loop
      vertex 28 40 5
      vertex 32 45 5
      vertex 32 40 5
    endloop
  endfacet
  facet normal -0 0 -1
    outer loop
      vertex 32 45 5
      vertex 28 40 5
      vertex 28 45 5
    endloop
  endfacet
  facet normal -1 0 0
    outer loop
      vertex 32 40 0
      vertex 32 45 5
      vertex 32 45 0
    endloop
  endfacet
  facet normal -1 -0 0
    outer loop
      vertex 32 45 5
      vertex 32 40 0
      vertex 32 40 5
    endloop
  endfacet
  facet normal 1 -0 0
    outer loop
      vertex 38 40 5
      vertex 38 45 0
      vertex 38 45 5
    endloop
  endfacet
  facet normal 1 0 0
    outer loop
      vertex 38 45 0
      vertex 38 40 5
      vertex 38 40 0
    endloop
  endfacet
  facet normal 0 0 -1
    outer loop
      vertex 38 40 5
      vertex 42 45 5
      vertex 42 40 5
    endloop
  endfacet
  facet normal -0 0 -1
    outer loop
      vertex 42 45 5
      vertex 38 40 5
      vertex 38 45 5
    endloop
  endfacet
  facet normal -1 0 0
    outer loop
      vertex 42 40 0
      vertex 42 45 5
      vertex 42 45 0
    endloop
  endfacet
  facet normal -1 -0 0
    outer loop
      vertex 42 45 5
      vertex 42 40 0
      vertex 42 40 5
    endloop
  endfacet
endsolid OpenSCAD_Model
