solid OpenSCAD_Model
  facet normal 0.866025 0.5 0
    outer loop
      vertex 25.4508 15.5891 11.8668
      vertex 24.2705 17.6336 0
      vertex 24.2705 17.6336 11.8668
    endloop
  endfacet
  facet normal 0.866026 0.5 1.39196e-07
    outer loop
      vertex 27.4064 12.2021 0
      vertex 25.4508 15.5891 11.8668
      vertex 27.4064 12.2021 11.8668
    endloop
  endfacet
  facet normal 0.866025 0.5 5.8706e-09
    outer loop
      vertex 25.4508 15.5891 11.8668
      vertex 27.4064 12.2021 0
      vertex 24.2705 17.6336 0
    endloop
  endfacet
  facet normal 0.743145 0.669131 0
    outer loop
      vertex 22.6909 19.3879 11.8668
      vertex 20.0739 22.2943 0
      vertex 20.0739 22.2943 11.8668
    endloop
  endfacet
  facet normal 0.743145 0.66913 -0
    outer loop
      vertex 24.2705 17.6336 0
      vertex 22.6909 19.3879 11.8668
      vertex 24.2705 17.6336 11.8668
    endloop
  endfacet
  facet normal 0.743145 0.669131 -4.73665e-08
    outer loop
      vertex 22.6909 19.3879 11.8668
      vertex 24.2705 17.6336 0
      vertex 20.0739 22.2943 0
    endloop
  endfacet
  facet normal 0.207912 0.978148 -0
    outer loop
      vertex 9.27051 28.5317 0
      vertex 6.96142 29.0225 11.8668
      vertex 9.27051 28.5317 11.8668
    endloop
  endfacet
  facet normal 0.207911 0.978148 -3.86938e-08
    outer loop
      vertex 3.13585 29.8357 0
      vertex 6.96142 29.0225 11.8668
      vertex 9.27051 28.5317 0
    endloop
  endfacet
  facet normal 0.207911 0.978148 0
    outer loop
      vertex 6.96142 29.0225 11.8668
      vertex 3.13585 29.8357 0
      vertex 3.13585 29.8357 11.8668
    endloop
  endfacet
  facet normal 0.406736 0.913546 0
    outer loop
      vertex 15 25.9808 11.8668
      vertex 15 25.9808 0
      vertex 12.8434 26.9409 11.8668
    endloop
  endfacet
  facet normal 0.406737 0.913545 5.24807e-08
    outer loop
      vertex 9.27051 28.5317 0
      vertex 12.8434 26.9409 11.8668
      vertex 15 25.9808 0
    endloop
  endfacet
  facet normal 0.406737 0.913545 0
    outer loop
      vertex 12.8434 26.9409 11.8668
      vertex 9.27051 28.5317 0
      vertex 9.27051 28.5317 11.8668
    endloop
  endfacet
  facet normal -0.406737 0.913545 0
    outer loop
      vertex -9.27051 28.5317 0
      vertex -12.8434 26.9409 11.8668
      vertex -9.27051 28.5317 11.8668
    endloop
  endfacet
  facet normal -0.406737 0.913545 3.20969e-08
    outer loop
      vertex -15 25.9808 0
      vertex -12.8434 26.9409 11.8668
      vertex -9.27051 28.5317 0
    endloop
  endfacet
  facet normal -0.406737 0.913545 0
    outer loop
      vertex -12.8434 26.9409 11.8668
      vertex -15 25.9808 0
      vertex -15 25.9808 11.8668
    endloop
  endfacet
  facet normal 0.994522 -0.104529 0
    outer loop
      vertex 29.7532 -2.34775 11.8668
      vertex 30 0 0
      vertex 30 0 11.8668
    endloop
  endfacet
  facet normal 0.994522 -0.104528 4.20021e-09
    outer loop
      vertex 29.3444 -6.23735 0
      vertex 29.7532 -2.34775 11.8668
      vertex 29.3444 -6.23735 11.8668
    endloop
  endfacet
  facet normal 0.994522 -0.104529 7.10909e-08
    outer loop
      vertex 29.7532 -2.34775 11.8668
      vertex 29.3444 -6.23735 0
      vertex 30 0 0
    endloop
  endfacet
  facet normal 0.951057 0.309016 0
    outer loop
      vertex 28.1359 9.95696 11.8668
      vertex 27.4064 12.2021 0
      vertex 27.4064 12.2021 11.8668
    endloop
  endfacet
  facet normal 0.951056 0.309017 -0
    outer loop
      vertex 29.3444 6.23735 0
      vertex 28.1359 9.95696 11.8668
      vertex 29.3444 6.23735 11.8668
    endloop
  endfacet
  facet normal 0.951057 0.309017 1.01753e-07
    outer loop
      vertex 28.1359 9.95696 11.8668
      vertex 29.3444 6.23735 0
      vertex 27.4064 12.2021 0
    endloop
  endfacet
  facet normal 0.587785 0.809017 -0
    outer loop
      vertex 20.0739 22.2943 0
      vertex 16.9098 24.5932 11.8668
      vertex 20.0739 22.2943 11.8668
    endloop
  endfacet
  facet normal 0.587785 0.809017 -1.41058e-08
    outer loop
      vertex 15 25.9808 0
      vertex 16.9098 24.5932 11.8668
      vertex 20.0739 22.2943 0
    endloop
  endfacet
  facet normal 0.587785 0.809017 0
    outer loop
      vertex 16.9098 24.5932 11.8668
      vertex 15 25.9808 0
      vertex 15 25.9808 11.8668
    endloop
  endfacet
  facet normal 0 1 0
    outer loop
      vertex 3.13585 29.8357 11.8668
      vertex 3.13585 29.8357 0
      vertex -3.13585 29.8357 11.8668
    endloop
  endfacet
  facet normal 0 1 0
    outer loop
      vertex -3.13585 29.8357 0
      vertex -3.13585 29.8357 11.8668
      vertex 3.13585 29.8357 0
    endloop
  endfacet
  facet normal -0.994522 0.104528 4.20021e-09
    outer loop
      vertex -29.3444 6.23735 0
      vertex -29.7532 2.34775 11.8668
      vertex -29.3444 6.23735 11.8668
    endloop
  endfacet
  facet normal -0.994522 0.104529 7.10909e-08
    outer loop
      vertex -30 0 0
      vertex -29.7532 2.34775 11.8668
      vertex -29.3444 6.23735 0
    endloop
  endfacet
  facet normal -0.994522 0.104529 0
    outer loop
      vertex -29.7532 2.34775 11.8668
      vertex -30 0 0
      vertex -30 0 11.8668
    endloop
  endfacet
  facet normal -0.866025 0.5 0
    outer loop
      vertex -24.2705 17.6336 0
      vertex -25.4508 15.5891 11.8668
      vertex -24.2705 17.6336 11.8668
    endloop
  endfacet
  facet normal -0.866025 0.5 5.8706e-09
    outer loop
      vertex -27.4064 12.2021 0
      vertex -25.4508 15.5891 11.8668
      vertex -24.2705 17.6336 0
    endloop
  endfacet
  facet normal -0.866025 0.5 0
    outer loop
      vertex -25.4508 15.5891 11.8668
      vertex -27.4064 12.2021 0
      vertex -27.4064 12.2021 11.8668
    endloop
  endfacet
  facet normal -0.587785 0.809017 1.30033e-07
    outer loop
      vertex -15 25.9808 0
      vertex -16.9098 24.5932 11.8668
      vertex -15 25.9808 11.8668
    endloop
  endfacet
  facet normal -0.587785 0.809017 8.64704e-08
    outer loop
      vertex -20.0739 22.2943 0
      vertex -16.9098 24.5932 11.8668
      vertex -15 25.9808 0
    endloop
  endfacet
  facet normal -0.587785 0.809017 0
    outer loop
      vertex -16.9098 24.5932 11.8668
      vertex -20.0739 22.2943 0
      vertex -20.0739 22.2943 11.8668
    endloop
  endfacet
  facet normal -0.207912 0.978148 0
    outer loop
      vertex -3.13585 29.8357 11.8668
      vertex -3.13585 29.8357 0
      vertex -5.44495 29.3448 11.8668
    endloop
  endfacet
  facet normal -0.207911 0.978148 1.67088e-08
    outer loop
      vertex -9.27051 28.5317 0
      vertex -9.27051 28.5317 11.8668
      vertex -5.44495 29.3448 11.8668
    endloop
  endfacet
  facet normal -0.207911 0.978148 3.86938e-08
    outer loop
      vertex -9.27051 28.5317 0
      vertex -5.44495 29.3448 11.8668
      vertex -3.13585 29.8357 0
    endloop
  endfacet
  facet normal -0.743145 0.669131 0
    outer loop
      vertex -20.0739 22.2943 0
      vertex -22.6909 19.3879 11.8668
      vertex -20.0739 22.2943 11.8668
    endloop
  endfacet
  facet normal -0.743145 0.669131 -4.73665e-08
    outer loop
      vertex -24.2705 17.6336 0
      vertex -22.6909 19.3879 11.8668
      vertex -20.0739 22.2943 0
    endloop
  endfacet
  facet normal -0.743145 0.66913 0
    outer loop
      vertex -22.6909 19.3879 11.8668
      vertex -24.2705 17.6336 0
      vertex -24.2705 17.6336 11.8668
    endloop
  endfacet
  facet normal 0.994522 0.104528 4.20021e-09
    outer loop
      vertex 29.7532 2.34775 11.8668
      vertex 29.3444 6.23735 0
      vertex 29.3444 6.23735 11.8668
    endloop
  endfacet
  facet normal 0.994522 0.104529 -0
    outer loop
      vertex 30 0 0
      vertex 29.7532 2.34775 11.8668
      vertex 30 0 11.8668
    endloop
  endfacet
  facet normal 0.994522 0.104529 7.10909e-08
    outer loop
      vertex 29.7532 2.34775 11.8668
      vertex 30 0 0
      vertex 29.3444 6.23735 0
    endloop
  endfacet
  facet normal 0.951056 -0.309017 0
    outer loop
      vertex 28.1359 -9.95696 11.8668
      vertex 29.3444 -6.23735 0
      vertex 29.3444 -6.23735 11.8668
    endloop
  endfacet
  facet normal 0.951057 -0.309016 0
    outer loop
      vertex 27.4064 -12.2021 0
      vertex 28.1359 -9.95696 11.8668
      vertex 27.4064 -12.2021 11.8668
    endloop
  endfacet
  facet normal 0.951057 -0.309017 1.01753e-07
    outer loop
      vertex 28.1359 -9.95696 11.8668
      vertex 27.4064 -12.2021 0
      vertex 29.3444 -6.23735 0
    endloop
  endfacet
  facet normal -0.866026 -0.5 1.39196e-07
    outer loop
      vertex -27.4064 -12.2021 0
      vertex -25.4508 -15.5891 11.8668
      vertex -27.4064 -12.2021 11.8668
    endloop
  endfacet
  facet normal -0.866025 -0.5 5.8706e-09
    outer loop
      vertex -24.2705 -17.6336 0
      vertex -25.4508 -15.5891 11.8668
      vertex -27.4064 -12.2021 0
    endloop
  endfacet
  facet normal -0.866025 -0.5 0
    outer loop
      vertex -25.4508 -15.5891 11.8668
      vertex -24.2705 -17.6336 0
      vertex -24.2705 -17.6336 11.8668
    endloop
  endfacet
  facet normal 0.587785 -0.809017 0
    outer loop
      vertex 15 -25.9808 0
      vertex 16.9098 -24.5932 11.8668
      vertex 15 -25.9808 11.8668
    endloop
  endfacet
  facet normal 0.587785 -0.809017 -1.41058e-08
    outer loop
      vertex 20.0739 -22.2943 0
      vertex 16.9098 -24.5932 11.8668
      vertex 15 -25.9808 0
    endloop
  endfacet
  facet normal 0.587785 -0.809017 0
    outer loop
      vertex 16.9098 -24.5932 11.8668
      vertex 20.0739 -22.2943 0
      vertex 20.0739 -22.2943 11.8668
    endloop
  endfacet
  facet normal -0.951057 0.309016 0
    outer loop
      vertex -27.4064 12.2021 0
      vertex -28.1359 9.95696 11.8668
      vertex -27.4064 12.2021 11.8668
    endloop
  endfacet
  facet normal -0.951057 0.309017 1.01753e-07
    outer loop
      vertex -29.3444 6.23735 0
      vertex -28.1359 9.95696 11.8668
      vertex -27.4064 12.2021 0
    endloop
  endfacet
  facet normal -0.951056 0.309017 0
    outer loop
      vertex -28.1359 9.95696 11.8668
      vertex -29.3444 6.23735 0
      vertex -29.3444 6.23735 11.8668
    endloop
  endfacet
  facet normal 0.866025 -0.5 0
    outer loop
      vertex 25.4508 -15.5891 11.8668
      vertex 27.4064 -12.2021 0
      vertex 27.4064 -12.2021 11.8668
    endloop
  endfacet
  facet normal 0.866025 -0.5 0
    outer loop
      vertex 24.2705 -17.6336 0
      vertex 25.4508 -15.5891 11.8668
      vertex 24.2705 -17.6336 11.8668
    endloop
  endfacet
  facet normal 0.866025 -0.5 5.8706e-09
    outer loop
      vertex 25.4508 -15.5891 11.8668
      vertex 24.2705 -17.6336 0
      vertex 27.4064 -12.2021 0
    endloop
  endfacet
  facet normal -0.994522 -0.104529 0
    outer loop
      vertex -30 0 0
      vertex -29.7532 -2.34775 11.8668
      vertex -30 0 11.8668
    endloop
  endfacet
  facet normal -0.994522 -0.104529 7.10909e-08
    outer loop
      vertex -29.3444 -6.23735 0
      vertex -29.7532 -2.34775 11.8668
      vertex -30 0 0
    endloop
  endfacet
  facet normal -0.994522 -0.104528 4.20021e-09
    outer loop
      vertex -29.7532 -2.34775 11.8668
      vertex -29.3444 -6.23735 0
      vertex -29.3444 -6.23735 11.8668
    endloop
  endfacet
  facet normal 0.207912 -0.978148 0
    outer loop
      vertex 3.13585 -29.8357 11.8668
      vertex 3.13585 -29.8357 0
      vertex 5.44495 -29.3448 11.8668
    endloop
  endfacet
  facet normal 0.207911 -0.978148 1.67088e-08
    outer loop
      vertex 9.27051 -28.5317 0
      vertex 9.27051 -28.5317 11.8668
      vertex 5.44495 -29.3448 11.8668
    endloop
  endfacet
  facet normal 0.207911 -0.978148 3.86938e-08
    outer loop
      vertex 9.27051 -28.5317 0
      vertex 5.44495 -29.3448 11.8668
      vertex 3.13585 -29.8357 0
    endloop
  endfacet
  facet normal 0.406737 -0.913545 0
    outer loop
      vertex 9.27051 -28.5317 0
      vertex 12.8434 -26.9409 11.8668
      vertex 9.27051 -28.5317 11.8668
    endloop
  endfacet
  facet normal 0.406737 -0.913545 5.24807e-08
    outer loop
      vertex 15 -25.9808 0
      vertex 12.8434 -26.9409 11.8668
      vertex 9.27051 -28.5317 0
    endloop
  endfacet
  facet normal 0.406736 -0.913546 0
    outer loop
      vertex 12.8434 -26.9409 11.8668
      vertex 15 -25.9808 0
      vertex 15 -25.9808 11.8668
    endloop
  endfacet
  facet normal -0.207912 -0.978148 0
    outer loop
      vertex -9.27051 -28.5317 0
      vertex -6.96142 -29.0225 11.8668
      vertex -9.27051 -28.5317 11.8668
    endloop
  endfacet
  facet normal -0.207911 -0.978148 -3.86938e-08
    outer loop
      vertex -3.13585 -29.8357 0
      vertex -6.96142 -29.0225 11.8668
      vertex -9.27051 -28.5317 0
    endloop
  endfacet
  facet normal -0.207911 -0.978148 0
    outer loop
      vertex -6.96142 -29.0225 11.8668
      vertex -3.13585 -29.8357 0
      vertex -3.13585 -29.8357 11.8668
    endloop
  endfacet
  facet normal 0 -1 -0
    outer loop
      vertex -3.13585 -29.8357 11.8668
      vertex -3.13585 -29.8357 0
      vertex 3.13585 -29.8357 11.8668
    endloop
  endfacet
  facet normal 0 -1 0
    outer loop
      vertex 3.13585 -29.8357 0
      vertex 3.13585 -29.8357 11.8668
      vertex -3.13585 -29.8357 0
    endloop
  endfacet
  facet normal 0 0 -1
    outer loop
      vertex 12.4502 -0.0516657 0
      vertex 30 0 0
      vertex 29.3444 -6.23735 0
    endloop
  endfacet
  facet normal 0 0 -1
    outer loop
      vertex 12.1834 -2.58966 0
      vertex 29.3444 -6.23735 0
      vertex 27.4064 -12.2021 0
    endloop
  endfacet
  facet normal -0 0 -1
    outer loop
      vertex 30 0 0
      vertex 12.4502 -0.0516657 0
      vertex 12.4556 0 0
    endloop
  endfacet
  facet normal 0 0 -1
    outer loop
      vertex 11.3528 -5.11114 0
      vertex 27.4064 -12.2021 0
      vertex 24.2705 -17.6336 0
    endloop
  endfacet
  facet normal 0 0 -1
    outer loop
      vertex 12.4502 0.0516657 0
      vertex 30 0 0
      vertex 12.4556 0 0
    endloop
  endfacet
  facet normal 0 0 -1
    outer loop
      vertex 10.0768 -7.32122 0
      vertex 24.2705 -17.6336 0
      vertex 20.0739 -22.2943 0
    endloop
  endfacet
  facet normal 0 0 -1
    outer loop
      vertex 30 0 0
      vertex 12.4502 0.0516657 0
      vertex 29.3444 6.23735 0
    endloop
  endfacet
  facet normal 0 0 -1
    outer loop
      vertex 8.33442 -9.25631 0
      vertex 20.0739 -22.2943 0
      vertex 15 -25.9808 0
    endloop
  endfacet
  facet normal 0 0 -1
    outer loop
      vertex 12.1834 2.58966 0
      vertex 29.3444 6.23735 0
      vertex 12.4502 0.0516657 0
    endloop
  endfacet
  facet normal 0 0 -1
    outer loop
      vertex 11.3948 5.01674 0
      vertex 27.4064 12.2021 0
      vertex 12.1834 2.58966 0
    endloop
  endfacet
  facet normal -0 0 -1
    outer loop
      vertex 29.3444 6.23735 0
      vertex 12.1834 2.58966 0
      vertex 27.4064 12.2021 0
    endloop
  endfacet
  facet normal 0 0 -1
    outer loop
      vertex 29.3444 -6.23735 0
      vertex 12.1834 -2.58966 0
      vertex 12.4502 -0.0516657 0
    endloop
  endfacet
  facet normal 0 0 -1
    outer loop
      vertex 27.4064 -12.2021 0
      vertex 11.3948 -5.01674 0
      vertex 12.1834 -2.58966 0
    endloop
  endfacet
  facet normal 0 0 -1
    outer loop
      vertex 27.4064 -12.2021 0
      vertex 11.3788 -5.06615 0
      vertex 11.3948 -5.01674 0
    endloop
  endfacet
  facet normal 0 0 -1
    outer loop
      vertex 27.4064 -12.2021 0
      vertex 11.3528 -5.11114 0
      vertex 11.3788 -5.06615 0
    endloop
  endfacet
  facet normal 0 0 -1
    outer loop
      vertex 24.2705 -17.6336 0
      vertex 10.0768 -7.32122 0
      vertex 11.3528 -5.11114 0
    endloop
  endfacet
  facet normal 0 0 -1
    outer loop
      vertex 6.2278 -10.7869 0
      vertex 15 -25.9808 0
      vertex 9.27051 -28.5317 0
    endloop
  endfacet
  facet normal 0 0 -1
    outer loop
      vertex 20.0739 -22.2943 0
      vertex 8.36918 -9.21771 0
      vertex 10.0768 -7.32122 0
    endloop
  endfacet
  facet normal 0 0 -1
    outer loop
      vertex 20.0739 -22.2943 0
      vertex 8.33442 -9.25631 0
      vertex 8.36918 -9.21771 0
    endloop
  endfacet
  facet normal 0 0 -1
    outer loop
      vertex 15 -25.9808 0
      vertex 6.26983 -10.7563 0
      vertex 8.33442 -9.25631 0
    endloop
  endfacet
  facet normal 0 0 -1
    outer loop
      vertex 15 -25.9808 0
      vertex 6.2278 -10.7869 0
      vertex 6.26983 -10.7563 0
    endloop
  endfacet
  facet normal 0 0 -1
    outer loop
      vertex 9.27051 -28.5317 0
      vertex 3.89645 -11.8248 0
      vertex 6.2278 -10.7869 0
    endloop
  endfacet
  facet normal 0 0 -1
    outer loop
      vertex 9.27051 -28.5317 0
      vertex 3.84899 -11.846 0
      vertex 3.89645 -11.8248 0
    endloop
  endfacet
  facet normal 0 0 -1
    outer loop
      vertex 9.27051 -28.5317 0
      vertex 3.79818 -11.8568 0
      vertex 3.84899 -11.846 0
    endloop
  endfacet
  facet normal 0 0 -1
    outer loop
      vertex 3.13585 -29.8357 0
      vertex 3.79818 -11.8568 0
      vertex 9.27051 -28.5317 0
    endloop
  endfacet
  facet normal 0 0 -1
    outer loop
      vertex 3.13585 -29.8357 0
      vertex 1.30196 -12.3874 0
      vertex 3.79818 -11.8568 0
    endloop
  endfacet
  facet normal 0 0 -1
    outer loop
      vertex 3.13585 -29.8357 0
      vertex -1.30196 -12.3874 0
      vertex 1.30196 -12.3874 0
    endloop
  endfacet
  facet normal 0 0 -1
    outer loop
      vertex -3.13585 -29.8357 0
      vertex -1.30196 -12.3874 0
      vertex 3.13585 -29.8357 0
    endloop
  endfacet
  facet normal 0 0 -1
    outer loop
      vertex -3.13585 -29.8357 0
      vertex -3.79818 -11.8568 0
      vertex -1.30196 -12.3874 0
    endloop
  endfacet
  facet normal 0 0 -1
    outer loop
      vertex -9.27051 -28.5317 0
      vertex -3.79818 -11.8568 0
      vertex -3.13585 -29.8357 0
    endloop
  endfacet
  facet normal -0 0 -1
    outer loop
      vertex -3.79818 -11.8568 0
      vertex -9.27051 -28.5317 0
      vertex -3.84899 -11.846 0
    endloop
  endfacet
  facet normal -0 0 -1
    outer loop
      vertex -3.84899 -11.846 0
      vertex -9.27051 -28.5317 0
      vertex -3.89645 -11.8248 0
    endloop
  endfacet
  facet normal -0 0 -1
    outer loop
      vertex -3.89645 -11.8248 0
      vertex -9.27051 -28.5317 0
      vertex -6.2278 -10.7869 0
    endloop
  endfacet
  facet normal 0 0 -1
    outer loop
      vertex -15 -25.9808 0
      vertex -6.2278 -10.7869 0
      vertex -9.27051 -28.5317 0
    endloop
  endfacet
  facet normal -0 0 -1
    outer loop
      vertex -6.2278 -10.7869 0
      vertex -15 -25.9808 0
      vertex -8.29239 -9.28685 0
    endloop
  endfacet
  facet normal 0 0 -1
    outer loop
      vertex -20.0739 -22.2943 0
      vertex -8.29239 -9.28685 0
      vertex -15 -25.9808 0
    endloop
  endfacet
  facet normal -0 0 -1
    outer loop
      vertex -8.29239 -9.28685 0
      vertex -20.0739 -22.2943 0
      vertex -8.33442 -9.25631 0
    endloop
  endfacet
  facet normal -0 0 -1
    outer loop
      vertex -8.33442 -9.25631 0
      vertex -20.0739 -22.2943 0
      vertex -8.36918 -9.21771 0
    endloop
  endfacet
  facet normal -0 0 -1
    outer loop
      vertex -8.36918 -9.21771 0
      vertex -20.0739 -22.2943 0
      vertex -10.0768 -7.32122 0
    endloop
  endfacet
  facet normal 0 0 -1
    outer loop
      vertex -24.2705 -17.6336 0
      vertex -10.0768 -7.32122 0
      vertex -20.0739 -22.2943 0
    endloop
  endfacet
  facet normal -0 0 -1
    outer loop
      vertex -10.0768 -7.32122 0
      vertex -24.2705 -17.6336 0
      vertex -11.3528 -5.11114 0
    endloop
  endfacet
  facet normal 0 0 -1
    outer loop
      vertex -27.4064 -12.2021 0
      vertex -11.3528 -5.11114 0
      vertex -24.2705 -17.6336 0
    endloop
  endfacet
  facet normal -0 0 -1
    outer loop
      vertex -11.3528 -5.11114 0
      vertex -27.4064 -12.2021 0
      vertex -11.3788 -5.06615 0
    endloop
  endfacet
  facet normal -0 0 -1
    outer loop
      vertex -11.3788 -5.06615 0
      vertex -27.4064 -12.2021 0
      vertex -11.3948 -5.01674 0
    endloop
  endfacet
  facet normal -0 0 -1
    outer loop
      vertex -11.3948 -5.01674 0
      vertex -27.4064 -12.2021 0
      vertex -12.1834 -2.58966 0
    endloop
  endfacet
  facet normal 0 0 -1
    outer loop
      vertex -29.3444 -6.23735 0
      vertex -12.1834 -2.58966 0
      vertex -27.4064 -12.2021 0
    endloop
  endfacet
  facet normal 0 0 -1
    outer loop
      vertex -12.4556 0 0
      vertex -20.0739 22.2943 0
      vertex -15 25.9808 0
    endloop
  endfacet
  facet normal -0 0 -1
    outer loop
      vertex -12.1834 -2.58966 0
      vertex -29.3444 -6.23735 0
      vertex -12.4502 -0.0516657 0
    endloop
  endfacet
  facet normal 0 0 -1
    outer loop
      vertex -12.4556 0 0
      vertex -24.2705 17.6336 0
      vertex -20.0739 22.2943 0
    endloop
  endfacet
  facet normal 0 0 -1
    outer loop
      vertex -30 0 0
      vertex -12.4502 -0.0516657 0
      vertex -29.3444 -6.23735 0
    endloop
  endfacet
  facet normal 0 0 -1
    outer loop
      vertex -12.4556 0 0
      vertex -27.4064 12.2021 0
      vertex -24.2705 17.6336 0
    endloop
  endfacet
  facet normal 0 0 -1
    outer loop
      vertex -12.4502 -0.0516657 0
      vertex -30 0 0
      vertex -12.4556 0 0
    endloop
  endfacet
  facet normal 0 0 -1
    outer loop
      vertex -12.4556 0 0
      vertex -29.3444 6.23735 0
      vertex -27.4064 12.2021 0
    endloop
  endfacet
  facet normal 0 0 -1
    outer loop
      vertex -12.4556 0 0
      vertex -30 0 0
      vertex -29.3444 6.23735 0
    endloop
  endfacet
  facet normal 0 0 -1
    outer loop
      vertex 11.3788 5.06615 0
      vertex 27.4064 12.2021 0
      vertex 11.3948 5.01674 0
    endloop
  endfacet
  facet normal 0 0 -1
    outer loop
      vertex 11.3528 5.11114 0
      vertex 27.4064 12.2021 0
      vertex 11.3788 5.06615 0
    endloop
  endfacet
  facet normal -0 0 -1
    outer loop
      vertex 27.4064 12.2021 0
      vertex 11.3528 5.11114 0
      vertex 24.2705 17.6336 0
    endloop
  endfacet
  facet normal 0 0 -1
    outer loop
      vertex 10.0768 7.32122 0
      vertex 24.2705 17.6336 0
      vertex 11.3528 5.11114 0
    endloop
  endfacet
  facet normal -0 0 -1
    outer loop
      vertex 24.2705 17.6336 0
      vertex 10.0768 7.32122 0
      vertex 20.0739 22.2943 0
    endloop
  endfacet
  facet normal 0 0 -1
    outer loop
      vertex 8.36918 9.21771 0
      vertex 20.0739 22.2943 0
      vertex 10.0768 7.32122 0
    endloop
  endfacet
  facet normal 0 0 -1
    outer loop
      vertex 8.33442 9.25631 0
      vertex 20.0739 22.2943 0
      vertex 8.36918 9.21771 0
    endloop
  endfacet
  facet normal 0 0 -1
    outer loop
      vertex 8.29239 9.28685 0
      vertex 20.0739 22.2943 0
      vertex 8.33442 9.25631 0
    endloop
  endfacet
  facet normal -0 0 -1
    outer loop
      vertex 20.0739 22.2943 0
      vertex 8.29239 9.28685 0
      vertex 15 25.9808 0
    endloop
  endfacet
  facet normal 0 0 -1
    outer loop
      vertex 6.2278 10.7869 0
      vertex 15 25.9808 0
      vertex 8.29239 9.28685 0
    endloop
  endfacet
  facet normal -0 0 -1
    outer loop
      vertex 15 25.9808 0
      vertex 6.2278 10.7869 0
      vertex 9.27051 28.5317 0
    endloop
  endfacet
  facet normal 0 0 -1
    outer loop
      vertex 3.89645 11.8248 0
      vertex 9.27051 28.5317 0
      vertex 6.2278 10.7869 0
    endloop
  endfacet
  facet normal 0 0 -1
    outer loop
      vertex 3.84899 11.846 0
      vertex 9.27051 28.5317 0
      vertex 3.89645 11.8248 0
    endloop
  endfacet
  facet normal 0 0 -1
    outer loop
      vertex 3.79818 11.8568 0
      vertex 9.27051 28.5317 0
      vertex 3.84899 11.846 0
    endloop
  endfacet
  facet normal 0 0 -1
    outer loop
      vertex 3.79818 11.8568 0
      vertex 3.13585 29.8357 0
      vertex 9.27051 28.5317 0
    endloop
  endfacet
  facet normal 0 0 -1
    outer loop
      vertex 1.30196 12.3874 0
      vertex 3.13585 29.8357 0
      vertex 3.79818 11.8568 0
    endloop
  endfacet
  facet normal 0 0 -1
    outer loop
      vertex -1.30196 12.3874 0
      vertex 3.13585 29.8357 0
      vertex 1.30196 12.3874 0
    endloop
  endfacet
  facet normal 0 0 -1
    outer loop
      vertex -1.30196 12.3874 0
      vertex -3.13585 29.8357 0
      vertex 3.13585 29.8357 0
    endloop
  endfacet
  facet normal 0 0 -1
    outer loop
      vertex -3.79818 11.8568 0
      vertex -3.13585 29.8357 0
      vertex -1.30196 12.3874 0
    endloop
  endfacet
  facet normal 0 0 -1
    outer loop
      vertex -9.27051 28.5317 0
      vertex -3.79818 11.8568 0
      vertex -3.84899 11.846 0
    endloop
  endfacet
  facet normal 0 0 -1
    outer loop
      vertex -9.27051 28.5317 0
      vertex -3.84899 11.846 0
      vertex -3.89645 11.8248 0
    endloop
  endfacet
  facet normal 0 0 -1
    outer loop
      vertex -9.27051 28.5317 0
      vertex -3.89645 11.8248 0
      vertex -6.2278 10.7869 0
    endloop
  endfacet
  facet normal 0 0 -1
    outer loop
      vertex -15 25.9808 0
      vertex -6.2278 10.7869 0
      vertex -6.26983 10.7563 0
    endloop
  endfacet
  facet normal 0 0 -1
    outer loop
      vertex -15 25.9808 0
      vertex -6.26983 10.7563 0
      vertex -8.33442 9.25631 0
    endloop
  endfacet
  facet normal 0 0 -1
    outer loop
      vertex -15 25.9808 0
      vertex -8.33442 9.25631 0
      vertex -8.36918 9.21771 0
    endloop
  endfacet
  facet normal 0 0 -1
    outer loop
      vertex -3.79818 11.8568 0
      vertex -9.27051 28.5317 0
      vertex -3.13585 29.8357 0
    endloop
  endfacet
  facet normal 0 0 -1
    outer loop
      vertex -15 25.9808 0
      vertex -8.36918 9.21771 0
      vertex -10.0768 7.32122 0
    endloop
  endfacet
  facet normal 0 0 -1
    outer loop
      vertex -15 25.9808 0
      vertex -10.0768 7.32122 0
      vertex -11.3528 5.11114 0
    endloop
  endfacet
  facet normal 0 0 -1
    outer loop
      vertex -15 25.9808 0
      vertex -11.3528 5.11114 0
      vertex -11.3788 5.06615 0
    endloop
  endfacet
  facet normal 0 0 -1
    outer loop
      vertex -15 25.9808 0
      vertex -11.3788 5.06615 0
      vertex -11.3948 5.01674 0
    endloop
  endfacet
  facet normal 0 0 -1
    outer loop
      vertex -15 25.9808 0
      vertex -11.3948 5.01674 0
      vertex -12.1834 2.58966 0
    endloop
  endfacet
  facet normal 0 0 -1
    outer loop
      vertex -6.2278 10.7869 0
      vertex -15 25.9808 0
      vertex -9.27051 28.5317 0
    endloop
  endfacet
  facet normal 0 0 -1
    outer loop
      vertex -12.4502 0.0516657 0
      vertex -15 25.9808 0
      vertex -12.1834 2.58966 0
    endloop
  endfacet
  facet normal 0 0 -1
    outer loop
      vertex -15 25.9808 0
      vertex -12.4502 0.0516657 0
      vertex -12.4556 0 0
    endloop
  endfacet
  facet normal -0.951056 -0.309017 0
    outer loop
      vertex -29.3444 -6.23735 0
      vertex -28.1359 -9.95696 11.8668
      vertex -29.3444 -6.23735 11.8668
    endloop
  endfacet
  facet normal -0.951057 -0.309017 1.01753e-07
    outer loop
      vertex -27.4064 -12.2021 0
      vertex -28.1359 -9.95696 11.8668
      vertex -29.3444 -6.23735 0
    endloop
  endfacet
  facet normal -0.951057 -0.309016 0
    outer loop
      vertex -28.1359 -9.95696 11.8668
      vertex -27.4064 -12.2021 0
      vertex -27.4064 -12.2021 11.8668
    endloop
  endfacet
  facet normal -0.743145 -0.66913 0
    outer loop
      vertex -24.2705 -17.6336 0
      vertex -22.6909 -19.3879 11.8668
      vertex -24.2705 -17.6336 11.8668
    endloop
  endfacet
  facet normal -0.743145 -0.669131 -4.73665e-08
    outer loop
      vertex -20.0739 -22.2943 0
      vertex -22.6909 -19.3879 11.8668
      vertex -24.2705 -17.6336 0
    endloop
  endfacet
  facet normal -0.743145 -0.669131 0
    outer loop
      vertex -22.6909 -19.3879 11.8668
      vertex -20.0739 -22.2943 0
      vertex -20.0739 -22.2943 11.8668
    endloop
  endfacet
  facet normal 0.743145 -0.66913 0
    outer loop
      vertex 22.6909 -19.3879 11.8668
      vertex 24.2705 -17.6336 0
      vertex 24.2705 -17.6336 11.8668
    endloop
  endfacet
  facet normal 0.743145 -0.669131 0
    outer loop
      vertex 20.0739 -22.2943 0
      vertex 22.6909 -19.3879 11.8668
      vertex 20.0739 -22.2943 11.8668
    endloop
  endfacet
  facet normal 0.743145 -0.669131 -4.73665e-08
    outer loop
      vertex 22.6909 -19.3879 11.8668
      vertex 20.0739 -22.2943 0
      vertex 24.2705 -17.6336 0
    endloop
  endfacet
  facet normal -0.587785 -0.809017 0
    outer loop
      vertex -20.0739 -22.2943 0
      vertex -16.9098 -24.5932 11.8668
      vertex -20.0739 -22.2943 11.8668
    endloop
  endfacet
  facet normal -0.587785 -0.809017 -1.41058e-08
    outer loop
      vertex -15 -25.9808 0
      vertex -16.9098 -24.5932 11.8668
      vertex -20.0739 -22.2943 0
    endloop
  endfacet
  facet normal -0.587785 -0.809017 0
    outer loop
      vertex -16.9098 -24.5932 11.8668
      vertex -15 -25.9808 0
      vertex -15 -25.9808 11.8668
    endloop
  endfacet
  facet normal -0.406736 -0.913546 -0
    outer loop
      vertex -15 -25.9808 11.8668
      vertex -15 -25.9808 0
      vertex -12.8434 -26.9409 11.8668
    endloop
  endfacet
  facet normal -0.406737 -0.913545 5.24807e-08
    outer loop
      vertex -9.27051 -28.5317 0
      vertex -12.8434 -26.9409 11.8668
      vertex -15 -25.9808 0
    endloop
  endfacet
  facet normal -0.406737 -0.913545 0
    outer loop
      vertex -12.8434 -26.9409 11.8668
      vertex -9.27051 -28.5317 0
      vertex -9.27051 -28.5317 11.8668
    endloop
  endfacet
  facet normal 0.240173 -0.330567 0.912712
    outer loop
      vertex -10 17.3205 3.35898
      vertex -6.26983 10.7563 0
      vertex -6.2278 10.7869 0
    endloop
  endfacet
  facet normal 0.240171 -0.330567 0.912712
    outer loop
      vertex -6.26983 10.7563 0
      vertex -10 17.3205 3.35898
      vertex -13.3826 14.8629 3.35898
    endloop
  endfacet
  facet normal 0.346733 0.477238 0.807478
    outer loop
      vertex -13.3826 -23.1794 8.27421
      vertex -10 -17.3205 3.35898
      vertex -17.9094 -19.8904 8.27421
    endloop
  endfacet
  facet normal -0.303652 -0.273409 0.912712
    outer loop
      vertex 10.0768 7.32122 0
      vertex 16.1803 11.7557 3.35898
      vertex 8.36918 9.21771 0
    endloop
  endfacet
  facet normal 0.586667 0.0616614 0.807478
    outer loop
      vertex -19.563 -4.15823 3.35898
      vertex -20 0 3.35898
      vertex -26.1803 -5.5648 8.27421
    endloop
  endfacet
  facet normal 0.740888 -0.0778709 0.667099
    outer loop
      vertex -26.7652 0 8.27421
      vertex -29.7532 2.34775 11.8668
      vertex -30 0 11.8668
    endloop
  endfacet
  facet normal 0.740888 -0.0778706 0.667099
    outer loop
      vertex -29.7532 2.34775 11.8668
      vertex -26.7652 0 8.27421
      vertex -26.1803 5.5648 8.27421
    endloop
  endfacet
  facet normal 0.561027 0.182289 0.807478
    outer loop
      vertex -24.4512 -10.8864 8.27421
      vertex -18.2709 -8.13473 3.35898
      vertex -26.1803 -5.5648 8.27421
    endloop
  endfacet
  facet normal 0 -0.744969 0.667099
    outer loop
      vertex -2.79773 26.6186 8.27421
      vertex 3.13585 29.8357 11.8668
      vertex -3.13585 29.8357 11.8668
    endloop
  endfacet
  facet normal 0 -0.744969 0.667099
    outer loop
      vertex 3.13585 29.8357 11.8668
      vertex -2.79773 26.6186 8.27421
      vertex 2.79773 26.6186 8.27421
    endloop
  endfacet
  facet normal -0.586667 -0.0616612 0.807478
    outer loop
      vertex 26.7652 0 8.27421
      vertex 26.1803 5.5648 8.27421
      vertex 20 0 3.35898
    endloop
  endfacet
  facet normal -0.406365 -0.0427109 0.912712
    outer loop
      vertex 12.4502 0.0516657 0
      vertex 20 0 3.35898
      vertex 19.563 4.15823 3.35898
    endloop
  endfacet
  facet normal -0.406365 -0.0427102 0.912712
    outer loop
      vertex 20 0 3.35898
      vertex 12.4502 0.0516657 0
      vertex 12.4556 0 0
    endloop
  endfacet
  facet normal -0.708508 0.230208 0.667099
    outer loop
      vertex 24.4512 -10.8864 8.27421
      vertex 28.1359 -9.95696 11.8668
      vertex 26.1803 -5.5648 8.27421
    endloop
  endfacet
  facet normal -0.708508 0.230208 0.667099
    outer loop
      vertex 28.1359 -9.95696 11.8668
      vertex 24.4512 -10.8864 8.27421
      vertex 27.4064 -12.2021 11.8668
    endloop
  endfacet
  facet normal 0.645163 -0.372484 0.667099
    outer loop
      vertex -24.4512 10.8864 8.27421
      vertex -25.4508 15.5891 11.8668
      vertex -27.4064 12.2021 11.8668
    endloop
  endfacet
  facet normal 0.55362 -0.498482 0.667099
    outer loop
      vertex -22.6909 19.3879 11.8668
      vertex -21.6535 15.7322 8.27421
      vertex -17.9094 19.8904 8.27421
    endloop
  endfacet
  facet normal 0.55362 -0.498482 0.667099
    outer loop
      vertex -21.6535 15.7322 8.27421
      vertex -22.6909 19.3879 11.8668
      vertex -24.2705 17.6336 11.8668
    endloop
  endfacet
  facet normal 0.346733 -0.477238 0.807478
    outer loop
      vertex -10 17.3205 3.35898
      vertex -13.3826 23.1794 8.27421
      vertex -17.9094 19.8904 8.27421
    endloop
  endfacet
  facet normal 0.122647 -0.577008 0.807478
    outer loop
      vertex -2.09057 19.8904 3.35898
      vertex -2.79773 26.6186 8.27421
      vertex -6.18034 19.0211 3.35898
    endloop
  endfacet
  facet normal -0.740888 -0.0778703 0.667099
    outer loop
      vertex 29.7532 2.34775 11.8668
      vertex 29.3444 6.23735 11.8668
      vertex 26.1803 5.5648 8.27421
    endloop
  endfacet
  facet normal -0.645162 0.372485 0.667099
    outer loop
      vertex 21.6535 -15.7322 8.27421
      vertex 25.4508 -15.5891 11.8668
      vertex 24.4512 -10.8864 8.27421
    endloop
  endfacet
  facet normal -0.645162 0.372485 0.667099
    outer loop
      vertex 25.4508 -15.5891 11.8668
      vertex 21.6535 -15.7322 8.27421
      vertex 24.2705 -17.6336 11.8668
    endloop
  endfacet
  facet normal 0.708508 0.230208 0.667099
    outer loop
      vertex -29.3444 -6.23735 11.8668
      vertex -28.1359 -9.95696 11.8668
      vertex -26.1803 -5.5648 8.27421
    endloop
  endfacet
  facet normal 0.406365 -0.0427109 0.912712
    outer loop
      vertex -20 0 3.35898
      vertex -12.4502 0.0516657 0
      vertex -19.563 4.15823 3.35898
    endloop
  endfacet
  facet normal 0.406365 -0.0427102 0.912712
    outer loop
      vertex -12.4502 0.0516657 0
      vertex -20 0 3.35898
      vertex -12.4556 0 0
    endloop
  endfacet
  facet normal 0.55362 -0.498482 0.667099
    outer loop
      vertex -17.9094 19.8904 8.27421
      vertex -20.0739 22.2943 11.8668
      vertex -22.6909 19.3879 11.8668
    endloop
  endfacet
  facet normal -0.239933 -0.538899 0.807478
    outer loop
      vertex 10 17.3205 3.35898
      vertex 8.27091 25.4552 8.27421
      vertex 6.18034 19.0211 3.35898
    endloop
  endfacet
  facet normal 0.239933 -0.538899 0.807478
    outer loop
      vertex -10 17.3205 3.35898
      vertex -8.27091 25.4552 8.27421
      vertex -13.3826 23.1794 8.27421
    endloop
  endfacet
  facet normal -0.239933 -0.538899 0.807478
    outer loop
      vertex 10 17.3205 3.35898
      vertex 13.3826 23.1794 8.27421
      vertex 8.27091 25.4552 8.27421
    endloop
  endfacet
  facet normal -0.346733 -0.477238 0.807478
    outer loop
      vertex 13.3826 14.8629 3.35898
      vertex 17.9094 19.8904 8.27421
      vertex 10 17.3205 3.35898
    endloop
  endfacet
  facet normal 0.303652 -0.273409 0.912712
    outer loop
      vertex -13.3826 14.8629 3.35898
      vertex -8.36918 9.21771 0
      vertex -8.33442 9.25631 0
    endloop
  endfacet
  facet normal 0.303652 -0.273409 0.912712
    outer loop
      vertex -8.36918 9.21771 0
      vertex -13.3826 14.8629 3.35898
      vertex -16.1803 11.7557 3.35898
    endloop
  endfacet
  facet normal -0.43838 0.394719 0.807478
    outer loop
      vertex 17.9094 -19.8904 8.27421
      vertex 21.6535 -15.7322 8.27421
      vertex 16.1803 -11.7557 3.35898
    endloop
  endfacet
  facet normal 0.708508 -0.230208 0.667099
    outer loop
      vertex -28.1359 9.95696 11.8668
      vertex -24.4512 10.8864 8.27421
      vertex -27.4064 12.2021 11.8668
    endloop
  endfacet
  facet normal 0.708508 -0.230208 0.667099
    outer loop
      vertex -24.4512 10.8864 8.27421
      vertex -28.1359 9.95696 11.8668
      vertex -26.1803 5.5648 8.27421
    endloop
  endfacet
  facet normal 0.740888 0.0778709 0.667099
    outer loop
      vertex -29.7532 -2.34775 11.8668
      vertex -26.7652 0 8.27421
      vertex -30 0 11.8668
    endloop
  endfacet
  facet normal 0.740888 0.0778706 0.667099
    outer loop
      vertex -26.7652 0 8.27421
      vertex -29.7532 -2.34775 11.8668
      vertex -26.1803 -5.5648 8.27421
    endloop
  endfacet
  facet normal 0.708508 -0.230208 0.667099
    outer loop
      vertex -28.1359 9.95696 11.8668
      vertex -29.3444 6.23735 11.8668
      vertex -26.1803 5.5648 8.27421
    endloop
  endfacet
  facet normal 0.43838 -0.394719 0.807478
    outer loop
      vertex -16.1803 11.7557 3.35898
      vertex -17.9094 19.8904 8.27421
      vertex -21.6535 15.7322 8.27421
    endloop
  endfacet
  facet normal 0.437882 -0.602693 0.667099
    outer loop
      vertex -16.9098 24.5932 11.8668
      vertex -13.3826 23.1794 8.27421
      vertex -15 25.9808 11.8668
    endloop
  endfacet
  facet normal 0.437882 -0.602693 0.667099
    outer loop
      vertex -13.3826 23.1794 8.27421
      vertex -16.9098 24.5932 11.8668
      vertex -17.9094 19.8904 8.27421
    endloop
  endfacet
  facet normal 0.154888 -0.72869 0.667099
    outer loop
      vertex -8.27091 25.4552 8.27421
      vertex -5.44495 29.3448 11.8668
      vertex -9.27051 28.5317 11.8668
    endloop
  endfacet
  facet normal 0.303007 -0.680563 0.667099
    outer loop
      vertex -13.3826 23.1794 8.27421
      vertex -12.8434 26.9409 11.8668
      vertex -15 25.9808 11.8668
    endloop
  endfacet
  facet normal 0.303006 -0.680563 0.667099
    outer loop
      vertex -12.8434 26.9409 11.8668
      vertex -13.3826 23.1794 8.27421
      vertex -8.27091 25.4552 8.27421
    endloop
  endfacet
  facet normal 0.561027 0.182288 0.807478
    outer loop
      vertex -18.2709 -8.13473 3.35898
      vertex -19.563 -4.15823 3.35898
      vertex -26.1803 -5.5648 8.27421
    endloop
  endfacet
  facet normal -0.303006 -0.680563 0.667099
    outer loop
      vertex 13.3826 23.1794 8.27421
      vertex 12.8434 26.9409 11.8668
      vertex 8.27091 25.4552 8.27421
    endloop
  endfacet
  facet normal -0.303006 -0.680563 0.667099
    outer loop
      vertex 12.8434 26.9409 11.8668
      vertex 13.3826 23.1794 8.27421
      vertex 15 25.9808 11.8668
    endloop
  endfacet
  facet normal -0.303652 -0.273409 0.912712
    outer loop
      vertex 13.3826 14.8629 3.35898
      vertex 8.36918 9.21771 0
      vertex 16.1803 11.7557 3.35898
    endloop
  endfacet
  facet normal -0.303652 -0.273409 0.912712
    outer loop
      vertex 8.36918 9.21771 0
      vertex 13.3826 14.8629 3.35898
      vertex 8.33442 9.25631 0
    endloop
  endfacet
  facet normal -0.510867 -0.294949 0.807478
    outer loop
      vertex 24.4512 10.8864 8.27421
      vertex 21.6535 15.7322 8.27421
      vertex 16.1803 11.7557 3.35898
    endloop
  endfacet
  facet normal -0.388605 -0.126265 0.912712
    outer loop
      vertex 12.1834 2.58966 0
      vertex 19.563 4.15823 3.35898
      vertex 11.3948 5.01674 0
    endloop
  endfacet
  facet normal -0.166194 -0.373278 0.912712
    outer loop
      vertex 6.2278 10.7869 0
      vertex 10 17.3205 3.35898
      vertex 3.89645 11.8248 0
    endloop
  endfacet
  facet normal -0.437882 -0.602693 0.667099
    outer loop
      vertex 17.9094 19.8904 8.27421
      vertex 20.0739 22.2943 11.8668
      vertex 16.9098 24.5932 11.8668
    endloop
  endfacet
  facet normal -0.43838 -0.394719 0.807478
    outer loop
      vertex 21.6535 15.7322 8.27421
      vertex 17.9094 19.8904 8.27421
      vertex 16.1803 11.7557 3.35898
    endloop
  endfacet
  facet normal -0.166194 -0.373278 0.912712
    outer loop
      vertex 6.18034 19.0211 3.35898
      vertex 3.89645 11.8248 0
      vertex 10 17.3205 3.35898
    endloop
  endfacet
  facet normal -0.16619 -0.373279 0.912712
    outer loop
      vertex 3.89645 11.8248 0
      vertex 6.18034 19.0211 3.35898
      vertex 3.84899 11.846 0
    endloop
  endfacet
  facet normal 0.437882 -0.602693 0.667099
    outer loop
      vertex -17.9094 19.8904 8.27421
      vertex -16.9098 24.5932 11.8668
      vertex -20.0739 22.2943 11.8668
    endloop
  endfacet
  facet normal -0.240171 0.330567 0.912712
    outer loop
      vertex 6.26983 -10.7563 0
      vertex 10 -17.3205 3.35898
      vertex 13.3826 -14.8629 3.35898
    endloop
  endfacet
  facet normal -0.240173 0.330567 0.912712
    outer loop
      vertex 10 -17.3205 3.35898
      vertex 6.26983 -10.7563 0
      vertex 6.2278 -10.7869 0
    endloop
  endfacet
  facet normal 0.586667 -0.0616614 0.807478
    outer loop
      vertex -20 0 3.35898
      vertex -19.563 4.15823 3.35898
      vertex -26.1803 5.5648 8.27421
    endloop
  endfacet
  facet normal -0.645163 0.372484 0.667099
    outer loop
      vertex 25.4508 -15.5891 11.8668
      vertex 27.4064 -12.2021 11.8668
      vertex 24.4512 -10.8864 8.27421
    endloop
  endfacet
  facet normal -0.708508 0.230208 0.667099
    outer loop
      vertex 28.1359 -9.95696 11.8668
      vertex 29.3444 -6.23735 11.8668
      vertex 26.1803 -5.5648 8.27421
    endloop
  endfacet
  facet normal -0.303006 -0.680563 0.667099
    outer loop
      vertex 12.8434 26.9409 11.8668
      vertex 9.27051 28.5317 11.8668
      vertex 8.27091 25.4552 8.27421
    endloop
  endfacet
  facet normal 0.240169 0.330569 0.912712
    outer loop
      vertex -13.3826 -14.8629 3.35898
      vertex -8.29239 -9.28685 0
      vertex -8.33442 -9.25631 0
    endloop
  endfacet
  facet normal 0.240171 0.330567 0.912712
    outer loop
      vertex -8.29239 -9.28685 0
      vertex -13.3826 -14.8629 3.35898
      vertex -10 -17.3205 3.35898
    endloop
  endfacet
  facet normal -0.586667 -0.0616614 0.807478
    outer loop
      vertex 20 0 3.35898
      vertex 26.1803 5.5648 8.27421
      vertex 19.563 4.15823 3.35898
    endloop
  endfacet
  facet normal -0.586667 0.0616612 0.807478
    outer loop
      vertex 26.1803 -5.5648 8.27421
      vertex 26.7652 0 8.27421
      vertex 20 0 3.35898
    endloop
  endfacet
  facet normal 0.388606 0.126264 0.912712
    outer loop
      vertex -11.3948 -5.01674 0
      vertex -18.2709 -8.13473 3.35898
      vertex -11.3788 -5.06615 0
    endloop
  endfacet
  facet normal 0.388605 0.126265 0.912712
    outer loop
      vertex -18.2709 -8.13473 3.35898
      vertex -11.3948 -5.01674 0
      vertex -19.563 -4.15823 3.35898
    endloop
  endfacet
  facet normal 0.303006 0.680563 0.667099
    outer loop
      vertex -9.27051 -28.5317 11.8668
      vertex -8.27091 -25.4552 8.27421
      vertex -12.8434 -26.9409 11.8668
    endloop
  endfacet
  facet normal 0.740888 0.0778703 0.667099
    outer loop
      vertex -29.3444 -6.23735 11.8668
      vertex -26.1803 -5.5648 8.27421
      vertex -29.7532 -2.34775 11.8668
    endloop
  endfacet
  facet normal 0.586667 -0.0616612 0.807478
    outer loop
      vertex -20 0 3.35898
      vertex -26.1803 5.5648 8.27421
      vertex -26.7652 0 8.27421
    endloop
  endfacet
  facet normal 0.586667 0.0616612 0.807478
    outer loop
      vertex -26.1803 -5.5648 8.27421
      vertex -20 0 3.35898
      vertex -26.7652 0 8.27421
    endloop
  endfacet
  facet normal 0.740888 -0.0778703 0.667099
    outer loop
      vertex -26.1803 5.5648 8.27421
      vertex -29.3444 6.23735 11.8668
      vertex -29.7532 2.34775 11.8668
    endloop
  endfacet
  facet normal 0.645162 -0.372485 0.667099
    outer loop
      vertex -25.4508 15.5891 11.8668
      vertex -21.6535 15.7322 8.27421
      vertex -24.2705 17.6336 11.8668
    endloop
  endfacet
  facet normal 0.645162 -0.372485 0.667099
    outer loop
      vertex -21.6535 15.7322 8.27421
      vertex -25.4508 15.5891 11.8668
      vertex -24.4512 10.8864 8.27421
    endloop
  endfacet
  facet normal 0.510867 -0.294949 0.807478
    outer loop
      vertex -16.1803 11.7557 3.35898
      vertex -21.6535 15.7322 8.27421
      vertex -24.4512 10.8864 8.27421
    endloop
  endfacet
  facet normal 0.0849534 -0.399675 0.912712
    outer loop
      vertex -1.30196 12.3874 0
      vertex -2.09057 19.8904 3.35898
      vertex -3.79818 11.8568 0
    endloop
  endfacet
  facet normal 0.154888 -0.72869 0.667099
    outer loop
      vertex -2.79773 26.6186 8.27421
      vertex -3.13585 29.8357 11.8668
      vertex -5.44495 29.3448 11.8668
    endloop
  endfacet
  facet normal 0.154888 -0.72869 0.667099
    outer loop
      vertex -2.79773 26.6186 8.27421
      vertex -5.44495 29.3448 11.8668
      vertex -8.27091 25.4552 8.27421
    endloop
  endfacet
  facet normal 0.303006 -0.680563 0.667099
    outer loop
      vertex -8.27091 25.4552 8.27421
      vertex -9.27051 28.5317 11.8668
      vertex -12.8434 26.9409 11.8668
    endloop
  endfacet
  facet normal 0 0.744969 0.667099
    outer loop
      vertex 2.79773 -26.6186 8.27421
      vertex -3.13585 -29.8357 11.8668
      vertex 3.13585 -29.8357 11.8668
    endloop
  endfacet
  facet normal 0 0.744969 0.667099
    outer loop
      vertex -3.13585 -29.8357 11.8668
      vertex 2.79773 -26.6186 8.27421
      vertex -2.79773 -26.6186 8.27421
    endloop
  endfacet
  facet normal -0.388605 0.126265 0.912712
    outer loop
      vertex 11.3948 -5.01674 0
      vertex 18.2709 -8.13473 3.35898
      vertex 19.563 -4.15823 3.35898
    endloop
  endfacet
  facet normal -0.388606 0.126264 0.912712
    outer loop
      vertex 18.2709 -8.13473 3.35898
      vertex 11.3948 -5.01674 0
      vertex 11.3788 -5.06615 0
    endloop
  endfacet
  facet normal 0.43838 0.394719 0.807478
    outer loop
      vertex -17.9094 -19.8904 8.27421
      vertex -16.1803 -11.7557 3.35898
      vertex -21.6535 -15.7322 8.27421
    endloop
  endfacet
  facet normal 0.43838 0.394719 0.807478
    outer loop
      vertex -13.3826 -14.8629 3.35898
      vertex -16.1803 -11.7557 3.35898
      vertex -17.9094 -19.8904 8.27421
    endloop
  endfacet
  facet normal 0.561027 -0.182288 0.807478
    outer loop
      vertex -19.563 4.15823 3.35898
      vertex -18.2709 8.13473 3.35898
      vertex -26.1803 5.5648 8.27421
    endloop
  endfacet
  facet normal -0.353861 0.204302 0.912712
    outer loop
      vertex 16.1803 -11.7557 3.35898
      vertex 11.3528 -5.11114 0
      vertex 10.0768 -7.32122 0
    endloop
  endfacet
  facet normal -0.43838 -0.394719 0.807478
    outer loop
      vertex 16.1803 11.7557 3.35898
      vertex 17.9094 19.8904 8.27421
      vertex 13.3826 14.8629 3.35898
    endloop
  endfacet
  facet normal -0.240171 -0.330567 0.912712
    outer loop
      vertex 8.29239 9.28685 0
      vertex 13.3826 14.8629 3.35898
      vertex 10 17.3205 3.35898
    endloop
  endfacet
  facet normal -0.240169 -0.330569 0.912712
    outer loop
      vertex 13.3826 14.8629 3.35898
      vertex 8.29239 9.28685 0
      vertex 8.33442 9.25631 0
    endloop
  endfacet
  facet normal 0.406365 0.0427102 0.912712
    outer loop
      vertex -20 0 3.35898
      vertex -12.4502 -0.0516657 0
      vertex -12.4556 0 0
    endloop
  endfacet
  facet normal 0.406365 0.0427109 0.912712
    outer loop
      vertex -12.4502 -0.0516657 0
      vertex -20 0 3.35898
      vertex -19.563 -4.15823 3.35898
    endloop
  endfacet
  facet normal 0.166194 -0.373278 0.912712
    outer loop
      vertex -6.2278 10.7869 0
      vertex -3.89645 11.8248 0
      vertex -10 17.3205 3.35898
    endloop
  endfacet
  facet normal 0.16619 -0.373279 0.912712
    outer loop
      vertex -6.18034 19.0211 3.35898
      vertex -3.89645 11.8248 0
      vertex -3.84899 11.846 0
    endloop
  endfacet
  facet normal 0.166194 -0.373278 0.912712
    outer loop
      vertex -3.89645 11.8248 0
      vertex -6.18034 19.0211 3.35898
      vertex -10 17.3205 3.35898
    endloop
  endfacet
  facet normal 0.0849536 -0.399675 0.912712
    outer loop
      vertex -6.18034 19.0211 3.35898
      vertex -3.79818 11.8568 0
      vertex -2.09057 19.8904 3.35898
    endloop
  endfacet
  facet normal 0.0849552 -0.399674 0.912712
    outer loop
      vertex -3.79818 11.8568 0
      vertex -6.18034 19.0211 3.35898
      vertex -3.84899 11.846 0
    endloop
  endfacet
  facet normal 0.353861 -0.204302 0.912712
    outer loop
      vertex -11.3528 5.11114 0
      vertex -10.0768 7.32122 0
      vertex -16.1803 11.7557 3.35898
    endloop
  endfacet
  facet normal -0.645162 -0.372485 0.667099
    outer loop
      vertex 21.6535 15.7322 8.27421
      vertex 25.4508 15.5891 11.8668
      vertex 24.2705 17.6336 11.8668
    endloop
  endfacet
  facet normal -0.645162 -0.372485 0.667099
    outer loop
      vertex 25.4508 15.5891 11.8668
      vertex 21.6535 15.7322 8.27421
      vertex 24.4512 10.8864 8.27421
    endloop
  endfacet
  facet normal -0.708508 -0.230208 0.667099
    outer loop
      vertex 24.4512 10.8864 8.27421
      vertex 28.1359 9.95696 11.8668
      vertex 27.4064 12.2021 11.8668
    endloop
  endfacet
  facet normal -0.708508 -0.230208 0.667099
    outer loop
      vertex 28.1359 9.95696 11.8668
      vertex 24.4512 10.8864 8.27421
      vertex 26.1803 5.5648 8.27421
    endloop
  endfacet
  facet normal -0.740888 0.0778703 0.667099
    outer loop
      vertex 29.3444 -6.23735 11.8668
      vertex 29.7532 -2.34775 11.8668
      vertex 26.1803 -5.5648 8.27421
    endloop
  endfacet
  facet normal -0.740888 0.0778709 0.667099
    outer loop
      vertex 26.7652 0 8.27421
      vertex 29.7532 -2.34775 11.8668
      vertex 30 0 11.8668
    endloop
  endfacet
  facet normal -0.740888 0.0778706 0.667099
    outer loop
      vertex 29.7532 -2.34775 11.8668
      vertex 26.7652 0 8.27421
      vertex 26.1803 -5.5648 8.27421
    endloop
  endfacet
  facet normal -0.154888 -0.72869 0.667099
    outer loop
      vertex 8.27091 25.4552 8.27421
      vertex 6.96142 29.0225 11.8668
      vertex 2.79773 26.6186 8.27421
    endloop
  endfacet
  facet normal -0.154888 -0.72869 0.667099
    outer loop
      vertex 6.96142 29.0225 11.8668
      vertex 8.27091 25.4552 8.27421
      vertex 9.27051 28.5317 11.8668
    endloop
  endfacet
  facet normal 0.346733 -0.477238 0.807478
    outer loop
      vertex -13.3826 14.8629 3.35898
      vertex -10 17.3205 3.35898
      vertex -17.9094 19.8904 8.27421
    endloop
  endfacet
  facet normal 0.43838 -0.394719 0.807478
    outer loop
      vertex -16.1803 11.7557 3.35898
      vertex -13.3826 14.8629 3.35898
      vertex -17.9094 19.8904 8.27421
    endloop
  endfacet
  facet normal -0.510867 0.294949 0.807478
    outer loop
      vertex 21.6535 -15.7322 8.27421
      vertex 24.4512 -10.8864 8.27421
      vertex 16.1803 -11.7557 3.35898
    endloop
  endfacet
  facet normal -0.586667 0.0616614 0.807478
    outer loop
      vertex 26.1803 -5.5648 8.27421
      vertex 20 0 3.35898
      vertex 19.563 -4.15823 3.35898
    endloop
  endfacet
  facet normal -0.561027 0.182288 0.807478
    outer loop
      vertex 26.1803 -5.5648 8.27421
      vertex 19.563 -4.15823 3.35898
      vertex 18.2709 -8.13473 3.35898
    endloop
  endfacet
  facet normal -0.561027 0.182289 0.807478
    outer loop
      vertex 24.4512 -10.8864 8.27421
      vertex 26.1803 -5.5648 8.27421
      vertex 18.2709 -8.13473 3.35898
    endloop
  endfacet
  facet normal 0.353861 0.204303 0.912712
    outer loop
      vertex -18.2709 -8.13473 3.35898
      vertex -11.3528 -5.11114 0
      vertex -11.3788 -5.06615 0
    endloop
  endfacet
  facet normal 0.353861 0.204302 0.912712
    outer loop
      vertex -11.3528 -5.11114 0
      vertex -18.2709 -8.13473 3.35898
      vertex -16.1803 -11.7557 3.35898
    endloop
  endfacet
  facet normal -0.154887 -0.72869 0.667099
    outer loop
      vertex 3.13585 29.8357 11.8668
      vertex 2.79773 26.6186 8.27421
      vertex 6.96142 29.0225 11.8668
    endloop
  endfacet
  facet normal -0.122647 -0.577008 0.807478
    outer loop
      vertex 6.18034 19.0211 3.35898
      vertex 8.27091 25.4552 8.27421
      vertex 2.79773 26.6186 8.27421
    endloop
  endfacet
  facet normal 0 -0.589898 0.807478
    outer loop
      vertex 2.79773 26.6186 8.27421
      vertex -2.09057 19.8904 3.35898
      vertex 2.09057 19.8904 3.35898
    endloop
  endfacet
  facet normal 0 -0.589898 0.807478
    outer loop
      vertex -2.09057 19.8904 3.35898
      vertex 2.79773 26.6186 8.27421
      vertex -2.79773 26.6186 8.27421
    endloop
  endfacet
  facet normal 0 -0.408604 0.912712
    outer loop
      vertex 2.09057 19.8904 3.35898
      vertex -1.30196 12.3874 0
      vertex 1.30196 12.3874 0
    endloop
  endfacet
  facet normal 0 -0.408604 0.912712
    outer loop
      vertex -1.30196 12.3874 0
      vertex 2.09057 19.8904 3.35898
      vertex -2.09057 19.8904 3.35898
    endloop
  endfacet
  facet normal -0.303006 0.680563 0.667099
    outer loop
      vertex 8.27091 -25.4552 8.27421
      vertex 9.27051 -28.5317 11.8668
      vertex 12.8434 -26.9409 11.8668
    endloop
  endfacet
  facet normal 0.154888 0.72869 0.667099
    outer loop
      vertex -8.27091 -25.4552 8.27421
      vertex -6.96142 -29.0225 11.8668
      vertex -2.79773 -26.6186 8.27421
    endloop
  endfacet
  facet normal 0.154888 0.72869 0.667099
    outer loop
      vertex -6.96142 -29.0225 11.8668
      vertex -8.27091 -25.4552 8.27421
      vertex -9.27051 -28.5317 11.8668
    endloop
  endfacet
  facet normal -0.388605 0.126265 0.912712
    outer loop
      vertex 19.563 -4.15823 3.35898
      vertex 12.1834 -2.58966 0
      vertex 11.3948 -5.01674 0
    endloop
  endfacet
  facet normal -0.303652 0.273409 0.912712
    outer loop
      vertex 8.36918 -9.21771 0
      vertex 13.3826 -14.8629 3.35898
      vertex 16.1803 -11.7557 3.35898
    endloop
  endfacet
  facet normal -0.303652 0.273409 0.912712
    outer loop
      vertex 13.3826 -14.8629 3.35898
      vertex 8.36918 -9.21771 0
      vertex 8.33442 -9.25631 0
    endloop
  endfacet
  facet normal -0.437882 0.602693 0.667099
    outer loop
      vertex 20.0739 -22.2943 11.8668
      vertex 17.9094 -19.8904 8.27421
      vertex 16.9098 -24.5932 11.8668
    endloop
  endfacet
  facet normal -0.561027 -0.182289 0.807478
    outer loop
      vertex 26.1803 5.5648 8.27421
      vertex 24.4512 10.8864 8.27421
      vertex 18.2709 8.13473 3.35898
    endloop
  endfacet
  facet normal -0.437882 -0.602693 0.667099
    outer loop
      vertex 13.3826 23.1794 8.27421
      vertex 16.9098 24.5932 11.8668
      vertex 15 25.9808 11.8668
    endloop
  endfacet
  facet normal -0.437882 -0.602693 0.667099
    outer loop
      vertex 16.9098 24.5932 11.8668
      vertex 13.3826 23.1794 8.27421
      vertex 17.9094 19.8904 8.27421
    endloop
  endfacet
  facet normal -0.346733 -0.477238 0.807478
    outer loop
      vertex 17.9094 19.8904 8.27421
      vertex 13.3826 23.1794 8.27421
      vertex 10 17.3205 3.35898
    endloop
  endfacet
  facet normal -0.353861 -0.204302 0.912712
    outer loop
      vertex 11.3528 5.11114 0
      vertex 16.1803 11.7557 3.35898
      vertex 10.0768 7.32122 0
    endloop
  endfacet
  facet normal -0.0849552 -0.399674 0.912712
    outer loop
      vertex 6.18034 19.0211 3.35898
      vertex 3.79818 11.8568 0
      vertex 3.84899 11.846 0
    endloop
  endfacet
  facet normal -0.0849536 -0.399675 0.912712
    outer loop
      vertex 3.79818 11.8568 0
      vertex 6.18034 19.0211 3.35898
      vertex 2.09057 19.8904 3.35898
    endloop
  endfacet
  facet normal -0.0849534 -0.399675 0.912712
    outer loop
      vertex 3.79818 11.8568 0
      vertex 2.09057 19.8904 3.35898
      vertex 1.30196 12.3874 0
    endloop
  endfacet
  facet normal 0.303652 -0.273409 0.912712
    outer loop
      vertex -10.0768 7.32122 0
      vertex -8.36918 9.21771 0
      vertex -16.1803 11.7557 3.35898
    endloop
  endfacet
  facet normal 0.561027 -0.182289 0.807478
    outer loop
      vertex -18.2709 8.13473 3.35898
      vertex -24.4512 10.8864 8.27421
      vertex -26.1803 5.5648 8.27421
    endloop
  endfacet
  facet normal 0.510867 -0.294949 0.807478
    outer loop
      vertex -18.2709 8.13473 3.35898
      vertex -16.1803 11.7557 3.35898
      vertex -24.4512 10.8864 8.27421
    endloop
  endfacet
  facet normal -0.708508 -0.230208 0.667099
    outer loop
      vertex 29.3444 6.23735 11.8668
      vertex 28.1359 9.95696 11.8668
      vertex 26.1803 5.5648 8.27421
    endloop
  endfacet
  facet normal -0.740888 -0.0778706 0.667099
    outer loop
      vertex 26.7652 0 8.27421
      vertex 29.7532 2.34775 11.8668
      vertex 26.1803 5.5648 8.27421
    endloop
  endfacet
  facet normal -0.740888 -0.0778709 0.667099
    outer loop
      vertex 29.7532 2.34775 11.8668
      vertex 26.7652 0 8.27421
      vertex 30 0 11.8668
    endloop
  endfacet
  facet normal -0.55362 -0.498482 0.667099
    outer loop
      vertex 22.6909 19.3879 11.8668
      vertex 21.6535 15.7322 8.27421
      vertex 24.2705 17.6336 11.8668
    endloop
  endfacet
  facet normal -0.55362 -0.498482 0.667099
    outer loop
      vertex 21.6535 15.7322 8.27421
      vertex 22.6909 19.3879 11.8668
      vertex 17.9094 19.8904 8.27421
    endloop
  endfacet
  facet normal -0.55362 -0.498482 0.667099
    outer loop
      vertex 22.6909 19.3879 11.8668
      vertex 20.0739 22.2943 11.8668
      vertex 17.9094 19.8904 8.27421
    endloop
  endfacet
  facet normal -0.510867 0.294949 0.807478
    outer loop
      vertex 24.4512 -10.8864 8.27421
      vertex 18.2709 -8.13473 3.35898
      vertex 16.1803 -11.7557 3.35898
    endloop
  endfacet
  facet normal 0.346733 0.477238 0.807478
    outer loop
      vertex -10 -17.3205 3.35898
      vertex -13.3826 -14.8629 3.35898
      vertex -17.9094 -19.8904 8.27421
    endloop
  endfacet
  facet normal 0.239933 -0.538899 0.807478
    outer loop
      vertex -6.18034 19.0211 3.35898
      vertex -8.27091 25.4552 8.27421
      vertex -10 17.3205 3.35898
    endloop
  endfacet
  facet normal 0.122647 -0.577008 0.807478
    outer loop
      vertex -6.18034 19.0211 3.35898
      vertex -2.79773 26.6186 8.27421
      vertex -8.27091 25.4552 8.27421
    endloop
  endfacet
  facet normal -0.122647 0.577008 0.807478
    outer loop
      vertex 2.79773 -26.6186 8.27421
      vertex 6.18034 -19.0211 3.35898
      vertex 2.09057 -19.8904 3.35898
    endloop
  endfacet
  facet normal -0.437882 0.602693 0.667099
    outer loop
      vertex 13.3826 -23.1794 8.27421
      vertex 16.9098 -24.5932 11.8668
      vertex 17.9094 -19.8904 8.27421
    endloop
  endfacet
  facet normal -0.437882 0.602693 0.667099
    outer loop
      vertex 16.9098 -24.5932 11.8668
      vertex 13.3826 -23.1794 8.27421
      vertex 15 -25.9808 11.8668
    endloop
  endfacet
  facet normal -0.346733 0.477238 0.807478
    outer loop
      vertex 17.9094 -19.8904 8.27421
      vertex 13.3826 -14.8629 3.35898
      vertex 10 -17.3205 3.35898
    endloop
  endfacet
  facet normal -0 0.589898 0.807478
    outer loop
      vertex -2.09057 -19.8904 3.35898
      vertex 2.79773 -26.6186 8.27421
      vertex 2.09057 -19.8904 3.35898
    endloop
  endfacet
  facet normal 0 0.589898 0.807478
    outer loop
      vertex 2.79773 -26.6186 8.27421
      vertex -2.09057 -19.8904 3.35898
      vertex -2.79773 -26.6186 8.27421
    endloop
  endfacet
  facet normal 0.55362 0.498482 0.667099
    outer loop
      vertex -20.0739 -22.2943 11.8668
      vertex -17.9094 -19.8904 8.27421
      vertex -22.6909 -19.3879 11.8668
    endloop
  endfacet
  facet normal 0.406365 0.0427108 0.912712
    outer loop
      vertex -12.1834 -2.58966 0
      vertex -12.4502 -0.0516657 0
      vertex -19.563 -4.15823 3.35898
    endloop
  endfacet
  facet normal -0.353861 0.204303 0.912712
    outer loop
      vertex 11.3528 -5.11114 0
      vertex 18.2709 -8.13473 3.35898
      vertex 11.3788 -5.06615 0
    endloop
  endfacet
  facet normal -0.353861 0.204302 0.912712
    outer loop
      vertex 18.2709 -8.13473 3.35898
      vertex 11.3528 -5.11114 0
      vertex 16.1803 -11.7557 3.35898
    endloop
  endfacet
  facet normal -0.303652 0.273409 0.912712
    outer loop
      vertex 16.1803 -11.7557 3.35898
      vertex 10.0768 -7.32122 0
      vertex 8.36918 -9.21771 0
    endloop
  endfacet
  facet normal -0.406365 0.0427102 0.912712
    outer loop
      vertex 12.4502 -0.0516657 0
      vertex 20 0 3.35898
      vertex 12.4556 0 0
    endloop
  endfacet
  facet normal -0.406365 0.0427109 0.912712
    outer loop
      vertex 20 0 3.35898
      vertex 12.4502 -0.0516657 0
      vertex 19.563 -4.15823 3.35898
    endloop
  endfacet
  facet normal -0.406365 0.0427108 0.912712
    outer loop
      vertex 19.563 -4.15823 3.35898
      vertex 12.4502 -0.0516657 0
      vertex 12.1834 -2.58966 0
    endloop
  endfacet
  facet normal -0.388605 -0.126265 0.912712
    outer loop
      vertex 18.2709 8.13473 3.35898
      vertex 11.3948 5.01674 0
      vertex 19.563 4.15823 3.35898
    endloop
  endfacet
  facet normal -0.388606 -0.126264 0.912712
    outer loop
      vertex 11.3948 5.01674 0
      vertex 18.2709 8.13473 3.35898
      vertex 11.3788 5.06615 0
    endloop
  endfacet
  facet normal -0.561027 -0.182288 0.807478
    outer loop
      vertex 19.563 4.15823 3.35898
      vertex 26.1803 5.5648 8.27421
      vertex 18.2709 8.13473 3.35898
    endloop
  endfacet
  facet normal -0.122647 -0.577008 0.807478
    outer loop
      vertex 6.18034 19.0211 3.35898
      vertex 2.79773 26.6186 8.27421
      vertex 2.09057 19.8904 3.35898
    endloop
  endfacet
  facet normal 0.240171 -0.330567 0.912712
    outer loop
      vertex -8.33442 9.25631 0
      vertex -6.26983 10.7563 0
      vertex -13.3826 14.8629 3.35898
    endloop
  endfacet
  facet normal 0.388606 -0.126264 0.912712
    outer loop
      vertex -18.2709 8.13473 3.35898
      vertex -11.3948 5.01674 0
      vertex -11.3788 5.06615 0
    endloop
  endfacet
  facet normal 0.388605 -0.126265 0.912712
    outer loop
      vertex -11.3948 5.01674 0
      vertex -18.2709 8.13473 3.35898
      vertex -19.563 4.15823 3.35898
    endloop
  endfacet
  facet normal 0.353861 -0.204302 0.912712
    outer loop
      vertex -18.2709 8.13473 3.35898
      vertex -11.3528 5.11114 0
      vertex -16.1803 11.7557 3.35898
    endloop
  endfacet
  facet normal 0.353861 -0.204303 0.912712
    outer loop
      vertex -11.3528 5.11114 0
      vertex -18.2709 8.13473 3.35898
      vertex -11.3788 5.06615 0
    endloop
  endfacet
  facet normal -0.645163 -0.372484 0.667099
    outer loop
      vertex 27.4064 12.2021 11.8668
      vertex 25.4508 15.5891 11.8668
      vertex 24.4512 10.8864 8.27421
    endloop
  endfacet
  facet normal -0.303006 0.680563 0.667099
    outer loop
      vertex 13.3826 -23.1794 8.27421
      vertex 12.8434 -26.9409 11.8668
      vertex 15 -25.9808 11.8668
    endloop
  endfacet
  facet normal -0.303006 0.680563 0.667099
    outer loop
      vertex 12.8434 -26.9409 11.8668
      vertex 13.3826 -23.1794 8.27421
      vertex 8.27091 -25.4552 8.27421
    endloop
  endfacet
  facet normal -0.43838 0.394719 0.807478
    outer loop
      vertex 17.9094 -19.8904 8.27421
      vertex 16.1803 -11.7557 3.35898
      vertex 13.3826 -14.8629 3.35898
    endloop
  endfacet
  facet normal 0.122647 0.577008 0.807478
    outer loop
      vertex -2.79773 -26.6186 8.27421
      vertex -2.09057 -19.8904 3.35898
      vertex -6.18034 -19.0211 3.35898
    endloop
  endfacet
  facet normal 0.0849552 0.399674 0.912712
    outer loop
      vertex -6.18034 -19.0211 3.35898
      vertex -3.79818 -11.8568 0
      vertex -3.84899 -11.846 0
    endloop
  endfacet
  facet normal 0.0849536 0.399675 0.912712
    outer loop
      vertex -3.79818 -11.8568 0
      vertex -6.18034 -19.0211 3.35898
      vertex -2.09057 -19.8904 3.35898
    endloop
  endfacet
  facet normal -0.154888 0.72869 0.667099
    outer loop
      vertex 2.79773 -26.6186 8.27421
      vertex 3.13585 -29.8357 11.8668
      vertex 5.44495 -29.3448 11.8668
    endloop
  endfacet
  facet normal -0.154888 0.72869 0.667099
    outer loop
      vertex 2.79773 -26.6186 8.27421
      vertex 5.44495 -29.3448 11.8668
      vertex 8.27091 -25.4552 8.27421
    endloop
  endfacet
  facet normal -0.154888 0.72869 0.667099
    outer loop
      vertex 9.27051 -28.5317 11.8668
      vertex 8.27091 -25.4552 8.27421
      vertex 5.44495 -29.3448 11.8668
    endloop
  endfacet
  facet normal -0.240171 0.330567 0.912712
    outer loop
      vertex 13.3826 -14.8629 3.35898
      vertex 8.33442 -9.25631 0
      vertex 6.26983 -10.7563 0
    endloop
  endfacet
  facet normal 0.645162 0.372485 0.667099
    outer loop
      vertex -25.4508 -15.5891 11.8668
      vertex -21.6535 -15.7322 8.27421
      vertex -24.4512 -10.8864 8.27421
    endloop
  endfacet
  facet normal 0.645162 0.372485 0.667099
    outer loop
      vertex -21.6535 -15.7322 8.27421
      vertex -25.4508 -15.5891 11.8668
      vertex -24.2705 -17.6336 11.8668
    endloop
  endfacet
  facet normal 0.353861 0.204302 0.912712
    outer loop
      vertex -10.0768 -7.32122 0
      vertex -11.3528 -5.11114 0
      vertex -16.1803 -11.7557 3.35898
    endloop
  endfacet
  facet normal 0.55362 0.498482 0.667099
    outer loop
      vertex -21.6535 -15.7322 8.27421
      vertex -22.6909 -19.3879 11.8668
      vertex -17.9094 -19.8904 8.27421
    endloop
  endfacet
  facet normal 0.55362 0.498482 0.667099
    outer loop
      vertex -22.6909 -19.3879 11.8668
      vertex -21.6535 -15.7322 8.27421
      vertex -24.2705 -17.6336 11.8668
    endloop
  endfacet
  facet normal 0.303006 0.680563 0.667099
    outer loop
      vertex -13.3826 -23.1794 8.27421
      vertex -12.8434 -26.9409 11.8668
      vertex -8.27091 -25.4552 8.27421
    endloop
  endfacet
  facet normal 0.303006 0.680563 0.667099
    outer loop
      vertex -12.8434 -26.9409 11.8668
      vertex -13.3826 -23.1794 8.27421
      vertex -15 -25.9808 11.8668
    endloop
  endfacet
  facet normal 0.388605 0.126265 0.912712
    outer loop
      vertex -11.3948 -5.01674 0
      vertex -12.1834 -2.58966 0
      vertex -19.563 -4.15823 3.35898
    endloop
  endfacet
  facet normal 0.388605 -0.126265 0.912712
    outer loop
      vertex -12.1834 2.58966 0
      vertex -11.3948 5.01674 0
      vertex -19.563 4.15823 3.35898
    endloop
  endfacet
  facet normal -0.122647 0.577008 0.807478
    outer loop
      vertex 8.27091 -25.4552 8.27421
      vertex 6.18034 -19.0211 3.35898
      vertex 2.79773 -26.6186 8.27421
    endloop
  endfacet
  facet normal -0.0849552 0.399674 0.912712
    outer loop
      vertex 3.79818 -11.8568 0
      vertex 6.18034 -19.0211 3.35898
      vertex 3.84899 -11.846 0
    endloop
  endfacet
  facet normal -0.0849536 0.399675 0.912712
    outer loop
      vertex 6.18034 -19.0211 3.35898
      vertex 3.79818 -11.8568 0
      vertex 2.09057 -19.8904 3.35898
    endloop
  endfacet
  facet normal -0.406365 -0.0427108 0.912712
    outer loop
      vertex 12.4502 0.0516657 0
      vertex 19.563 4.15823 3.35898
      vertex 12.1834 2.58966 0
    endloop
  endfacet
  facet normal -0.353861 -0.204302 0.912712
    outer loop
      vertex 11.3528 5.11114 0
      vertex 18.2709 8.13473 3.35898
      vertex 16.1803 11.7557 3.35898
    endloop
  endfacet
  facet normal -0.353861 -0.204303 0.912712
    outer loop
      vertex 18.2709 8.13473 3.35898
      vertex 11.3528 5.11114 0
      vertex 11.3788 5.06615 0
    endloop
  endfacet
  facet normal -0.510867 -0.294949 0.807478
    outer loop
      vertex 18.2709 8.13473 3.35898
      vertex 24.4512 10.8864 8.27421
      vertex 16.1803 11.7557 3.35898
    endloop
  endfacet
  facet normal 0.239933 0.538899 0.807478
    outer loop
      vertex -8.27091 -25.4552 8.27421
      vertex -10 -17.3205 3.35898
      vertex -13.3826 -23.1794 8.27421
    endloop
  endfacet
  facet normal 0.166194 0.373278 0.912712
    outer loop
      vertex -3.89645 -11.8248 0
      vertex -6.2278 -10.7869 0
      vertex -10 -17.3205 3.35898
    endloop
  endfacet
  facet normal 0.16619 0.373279 0.912712
    outer loop
      vertex -3.89645 -11.8248 0
      vertex -6.18034 -19.0211 3.35898
      vertex -3.84899 -11.846 0
    endloop
  endfacet
  facet normal 0.166194 0.373278 0.912712
    outer loop
      vertex -6.18034 -19.0211 3.35898
      vertex -3.89645 -11.8248 0
      vertex -10 -17.3205 3.35898
    endloop
  endfacet
  facet normal 0.154887 0.72869 0.667099
    outer loop
      vertex -3.13585 -29.8357 11.8668
      vertex -2.79773 -26.6186 8.27421
      vertex -6.96142 -29.0225 11.8668
    endloop
  endfacet
  facet normal -0.55362 0.498482 0.667099
    outer loop
      vertex 21.6535 -15.7322 8.27421
      vertex 22.6909 -19.3879 11.8668
      vertex 24.2705 -17.6336 11.8668
    endloop
  endfacet
  facet normal -0.55362 0.498482 0.667099
    outer loop
      vertex 22.6909 -19.3879 11.8668
      vertex 21.6535 -15.7322 8.27421
      vertex 17.9094 -19.8904 8.27421
    endloop
  endfacet
  facet normal -0.55362 0.498482 0.667099
    outer loop
      vertex 20.0739 -22.2943 11.8668
      vertex 22.6909 -19.3879 11.8668
      vertex 17.9094 -19.8904 8.27421
    endloop
  endfacet
  facet normal -0 0.408604 0.912712
    outer loop
      vertex -1.30196 -12.3874 0
      vertex 2.09057 -19.8904 3.35898
      vertex 1.30196 -12.3874 0
    endloop
  endfacet
  facet normal 0 0.408604 0.912712
    outer loop
      vertex 2.09057 -19.8904 3.35898
      vertex -1.30196 -12.3874 0
      vertex -2.09057 -19.8904 3.35898
    endloop
  endfacet
  facet normal 0.645163 0.372484 0.667099
    outer loop
      vertex -25.4508 -15.5891 11.8668
      vertex -24.4512 -10.8864 8.27421
      vertex -27.4064 -12.2021 11.8668
    endloop
  endfacet
  facet normal 0.708508 0.230208 0.667099
    outer loop
      vertex -28.1359 -9.95696 11.8668
      vertex -24.4512 -10.8864 8.27421
      vertex -26.1803 -5.5648 8.27421
    endloop
  endfacet
  facet normal 0.708508 0.230208 0.667099
    outer loop
      vertex -24.4512 -10.8864 8.27421
      vertex -28.1359 -9.95696 11.8668
      vertex -27.4064 -12.2021 11.8668
    endloop
  endfacet
  facet normal 0.510867 0.294949 0.807478
    outer loop
      vertex -21.6535 -15.7322 8.27421
      vertex -16.1803 -11.7557 3.35898
      vertex -24.4512 -10.8864 8.27421
    endloop
  endfacet
  facet normal 0.510867 0.294949 0.807478
    outer loop
      vertex -16.1803 -11.7557 3.35898
      vertex -18.2709 -8.13473 3.35898
      vertex -24.4512 -10.8864 8.27421
    endloop
  endfacet
  facet normal 0.239933 0.538899 0.807478
    outer loop
      vertex -8.27091 -25.4552 8.27421
      vertex -6.18034 -19.0211 3.35898
      vertex -10 -17.3205 3.35898
    endloop
  endfacet
  facet normal 0.122647 0.577008 0.807478
    outer loop
      vertex -2.79773 -26.6186 8.27421
      vertex -6.18034 -19.0211 3.35898
      vertex -8.27091 -25.4552 8.27421
    endloop
  endfacet
  facet normal 0.437882 0.602693 0.667099
    outer loop
      vertex -13.3826 -23.1794 8.27421
      vertex -16.9098 -24.5932 11.8668
      vertex -15 -25.9808 11.8668
    endloop
  endfacet
  facet normal 0.437882 0.602693 0.667099
    outer loop
      vertex -16.9098 -24.5932 11.8668
      vertex -13.3826 -23.1794 8.27421
      vertex -17.9094 -19.8904 8.27421
    endloop
  endfacet
  facet normal 0.437882 0.602693 0.667099
    outer loop
      vertex -16.9098 -24.5932 11.8668
      vertex -17.9094 -19.8904 8.27421
      vertex -20.0739 -22.2943 11.8668
    endloop
  endfacet
  facet normal 0.406365 -0.0427108 0.912712
    outer loop
      vertex -12.4502 0.0516657 0
      vertex -12.1834 2.58966 0
      vertex -19.563 4.15823 3.35898
    endloop
  endfacet
  facet normal -0.166194 0.373278 0.912712
    outer loop
      vertex 10 -17.3205 3.35898
      vertex 6.2278 -10.7869 0
      vertex 3.89645 -11.8248 0
    endloop
  endfacet
  facet normal -0.0849534 0.399675 0.912712
    outer loop
      vertex 2.09057 -19.8904 3.35898
      vertex 3.79818 -11.8568 0
      vertex 1.30196 -12.3874 0
    endloop
  endfacet
  facet normal -0.240171 -0.330567 0.912712
    outer loop
      vertex 8.29239 9.28685 0
      vertex 10 17.3205 3.35898
      vertex 6.2278 10.7869 0
    endloop
  endfacet
  facet normal 0.0849534 0.399675 0.912712
    outer loop
      vertex -2.09057 -19.8904 3.35898
      vertex -1.30196 -12.3874 0
      vertex -3.79818 -11.8568 0
    endloop
  endfacet
  facet normal -0.346733 0.477238 0.807478
    outer loop
      vertex 13.3826 -23.1794 8.27421
      vertex 17.9094 -19.8904 8.27421
      vertex 10 -17.3205 3.35898
    endloop
  endfacet
  facet normal -0.239933 0.538899 0.807478
    outer loop
      vertex 13.3826 -23.1794 8.27421
      vertex 10 -17.3205 3.35898
      vertex 8.27091 -25.4552 8.27421
    endloop
  endfacet
  facet normal 0.303652 0.273409 0.912712
    outer loop
      vertex -8.36918 -9.21771 0
      vertex -13.3826 -14.8629 3.35898
      vertex -8.33442 -9.25631 0
    endloop
  endfacet
  facet normal 0.303652 0.273409 0.912712
    outer loop
      vertex -13.3826 -14.8629 3.35898
      vertex -8.36918 -9.21771 0
      vertex -16.1803 -11.7557 3.35898
    endloop
  endfacet
  facet normal 0.303652 0.273409 0.912712
    outer loop
      vertex -8.36918 -9.21771 0
      vertex -10.0768 -7.32122 0
      vertex -16.1803 -11.7557 3.35898
    endloop
  endfacet
  facet normal -0.166194 0.373278 0.912712
    outer loop
      vertex 3.89645 -11.8248 0
      vertex 6.18034 -19.0211 3.35898
      vertex 10 -17.3205 3.35898
    endloop
  endfacet
  facet normal -0.16619 0.373279 0.912712
    outer loop
      vertex 6.18034 -19.0211 3.35898
      vertex 3.89645 -11.8248 0
      vertex 3.84899 -11.846 0
    endloop
  endfacet
  facet normal -0.239933 0.538899 0.807478
    outer loop
      vertex 8.27091 -25.4552 8.27421
      vertex 10 -17.3205 3.35898
      vertex 6.18034 -19.0211 3.35898
    endloop
  endfacet
  facet normal 0.240171 0.330567 0.912712
    outer loop
      vertex -6.2278 -10.7869 0
      vertex -8.29239 -9.28685 0
      vertex -10 -17.3205 3.35898
    endloop
  endfacet
endsolid OpenSCAD_Model
