solid OpenSCAD_Model
  facet normal -1 0 0
    outer loop
      vertex -30 -5 1.11022e-15
      vertex -30 -0.899377 25
      vertex -30 -0.899377 1.99702e-16
    endloop
  endfacet
  facet normal -1 -0 0
    outer loop
      vertex -30 -0.899377 25
      vertex -30 -5 1.11022e-15
      vertex -30 -5 25
    endloop
  endfacet
  facet normal 0 -1 0
    outer loop
      vertex -27 -5 1.11022e-15
      vertex -25 -5 25
      vertex -27 -5 25
    endloop
  endfacet
  facet normal 0 -1 -0
    outer loop
      vertex -25 -5 25
      vertex -27 -5 1.11022e-15
      vertex -25 -5 1.11022e-15
    endloop
  endfacet
  facet normal 0 -1 0
    outer loop
      vertex 25 -5 1.11022e-15
      vertex 27 -5 25
      vertex 25 -5 25
    endloop
  endfacet
  facet normal 0 -1 -0
    outer loop
      vertex 27 -5 25
      vertex 25 -5 1.11022e-15
      vertex 27 -5 1.11022e-15
    endloop
  endfacet
  facet normal 1 0 0
    outer loop
      vertex 30 -63 3
      vertex 30 -1.5617 25
      vertex 30 -63 25
    endloop
  endfacet
  facet normal 1 0 0
    outer loop
      vertex 30 -1.5617 25
      vertex 30 -63 3
      vertex 30 -1.5617 3.46767e-16
    endloop
  endfacet
  facet normal 1 0 0
    outer loop
      vertex 30 -76 1.68754e-14
      vertex 30 -63 3
      vertex 30 -76 3
    endloop
  endfacet
  facet normal 1 0 0
    outer loop
      vertex 30 -63 3
      vertex 30 -76 1.68754e-14
      vertex 30 -1.5617 3.46767e-16
    endloop
  endfacet
  facet normal 0 0 1
    outer loop
      vertex 27 5.55112e-15 25
      vertex 25 -5 25
      vertex 27 -5 25
    endloop
  endfacet
  facet normal 0 0 1
    outer loop
      vertex 25 -5 25
      vertex -25 -5 25
      vertex 25 -17 25
    endloop
  endfacet
  facet normal -0 0 1
    outer loop
      vertex -26.0541 5.55112e-15 25
      vertex 25 -5 25
      vertex 27 5.55112e-15 25
    endloop
  endfacet
  facet normal 0 0 1
    outer loop
      vertex 25 -5 25
      vertex -26.0541 5.55112e-15 25
      vertex -25 -5 25
    endloop
  endfacet
  facet normal 0 0 1
    outer loop
      vertex -26.0541 5.55112e-15 25
      vertex -27 -5 25
      vertex -25 -5 25
    endloop
  endfacet
  facet normal 0 0 1
    outer loop
      vertex -30 -5 25
      vertex -27 -5 25
      vertex -30 -0.899377 25
    endloop
  endfacet
  facet normal 0 0 1
    outer loop
      vertex -26.0541 5.55112e-15 25
      vertex -30 -0.899377 25
      vertex -27 -5 25
    endloop
  endfacet
  facet normal 0 0 1
    outer loop
      vertex -62.1411 25.2684 25
      vertex -30 -0.899377 25
      vertex -26.0541 5.55112e-15 25
    endloop
  endfacet
  facet normal 0 0 1
    outer loop
      vertex -30 -0.899377 25
      vertex -62.1411 25.2684 25
      vertex -63.8618 22.8109 25
    endloop
  endfacet
  facet normal 0 0 1
    outer loop
      vertex 63.8618 25.8109 25
      vertex 30 -1.5617 25
      vertex 65.5826 23.3535 25
    endloop
  endfacet
  facet normal -0 0 1
    outer loop
      vertex 27 5.55112e-15 25
      vertex 30 -1.5617 25
      vertex 63.8618 25.8109 25
    endloop
  endfacet
  facet normal 0 0 1
    outer loop
      vertex 27 -5 25
      vertex 30 -1.5617 25
      vertex 27 5.55112e-15 25
    endloop
  endfacet
  facet normal 0 0 1
    outer loop
      vertex 30 -1.5617 25
      vertex 27 -5 25
      vertex 30 -63 25
    endloop
  endfacet
  facet normal -0 0 1
    outer loop
      vertex 27 -60 25
      vertex 30 -63 25
      vertex 27 -5 25
    endloop
  endfacet
  facet normal -0 0 1
    outer loop
      vertex -27 -60 25
      vertex 30 -63 25
      vertex 27 -60 25
    endloop
  endfacet
  facet normal 0 0 1
    outer loop
      vertex -27 -5 25
      vertex -30 -5 25
      vertex -27 -60 25
    endloop
  endfacet
  facet normal 0 0 1
    outer loop
      vertex -30 -60 25
      vertex -27 -60 25
      vertex -30 -5 25
    endloop
  endfacet
  facet normal 0 0 1
    outer loop
      vertex -30 -63 25
      vertex -27 -60 25
      vertex -30 -60 25
    endloop
  endfacet
  facet normal 0 0 1
    outer loop
      vertex -27 -60 25
      vertex -30 -63 25
      vertex 30 -63 25
    endloop
  endfacet
  facet normal 0 0 1
    outer loop
      vertex 25 -17 25
      vertex -25 -5 25
      vertex -25 -17 25
    endloop
  endfacet
  facet normal 0 1 -2.22045e-16
    outer loop
      vertex 10.5279 4.46497e-15 20.1085
      vertex -12.1638 4.54218e-15 20.4562
      vertex 12.1638 4.54218e-15 20.4562
    endloop
  endfacet
  facet normal 0 1 -2.22045e-16
    outer loop
      vertex 10.5279 4.46497e-15 20.1085
      vertex -10.5279 4.46497e-15 20.1085
      vertex -12.1638 4.54218e-15 20.4562
    endloop
  endfacet
  facet normal 0 1 -2.22045e-16
    outer loop
      vertex 9 4.31393e-15 19.4282
      vertex -10.5279 4.46497e-15 20.1085
      vertex 10.5279 4.46497e-15 20.1085
    endloop
  endfacet
  facet normal 0 1 -2.22045e-16
    outer loop
      vertex 9 4.31393e-15 19.4282
      vertex -9 4.31393e-15 19.4282
      vertex -10.5279 4.46497e-15 20.1085
    endloop
  endfacet
  facet normal 0 1 -2.22045e-16
    outer loop
      vertex 7.64695 4.09565e-15 18.4452
      vertex -9 4.31393e-15 19.4282
      vertex 9 4.31393e-15 19.4282
    endloop
  endfacet
  facet normal 0 1 -2.22045e-16
    outer loop
      vertex 7.64695 4.09565e-15 18.4452
      vertex -7.64696 4.09565e-15 18.4452
      vertex -9 4.31393e-15 19.4282
    endloop
  endfacet
  facet normal 0 1 -2.22045e-16
    outer loop
      vertex 6.52786 3.81967e-15 17.2023
      vertex -7.64696 4.09565e-15 18.4452
      vertex 7.64695 4.09565e-15 18.4452
    endloop
  endfacet
  facet normal 0 1 -2.22045e-16
    outer loop
      vertex 6.52786 3.81967e-15 17.2023
      vertex -6.52786 3.81967e-15 17.2023
      vertex -7.64696 4.09565e-15 18.4452
    endloop
  endfacet
  facet normal 0 1 -2.22045e-16
    outer loop
      vertex 5.69164 3.49807e-15 15.7539
      vertex -6.52786 3.81967e-15 17.2023
      vertex 6.52786 3.81967e-15 17.2023
    endloop
  endfacet
  facet normal 0 1 -2.22045e-16
    outer loop
      vertex 5.69164 3.49807e-15 15.7539
      vertex -5.69164 3.49807e-15 15.7539
      vertex -6.52786 3.81967e-15 17.2023
    endloop
  endfacet
  facet normal 0 1 -2.22045e-16
    outer loop
      vertex 5.17482 3.14488e-15 14.1633
      vertex -5.69164 3.49807e-15 15.7539
      vertex 5.69164 3.49807e-15 15.7539
    endloop
  endfacet
  facet normal 0 1 -2.22045e-16
    outer loop
      vertex 5.17482 3.14488e-15 14.1633
      vertex -5.17482 3.14488e-15 14.1633
      vertex -5.69164 3.49807e-15 15.7539
    endloop
  endfacet
  facet normal 0 1 -2.22045e-16
    outer loop
      vertex 5 2.77556e-15 12.5
      vertex -5.17482 3.14488e-15 14.1633
      vertex 5.17482 3.14488e-15 14.1633
    endloop
  endfacet
  facet normal 0 1 -2.22045e-16
    outer loop
      vertex 5 2.77556e-15 12.5
      vertex -5 2.77556e-15 12.5
      vertex -5.17482 3.14488e-15 14.1633
    endloop
  endfacet
  facet normal 0 1 -2.22045e-16
    outer loop
      vertex 5.17482 2.40623e-15 10.8367
      vertex -5 2.77556e-15 12.5
      vertex 5 2.77556e-15 12.5
    endloop
  endfacet
  facet normal 0 1 -2.22045e-16
    outer loop
      vertex 5.17482 2.40623e-15 10.8367
      vertex -5.17482 2.40623e-15 10.8367
      vertex -5 2.77556e-15 12.5
    endloop
  endfacet
  facet normal 0 1 -2.22045e-16
    outer loop
      vertex 5.69164 2.05305e-15 9.24611
      vertex -5.17482 2.40623e-15 10.8367
      vertex 5.17482 2.40623e-15 10.8367
    endloop
  endfacet
  facet normal 0 1 -2.22045e-16
    outer loop
      vertex 5.69164 2.05305e-15 9.24611
      vertex -5.69164 2.05305e-15 9.24611
      vertex -5.17482 2.40623e-15 10.8367
    endloop
  endfacet
  facet normal 0 1 -2.22045e-16
    outer loop
      vertex 6.52786 1.73144e-15 7.79772
      vertex -5.69164 2.05305e-15 9.24611
      vertex 5.69164 2.05305e-15 9.24611
    endloop
  endfacet
  facet normal 0 1 -2.22045e-16
    outer loop
      vertex 6.52786 1.73144e-15 7.79772
      vertex -6.52786 1.73144e-15 7.79772
      vertex -5.69164 2.05305e-15 9.24611
    endloop
  endfacet
  facet normal 0 1 -2.22045e-16
    outer loop
      vertex 7.64695 1.45547e-15 6.55484
      vertex -6.52786 1.73144e-15 7.79772
      vertex 6.52786 1.73144e-15 7.79772
    endloop
  endfacet
  facet normal 0 1 -2.22045e-16
    outer loop
      vertex 7.64695 1.45547e-15 6.55484
      vertex -7.64696 1.45547e-15 6.55484
      vertex -6.52786 1.73144e-15 7.79772
    endloop
  endfacet
  facet normal 0 1 -2.22045e-16
    outer loop
      vertex 9 1.23719e-15 5.5718
      vertex -7.64696 1.45547e-15 6.55484
      vertex 7.64695 1.45547e-15 6.55484
    endloop
  endfacet
  facet normal 0 1 -2.22045e-16
    outer loop
      vertex 9 1.23719e-15 5.5718
      vertex -9 1.23719e-15 5.5718
      vertex -7.64696 1.45547e-15 6.55484
    endloop
  endfacet
  facet normal 0 1 -2.22045e-16
    outer loop
      vertex 10.5279 1.08614e-15 4.89155
      vertex -9 1.23719e-15 5.5718
      vertex 9 1.23719e-15 5.5718
    endloop
  endfacet
  facet normal 0 1 -2.22045e-16
    outer loop
      vertex 10.5279 1.08614e-15 4.89155
      vertex -10.5279 1.08614e-15 4.89155
      vertex -9 1.23719e-15 5.5718
    endloop
  endfacet
  facet normal 0 1 -2.22045e-16
    outer loop
      vertex 12.1638 1.00893e-15 4.54382
      vertex -10.5279 1.08614e-15 4.89155
      vertex 10.5279 1.08614e-15 4.89155
    endloop
  endfacet
  facet normal 0 1 -2.22045e-16
    outer loop
      vertex -10.5279 1.08614e-15 4.89155
      vertex 12.1638 1.00893e-15 4.54382
      vertex -12.1638 1.00893e-15 4.54382
    endloop
  endfacet
  facet normal 0 1 -2.22045e-16
    outer loop
      vertex 12.1638 4.54218e-15 20.4562
      vertex 27 5.55112e-15 25
      vertex 13.8362 4.54218e-15 20.4562
    endloop
  endfacet
  facet normal 0 1 -2.22045e-16
    outer loop
      vertex 27 5.55112e-15 25
      vertex 15.4721 4.46497e-15 20.1085
      vertex 13.8362 4.54218e-15 20.4562
    endloop
  endfacet
  facet normal 0 1 -2.22045e-16
    outer loop
      vertex 27 5.55112e-15 25
      vertex 17 4.31393e-15 19.4282
      vertex 15.4721 4.46497e-15 20.1085
    endloop
  endfacet
  facet normal 0 1 -2.22045e-16
    outer loop
      vertex 27 5.55112e-15 25
      vertex 18.353 4.09565e-15 18.4452
      vertex 17 4.31393e-15 19.4282
    endloop
  endfacet
  facet normal 0 1 -2.22045e-16
    outer loop
      vertex 27 5.55112e-15 25
      vertex 19.4721 3.81967e-15 17.2023
      vertex 18.353 4.09565e-15 18.4452
    endloop
  endfacet
  facet normal 0 1 -2.22045e-16
    outer loop
      vertex 27 5.55112e-15 25
      vertex 20.3084 3.49807e-15 15.7539
      vertex 19.4721 3.81967e-15 17.2023
    endloop
  endfacet
  facet normal 0 1 -2.22045e-16
    outer loop
      vertex 27 5.55112e-15 25
      vertex 20.8252 3.14488e-15 14.1633
      vertex 20.3084 3.49807e-15 15.7539
    endloop
  endfacet
  facet normal 0 1 -2.22045e-16
    outer loop
      vertex 27 5.55112e-15 25
      vertex 21 2.77556e-15 12.5
      vertex 20.8252 3.14488e-15 14.1633
    endloop
  endfacet
  facet normal 0 1 -2.22045e-16
    outer loop
      vertex 27 0 0
      vertex 21 2.77556e-15 12.5
      vertex 27 5.55112e-15 25
    endloop
  endfacet
  facet normal 0 1 -2.22045e-16
    outer loop
      vertex 21 2.77556e-15 12.5
      vertex 27 0 0
      vertex 20.8252 2.40623e-15 10.8367
    endloop
  endfacet
  facet normal 0 1 -2.22045e-16
    outer loop
      vertex 27 0 0
      vertex 12.1638 1.00893e-15 4.54382
      vertex 13.8362 1.00893e-15 4.54382
    endloop
  endfacet
  facet normal 0 1 -2.22045e-16
    outer loop
      vertex -26.0541 0 0
      vertex 12.1638 1.00893e-15 4.54382
      vertex 27 0 0
    endloop
  endfacet
  facet normal 0 1 -2.22045e-16
    outer loop
      vertex 12.1638 1.00893e-15 4.54382
      vertex -26.0541 0 0
      vertex -12.1638 1.00893e-15 4.54382
    endloop
  endfacet
  facet normal 0 1 -2.22045e-16
    outer loop
      vertex 15.4721 1.08614e-15 4.89155
      vertex 27 0 0
      vertex 13.8362 1.00893e-15 4.54382
    endloop
  endfacet
  facet normal 0 1 -2.22045e-16
    outer loop
      vertex 17 1.23719e-15 5.5718
      vertex 27 0 0
      vertex 15.4721 1.08614e-15 4.89155
    endloop
  endfacet
  facet normal 0 1 -2.22045e-16
    outer loop
      vertex 18.353 1.45547e-15 6.55484
      vertex 27 0 0
      vertex 17 1.23719e-15 5.5718
    endloop
  endfacet
  facet normal 0 1 -2.22045e-16
    outer loop
      vertex 19.4721 1.73144e-15 7.79772
      vertex 27 0 0
      vertex 18.353 1.45547e-15 6.55484
    endloop
  endfacet
  facet normal 0 1 -2.22045e-16
    outer loop
      vertex 20.3084 2.05305e-15 9.24611
      vertex 27 0 0
      vertex 19.4721 1.73144e-15 7.79772
    endloop
  endfacet
  facet normal 0 1 -2.22045e-16
    outer loop
      vertex 20.8252 2.40623e-15 10.8367
      vertex 27 0 0
      vertex 20.3084 2.05305e-15 9.24611
    endloop
  endfacet
  facet normal 0 1 -2.22045e-16
    outer loop
      vertex 27 5.55112e-15 25
      vertex 12.1638 4.54218e-15 20.4562
      vertex -26.0541 5.55112e-15 25
    endloop
  endfacet
  facet normal 0 1 -2.22045e-16
    outer loop
      vertex -12.1638 4.54218e-15 20.4562
      vertex -26.0541 5.55112e-15 25
      vertex 12.1638 4.54218e-15 20.4562
    endloop
  endfacet
  facet normal 0 1 -2.22045e-16
    outer loop
      vertex -13.8362 4.54218e-15 20.4562
      vertex -26.0541 5.55112e-15 25
      vertex -12.1638 4.54218e-15 20.4562
    endloop
  endfacet
  facet normal 0 1 -2.22045e-16
    outer loop
      vertex -15.4721 4.46497e-15 20.1085
      vertex -26.0541 5.55112e-15 25
      vertex -13.8362 4.54218e-15 20.4562
    endloop
  endfacet
  facet normal 0 1 -2.22045e-16
    outer loop
      vertex -17 4.31393e-15 19.4282
      vertex -26.0541 5.55112e-15 25
      vertex -15.4721 4.46497e-15 20.1085
    endloop
  endfacet
  facet normal 0 1 -2.22045e-16
    outer loop
      vertex -18.353 4.09565e-15 18.4452
      vertex -26.0541 5.55112e-15 25
      vertex -17 4.31393e-15 19.4282
    endloop
  endfacet
  facet normal 0 1 -2.22045e-16
    outer loop
      vertex -19.4721 3.81967e-15 17.2023
      vertex -26.0541 5.55112e-15 25
      vertex -18.353 4.09565e-15 18.4452
    endloop
  endfacet
  facet normal 0 1 -2.22045e-16
    outer loop
      vertex -20.3084 3.49807e-15 15.7539
      vertex -26.0541 5.55112e-15 25
      vertex -19.4721 3.81967e-15 17.2023
    endloop
  endfacet
  facet normal 0 1 -2.22045e-16
    outer loop
      vertex -20.8252 3.14488e-15 14.1633
      vertex -26.0541 5.55112e-15 25
      vertex -20.3084 3.49807e-15 15.7539
    endloop
  endfacet
  facet normal 0 1 -2.22045e-16
    outer loop
      vertex -21 2.77556e-15 12.5
      vertex -26.0541 5.55112e-15 25
      vertex -20.8252 3.14488e-15 14.1633
    endloop
  endfacet
  facet normal 0 1 -2.22045e-16
    outer loop
      vertex -26.0541 0 0
      vertex -21 2.77556e-15 12.5
      vertex -20.8252 2.40623e-15 10.8367
    endloop
  endfacet
  facet normal 0 1 -2.22045e-16
    outer loop
      vertex -26.0541 0 0
      vertex -20.8252 2.40623e-15 10.8367
      vertex -20.3084 2.05305e-15 9.24611
    endloop
  endfacet
  facet normal 0 1 -2.22045e-16
    outer loop
      vertex -21 2.77556e-15 12.5
      vertex -26.0541 0 0
      vertex -26.0541 5.55112e-15 25
    endloop
  endfacet
  facet normal 0 1 -2.22045e-16
    outer loop
      vertex -19.4721 1.73144e-15 7.79772
      vertex -26.0541 0 0
      vertex -20.3084 2.05305e-15 9.24611
    endloop
  endfacet
  facet normal 0 1 -2.22045e-16
    outer loop
      vertex -18.353 1.45547e-15 6.55484
      vertex -26.0541 0 0
      vertex -19.4721 1.73144e-15 7.79772
    endloop
  endfacet
  facet normal 0 1 -2.22045e-16
    outer loop
      vertex -17 1.23719e-15 5.5718
      vertex -26.0541 0 0
      vertex -18.353 1.45547e-15 6.55484
    endloop
  endfacet
  facet normal 0 1 -2.22045e-16
    outer loop
      vertex -15.4721 1.08614e-15 4.89155
      vertex -26.0541 0 0
      vertex -17 1.23719e-15 5.5718
    endloop
  endfacet
  facet normal 0 1 -2.22045e-16
    outer loop
      vertex -13.8362 1.00893e-15 4.54382
      vertex -26.0541 0 0
      vertex -15.4721 1.08614e-15 4.89155
    endloop
  endfacet
  facet normal 0 1 -2.22045e-16
    outer loop
      vertex -12.1638 1.00893e-15 4.54382
      vertex -26.0541 0 0
      vertex -13.8362 1.00893e-15 4.54382
    endloop
  endfacet
  facet normal -0 -2.22045e-16 -1
    outer loop
      vertex -4.5 -17 3.77476e-15
      vertex -25 -17 3.77476e-15
      vertex -4.5 -12 2.66454e-15
    endloop
  endfacet
  facet normal 0 -2.22045e-16 -1
    outer loop
      vertex 4.5 -12 2.66454e-15
      vertex 25 -17 3.77476e-15
      vertex 4.5 -17 3.77476e-15
    endloop
  endfacet
  facet normal 0 -2.22045e-16 -1
    outer loop
      vertex 30 -76 1.68754e-14
      vertex 27 -60 1.33227e-14
      vertex 30 -1.5617 3.46767e-16
    endloop
  endfacet
  facet normal 0 -2.22045e-16 -1
    outer loop
      vertex 30 -76 1.68754e-14
      vertex -27 -60 1.33227e-14
      vertex 27 -60 1.33227e-14
    endloop
  endfacet
  facet normal 0 -2.22045e-16 -1
    outer loop
      vertex -30 -60 1.33227e-14
      vertex -27 -60 1.33227e-14
      vertex -30 -76 1.68754e-14
    endloop
  endfacet
  facet normal 0 -2.22045e-16 -1
    outer loop
      vertex -30 -76 1.68754e-14
      vertex -27 -60 1.33227e-14
      vertex 30 -76 1.68754e-14
    endloop
  endfacet
  facet normal 0 -2.22045e-16 -1
    outer loop
      vertex 30 -1.5617 3.46767e-16
      vertex 63.8618 25.8109 -5.73118e-15
      vertex 65.5826 23.3535 -5.18551e-15
    endloop
  endfacet
  facet normal 0 -2.22045e-16 -1
    outer loop
      vertex 27 -5 1.11022e-15
      vertex 30 -1.5617 3.46767e-16
      vertex 27 -60 1.33227e-14
    endloop
  endfacet
  facet normal 0 -2.22045e-16 -1
    outer loop
      vertex 30 -1.5617 3.46767e-16
      vertex 27 0 0
      vertex 63.8618 25.8109 -5.73118e-15
    endloop
  endfacet
  facet normal 0 -2.22045e-16 -1
    outer loop
      vertex 27 -5 1.11022e-15
      vertex 27 0 0
      vertex 30 -1.5617 3.46767e-16
    endloop
  endfacet
  facet normal 0 -2.22045e-16 -1
    outer loop
      vertex 25 -5 1.11022e-15
      vertex 27 0 0
      vertex 27 -5 1.11022e-15
    endloop
  endfacet
  facet normal 0 -2.22045e-16 -1
    outer loop
      vertex 25 -17 3.77476e-15
      vertex 4.5 -12 2.66454e-15
      vertex 25 -5 1.11022e-15
    endloop
  endfacet
  facet normal 0 -2.22045e-16 -1
    outer loop
      vertex 25 -5 1.11022e-15
      vertex 4.5 -12 2.66454e-15
      vertex 27 0 0
    endloop
  endfacet
  facet normal 0 -2.22045e-16 -1
    outer loop
      vertex -26.0541 0 0
      vertex 4.5 -12 2.66454e-15
      vertex -4.5 -12 2.66454e-15
    endloop
  endfacet
  facet normal 0 -2.22045e-16 -1
    outer loop
      vertex -25 -5 1.11022e-15
      vertex -4.5 -12 2.66454e-15
      vertex -25 -17 3.77476e-15
    endloop
  endfacet
  facet normal 0 -2.22045e-16 -1
    outer loop
      vertex -26.0541 0 0
      vertex -4.5 -12 2.66454e-15
      vertex -25 -5 1.11022e-15
    endloop
  endfacet
  facet normal 0 -2.22045e-16 -1
    outer loop
      vertex 4.5 -12 2.66454e-15
      vertex -26.0541 0 0
      vertex 27 0 0
    endloop
  endfacet
  facet normal 0 -2.22045e-16 -1
    outer loop
      vertex -27 -5 1.11022e-15
      vertex -26.0541 0 0
      vertex -25 -5 1.11022e-15
    endloop
  endfacet
  facet normal -0 -2.22045e-16 -1
    outer loop
      vertex -27 -60 1.33227e-14
      vertex -30 -60 1.33227e-14
      vertex -27 -5 1.11022e-15
    endloop
  endfacet
  facet normal 0 -2.22045e-16 -1
    outer loop
      vertex -30 -5 1.11022e-15
      vertex -27 -5 1.11022e-15
      vertex -30 -60 1.33227e-14
    endloop
  endfacet
  facet normal 0 -2.22045e-16 -1
    outer loop
      vertex -30 -0.899377 1.99702e-16
      vertex -27 -5 1.11022e-15
      vertex -30 -5 1.11022e-15
    endloop
  endfacet
  facet normal 0 -2.22045e-16 -1
    outer loop
      vertex -27 -5 1.11022e-15
      vertex -30 -0.899377 1.99702e-16
      vertex -26.0541 0 0
    endloop
  endfacet
  facet normal 0 -2.22045e-16 -1
    outer loop
      vertex -30 -0.899377 1.99702e-16
      vertex -62.1411 25.2684 -5.61071e-15
      vertex -26.0541 0 0
    endloop
  endfacet
  facet normal 0 -2.22045e-16 -1
    outer loop
      vertex -62.1411 25.2684 -5.61071e-15
      vertex -30 -0.899377 1.99702e-16
      vertex -63.8618 22.8109 -5.06505e-15
    endloop
  endfacet
  facet normal -1 0 0
    outer loop
      vertex -25 -17 3.77476e-15
      vertex -25 -5 25
      vertex -25 -5 1.11022e-15
    endloop
  endfacet
  facet normal -1 -0 0
    outer loop
      vertex -25 -5 25
      vertex -25 -17 3.77476e-15
      vertex -25 -17 25
    endloop
  endfacet
  facet normal 0 -1 0
    outer loop
      vertex 4.5 -17 3
      vertex 8.5 -17 2
      vertex 8.5 -17 3
    endloop
  endfacet
  facet normal 0 -1 0
    outer loop
      vertex 25 -17 3.77476e-15
      vertex 8.5 -17 2
      vertex 4.5 -17 3.77476e-15
    endloop
  endfacet
  facet normal 0 -1 0
    outer loop
      vertex 4.5 -17 3.77476e-15
      vertex 8.5 -17 2
      vertex 4.5 -17 3
    endloop
  endfacet
  facet normal 0 -1 0
    outer loop
      vertex -8.5 -17 22
      vertex 8.5 -17 23
      vertex -8.5 -17 23
    endloop
  endfacet
  facet normal 0 -1 -0
    outer loop
      vertex 8.5 -17 23
      vertex -8.5 -17 22
      vertex 8.5 -17 22
    endloop
  endfacet
  facet normal 0 -1 0
    outer loop
      vertex -8.5 -17 23
      vertex -25 -17 25
      vertex -23.5 -17 23
    endloop
  endfacet
  facet normal 0 -1 0
    outer loop
      vertex -25 -17 25
      vertex -23.5 -17 2
      vertex -23.5 -17 23
    endloop
  endfacet
  facet normal 0 -1 -0
    outer loop
      vertex -23.5 -17 2
      vertex -25 -17 3.77476e-15
      vertex -8.5 -17 2
    endloop
  endfacet
  facet normal 0 -1 0
    outer loop
      vertex -25 -17 3.77476e-15
      vertex -23.5 -17 2
      vertex -25 -17 25
    endloop
  endfacet
  facet normal 0 -1 0
    outer loop
      vertex -25 -17 25
      vertex -8.5 -17 23
      vertex 25 -17 25
    endloop
  endfacet
  facet normal 0 -1 0
    outer loop
      vertex 8.5 -17 23
      vertex 25 -17 25
      vertex -8.5 -17 23
    endloop
  endfacet
  facet normal 0 -1 0
    outer loop
      vertex 23.5 -17 23
      vertex 25 -17 25
      vertex 8.5 -17 23
    endloop
  endfacet
  facet normal 0 -1 0
    outer loop
      vertex 23.5 -17 2
      vertex 25 -17 25
      vertex 23.5 -17 23
    endloop
  endfacet
  facet normal 0 -1 0
    outer loop
      vertex 23.5 -17 2
      vertex 25 -17 3.77476e-15
      vertex 25 -17 25
    endloop
  endfacet
  facet normal 0 -1 0
    outer loop
      vertex 8.5 -17 2
      vertex 25 -17 3.77476e-15
      vertex 23.5 -17 2
    endloop
  endfacet
  facet normal 0 -1 0
    outer loop
      vertex -8.5 -17 2
      vertex -4.5 -17 3
      vertex -8.5 -17 3
    endloop
  endfacet
  facet normal 0 -1 0
    outer loop
      vertex -8.5 -17 2
      vertex -4.5 -17 3.77476e-15
      vertex -4.5 -17 3
    endloop
  endfacet
  facet normal 0 -1 0
    outer loop
      vertex -4.5 -17 3.77476e-15
      vertex -8.5 -17 2
      vertex -25 -17 3.77476e-15
    endloop
  endfacet
  facet normal 1 -0 0
    outer loop
      vertex 25 -17 25
      vertex 25 -5 1.11022e-15
      vertex 25 -5 25
    endloop
  endfacet
  facet normal 1 0 0
    outer loop
      vertex 25 -5 1.11022e-15
      vertex 25 -17 25
      vertex 25 -17 3.77476e-15
    endloop
  endfacet
  facet normal 1 -0 0
    outer loop
      vertex -22.5 -12 22
      vertex -22.5 -3 3
      vertex -22.5 -3 22
    endloop
  endfacet
  facet normal 1 0 0
    outer loop
      vertex -22.5 -3 3
      vertex -22.5 -12 22
      vertex -22.5 -12 3
    endloop
  endfacet
  facet normal -1 0 0
    outer loop
      vertex 22.5 -12 3
      vertex 22.5 -3 22
      vertex 22.5 -3 3
    endloop
  endfacet
  facet normal -1 -0 0
    outer loop
      vertex 22.5 -3 22
      vertex 22.5 -12 3
      vertex 22.5 -12 22
    endloop
  endfacet
  facet normal 0 0 -1
    outer loop
      vertex -22.5 -12 22
      vertex 22.5 -3 22
      vertex 22.5 -12 22
    endloop
  endfacet
  facet normal -0 0 -1
    outer loop
      vertex 22.5 -3 22
      vertex -22.5 -12 22
      vertex -22.5 -3 22
    endloop
  endfacet
  facet normal 0 0 -1
    outer loop
      vertex -8.5 -17 22
      vertex 8.5 -15 22
      vertex 8.5 -17 22
    endloop
  endfacet
  facet normal -0 0 -1
    outer loop
      vertex 8.5 -15 22
      vertex -8.5 -17 22
      vertex -8.5 -15 22
    endloop
  endfacet
  facet normal 0 -1 0
    outer loop
      vertex -10.5279 -3 20.1085
      vertex 12.1638 -3 20.4562
      vertex -12.1638 -3 20.4562
    endloop
  endfacet
  facet normal 0 -1 0
    outer loop
      vertex -10.5279 -3 20.1085
      vertex 10.5279 -3 20.1085
      vertex 12.1638 -3 20.4562
    endloop
  endfacet
  facet normal 0 -1 0
    outer loop
      vertex -9 -3 19.4282
      vertex 10.5279 -3 20.1085
      vertex -10.5279 -3 20.1085
    endloop
  endfacet
  facet normal 0 -1 0
    outer loop
      vertex -9 -3 19.4282
      vertex 9 -3 19.4282
      vertex 10.5279 -3 20.1085
    endloop
  endfacet
  facet normal 0 -1 0
    outer loop
      vertex -7.64696 -3 18.4452
      vertex 9 -3 19.4282
      vertex -9 -3 19.4282
    endloop
  endfacet
  facet normal 0 -1 0
    outer loop
      vertex -7.64696 -3 18.4452
      vertex 7.64695 -3 18.4452
      vertex 9 -3 19.4282
    endloop
  endfacet
  facet normal 0 -1 0
    outer loop
      vertex -6.52786 -3 17.2023
      vertex 7.64695 -3 18.4452
      vertex -7.64696 -3 18.4452
    endloop
  endfacet
  facet normal 0 -1 0
    outer loop
      vertex -6.52786 -3 17.2023
      vertex 6.52786 -3 17.2023
      vertex 7.64695 -3 18.4452
    endloop
  endfacet
  facet normal 0 -1 0
    outer loop
      vertex -5.69164 -3 15.7539
      vertex 6.52786 -3 17.2023
      vertex -6.52786 -3 17.2023
    endloop
  endfacet
  facet normal 0 -1 0
    outer loop
      vertex -5.69164 -3 15.7539
      vertex 5.69164 -3 15.7539
      vertex 6.52786 -3 17.2023
    endloop
  endfacet
  facet normal 0 -1 0
    outer loop
      vertex -5.17482 -3 14.1633
      vertex 5.69164 -3 15.7539
      vertex -5.69164 -3 15.7539
    endloop
  endfacet
  facet normal 0 -1 0
    outer loop
      vertex -5.17482 -3 14.1633
      vertex 5.17482 -3 14.1633
      vertex 5.69164 -3 15.7539
    endloop
  endfacet
  facet normal 0 -1 0
    outer loop
      vertex -5 -3 12.5
      vertex 5.17482 -3 14.1633
      vertex -5.17482 -3 14.1633
    endloop
  endfacet
  facet normal 0 -1 0
    outer loop
      vertex -5 -3 12.5
      vertex 5 -3 12.5
      vertex 5.17482 -3 14.1633
    endloop
  endfacet
  facet normal 0 -1 0
    outer loop
      vertex -5.17482 -3 10.8367
      vertex 5 -3 12.5
      vertex -5 -3 12.5
    endloop
  endfacet
  facet normal 0 -1 0
    outer loop
      vertex -5.17482 -3 10.8367
      vertex 5.17482 -3 10.8367
      vertex 5 -3 12.5
    endloop
  endfacet
  facet normal 0 -1 0
    outer loop
      vertex -5.69164 -3 9.24611
      vertex 5.17482 -3 10.8367
      vertex -5.17482 -3 10.8367
    endloop
  endfacet
  facet normal 0 -1 0
    outer loop
      vertex -5.69164 -3 9.24611
      vertex 5.69164 -3 9.24611
      vertex 5.17482 -3 10.8367
    endloop
  endfacet
  facet normal 0 -1 0
    outer loop
      vertex -6.52786 -3 7.79772
      vertex 5.69164 -3 9.24611
      vertex -5.69164 -3 9.24611
    endloop
  endfacet
  facet normal 0 -1 0
    outer loop
      vertex -6.52786 -3 7.79772
      vertex 6.52786 -3 7.79772
      vertex 5.69164 -3 9.24611
    endloop
  endfacet
  facet normal 0 -1 0
    outer loop
      vertex -7.64696 -3 6.55484
      vertex 6.52786 -3 7.79772
      vertex -6.52786 -3 7.79772
    endloop
  endfacet
  facet normal 0 -1 0
    outer loop
      vertex -7.64696 -3 6.55484
      vertex 7.64695 -3 6.55484
      vertex 6.52786 -3 7.79772
    endloop
  endfacet
  facet normal 0 -1 0
    outer loop
      vertex -9 -3 5.5718
      vertex 7.64695 -3 6.55484
      vertex -7.64696 -3 6.55484
    endloop
  endfacet
  facet normal 0 -1 0
    outer loop
      vertex -9 -3 5.5718
      vertex 9 -3 5.5718
      vertex 7.64695 -3 6.55484
    endloop
  endfacet
  facet normal 0 -1 0
    outer loop
      vertex -10.5279 -3 4.89155
      vertex 9 -3 5.5718
      vertex -9 -3 5.5718
    endloop
  endfacet
  facet normal 0 -1 0
    outer loop
      vertex -10.5279 -3 4.89155
      vertex 10.5279 -3 4.89155
      vertex 9 -3 5.5718
    endloop
  endfacet
  facet normal 0 -1 0
    outer loop
      vertex -12.1638 -3 4.54382
      vertex 10.5279 -3 4.89155
      vertex -10.5279 -3 4.89155
    endloop
  endfacet
  facet normal 0 -1 -0
    outer loop
      vertex 10.5279 -3 4.89155
      vertex -12.1638 -3 4.54382
      vertex 12.1638 -3 4.54382
    endloop
  endfacet
  facet normal 0 -1 0
    outer loop
      vertex -12.1638 -3 20.4562
      vertex -22.5 -3 22
      vertex -13.8362 -3 20.4562
    endloop
  endfacet
  facet normal 0 -1 0
    outer loop
      vertex -22.5 -3 22
      vertex -15.4721 -3 20.1085
      vertex -13.8362 -3 20.4562
    endloop
  endfacet
  facet normal 0 -1 0
    outer loop
      vertex -22.5 -3 22
      vertex -17 -3 19.4282
      vertex -15.4721 -3 20.1085
    endloop
  endfacet
  facet normal 0 -1 0
    outer loop
      vertex -22.5 -3 22
      vertex -18.353 -3 18.4452
      vertex -17 -3 19.4282
    endloop
  endfacet
  facet normal 0 -1 0
    outer loop
      vertex -22.5 -3 22
      vertex -19.4721 -3 17.2023
      vertex -18.353 -3 18.4452
    endloop
  endfacet
  facet normal 0 -1 0
    outer loop
      vertex -22.5 -3 22
      vertex -20.3084 -3 15.7539
      vertex -19.4721 -3 17.2023
    endloop
  endfacet
  facet normal 0 -1 0
    outer loop
      vertex -22.5 -3 22
      vertex -20.8252 -3 14.1633
      vertex -20.3084 -3 15.7539
    endloop
  endfacet
  facet normal 0 -1 0
    outer loop
      vertex -22.5 -3 22
      vertex -21 -3 12.5
      vertex -20.8252 -3 14.1633
    endloop
  endfacet
  facet normal 0 -1 0
    outer loop
      vertex -22.5 -3 3
      vertex -21 -3 12.5
      vertex -22.5 -3 22
    endloop
  endfacet
  facet normal 0 -1 0
    outer loop
      vertex -22.5 -3 3
      vertex -12.1638 -3 4.54382
      vertex -13.8362 -3 4.54382
    endloop
  endfacet
  facet normal 0 -1 -0
    outer loop
      vertex -12.1638 -3 4.54382
      vertex -22.5 -3 3
      vertex 12.1638 -3 4.54382
    endloop
  endfacet
  facet normal 0 -1 0
    outer loop
      vertex 22.5 -3 3
      vertex 12.1638 -3 4.54382
      vertex -22.5 -3 3
    endloop
  endfacet
  facet normal 0 -1 -0
    outer loop
      vertex -15.4721 -3 4.89155
      vertex -22.5 -3 3
      vertex -13.8362 -3 4.54382
    endloop
  endfacet
  facet normal 0 -1 -0
    outer loop
      vertex -17 -3 5.5718
      vertex -22.5 -3 3
      vertex -15.4721 -3 4.89155
    endloop
  endfacet
  facet normal 0 -1 -0
    outer loop
      vertex -18.353 -3 6.55484
      vertex -22.5 -3 3
      vertex -17 -3 5.5718
    endloop
  endfacet
  facet normal 0 -1 -0
    outer loop
      vertex -19.4721 -3 7.79772
      vertex -22.5 -3 3
      vertex -18.353 -3 6.55484
    endloop
  endfacet
  facet normal 0 -1 -0
    outer loop
      vertex -20.3084 -3 9.24611
      vertex -22.5 -3 3
      vertex -19.4721 -3 7.79772
    endloop
  endfacet
  facet normal 0 -1 -0
    outer loop
      vertex -20.8252 -3 10.8367
      vertex -22.5 -3 3
      vertex -20.3084 -3 9.24611
    endloop
  endfacet
  facet normal 0 -1 -0
    outer loop
      vertex -21 -3 12.5
      vertex -22.5 -3 3
      vertex -20.8252 -3 10.8367
    endloop
  endfacet
  facet normal 0 -1 0
    outer loop
      vertex -22.5 -3 22
      vertex -12.1638 -3 20.4562
      vertex 22.5 -3 22
    endloop
  endfacet
  facet normal 0 -1 0
    outer loop
      vertex 12.1638 -3 20.4562
      vertex 22.5 -3 22
      vertex -12.1638 -3 20.4562
    endloop
  endfacet
  facet normal 0 -1 0
    outer loop
      vertex 13.8362 -3 20.4562
      vertex 22.5 -3 22
      vertex 12.1638 -3 20.4562
    endloop
  endfacet
  facet normal 0 -1 0
    outer loop
      vertex 15.4721 -3 20.1085
      vertex 22.5 -3 22
      vertex 13.8362 -3 20.4562
    endloop
  endfacet
  facet normal 0 -1 0
    outer loop
      vertex 17 -3 19.4282
      vertex 22.5 -3 22
      vertex 15.4721 -3 20.1085
    endloop
  endfacet
  facet normal 0 -1 0
    outer loop
      vertex 18.353 -3 18.4452
      vertex 22.5 -3 22
      vertex 17 -3 19.4282
    endloop
  endfacet
  facet normal 0 -1 0
    outer loop
      vertex 19.4721 -3 17.2023
      vertex 22.5 -3 22
      vertex 18.353 -3 18.4452
    endloop
  endfacet
  facet normal 0 -1 0
    outer loop
      vertex 20.3084 -3 15.7539
      vertex 22.5 -3 22
      vertex 19.4721 -3 17.2023
    endloop
  endfacet
  facet normal 0 -1 0
    outer loop
      vertex 20.8252 -3 14.1633
      vertex 22.5 -3 22
      vertex 20.3084 -3 15.7539
    endloop
  endfacet
  facet normal 0 -1 0
    outer loop
      vertex 21 -3 12.5
      vertex 22.5 -3 22
      vertex 20.8252 -3 14.1633
    endloop
  endfacet
  facet normal 0 -1 0
    outer loop
      vertex 22.5 -3 3
      vertex 21 -3 12.5
      vertex 20.8252 -3 10.8367
    endloop
  endfacet
  facet normal 0 -1 0
    outer loop
      vertex 21 -3 12.5
      vertex 22.5 -3 3
      vertex 22.5 -3 22
    endloop
  endfacet
  facet normal 0 -1 0
    outer loop
      vertex 20.3084 -3 9.24611
      vertex 22.5 -3 3
      vertex 20.8252 -3 10.8367
    endloop
  endfacet
  facet normal 0 -1 0
    outer loop
      vertex 19.4721 -3 7.79772
      vertex 22.5 -3 3
      vertex 20.3084 -3 9.24611
    endloop
  endfacet
  facet normal 0 -1 0
    outer loop
      vertex 18.353 -3 6.55484
      vertex 22.5 -3 3
      vertex 19.4721 -3 7.79772
    endloop
  endfacet
  facet normal 0 -1 0
    outer loop
      vertex 17 -3 5.5718
      vertex 22.5 -3 3
      vertex 18.353 -3 6.55484
    endloop
  endfacet
  facet normal 0 -1 0
    outer loop
      vertex 15.4721 -3 4.89155
      vertex 22.5 -3 3
      vertex 17 -3 5.5718
    endloop
  endfacet
  facet normal 0 -1 0
    outer loop
      vertex 13.8362 -3 4.54382
      vertex 22.5 -3 3
      vertex 15.4721 -3 4.89155
    endloop
  endfacet
  facet normal 0 -1 0
    outer loop
      vertex 12.1638 -3 4.54382
      vertex 22.5 -3 3
      vertex 13.8362 -3 4.54382
    endloop
  endfacet
  facet normal -0 0 1
    outer loop
      vertex -22.5 -3 3
      vertex 22.5 -12 3
      vertex 22.5 -3 3
    endloop
  endfacet
  facet normal 0 0 1
    outer loop
      vertex 22.5 -12 3
      vertex -22.5 -3 3
      vertex -22.5 -12 3
    endloop
  endfacet
  facet normal -0 0 1
    outer loop
      vertex -8.5 -15 3
      vertex -4.5 -17 3
      vertex -4.5 -15 3
    endloop
  endfacet
  facet normal 0 0 1
    outer loop
      vertex -4.5 -17 3
      vertex -8.5 -15 3
      vertex -8.5 -17 3
    endloop
  endfacet
  facet normal -0 0 1
    outer loop
      vertex 4.5 -15 3
      vertex 8.5 -17 3
      vertex 8.5 -15 3
    endloop
  endfacet
  facet normal 0 0 1
    outer loop
      vertex 8.5 -17 3
      vertex 4.5 -15 3
      vertex 4.5 -17 3
    endloop
  endfacet
  facet normal 1 -0 0
    outer loop
      vertex -23.5 -17 23
      vertex -23.5 -12 2
      vertex -23.5 -12 23
    endloop
  endfacet
  facet normal 1 0 0
    outer loop
      vertex -23.5 -12 2
      vertex -23.5 -17 23
      vertex -23.5 -17 2
    endloop
  endfacet
  facet normal -1 0 0
    outer loop
      vertex 23.5 -17 2
      vertex 23.5 -12 23
      vertex 23.5 -12 2
    endloop
  endfacet
  facet normal -1 -0 0
    outer loop
      vertex 23.5 -12 23
      vertex 23.5 -17 2
      vertex 23.5 -17 23
    endloop
  endfacet
  facet normal 0 -1 0
    outer loop
      vertex -4.5 -12 2.66454e-15
      vertex 4.5 -12 2
      vertex -4.5 -12 2
    endloop
  endfacet
  facet normal 0 -1 -0
    outer loop
      vertex 4.5 -12 2
      vertex -4.5 -12 2.66454e-15
      vertex 4.5 -12 2.66454e-15
    endloop
  endfacet
  facet normal 0 -1 0
    outer loop
      vertex -23.5 -12 23
      vertex -22.5 -12 22
      vertex 23.5 -12 23
    endloop
  endfacet
  facet normal 0 -1 0
    outer loop
      vertex -23.5 -12 23
      vertex -22.5 -12 3
      vertex -22.5 -12 22
    endloop
  endfacet
  facet normal 0 -1 0
    outer loop
      vertex -4.5 -12 2
      vertex -22.5 -12 3
      vertex -23.5 -12 2
    endloop
  endfacet
  facet normal 0 -1 0
    outer loop
      vertex -23.5 -12 2
      vertex -22.5 -12 3
      vertex -23.5 -12 23
    endloop
  endfacet
  facet normal 0 -1 0
    outer loop
      vertex 22.5 -12 22
      vertex 23.5 -12 23
      vertex -22.5 -12 22
    endloop
  endfacet
  facet normal 0 -1 0
    outer loop
      vertex 22.5 -12 3
      vertex 23.5 -12 23
      vertex 22.5 -12 22
    endloop
  endfacet
  facet normal 0 -1 0
    outer loop
      vertex -22.5 -12 3
      vertex -4.5 -12 2
      vertex 22.5 -12 3
    endloop
  endfacet
  facet normal 0 -1 0
    outer loop
      vertex 4.5 -12 2
      vertex 22.5 -12 3
      vertex -4.5 -12 2
    endloop
  endfacet
  facet normal 0 -1 0
    outer loop
      vertex 22.5 -12 3
      vertex 23.5 -12 2
      vertex 23.5 -12 23
    endloop
  endfacet
  facet normal 0 -1 0
    outer loop
      vertex 23.5 -12 2
      vertex 22.5 -12 3
      vertex 4.5 -12 2
    endloop
  endfacet
  facet normal 0 1 -0
    outer loop
      vertex -4.5 -15 2
      vertex -8.5 -15 3
      vertex -4.5 -15 3
    endloop
  endfacet
  facet normal 0 1 0
    outer loop
      vertex -8.5 -15 3
      vertex -4.5 -15 2
      vertex -8.5 -15 2
    endloop
  endfacet
  facet normal 0 1 -0
    outer loop
      vertex 8.5 -15 22
      vertex -8.5 -15 23
      vertex 8.5 -15 23
    endloop
  endfacet
  facet normal 0 1 0
    outer loop
      vertex -8.5 -15 23
      vertex 8.5 -15 22
      vertex -8.5 -15 22
    endloop
  endfacet
  facet normal 0 1 -0
    outer loop
      vertex 8.5 -15 2
      vertex 4.5 -15 3
      vertex 8.5 -15 3
    endloop
  endfacet
  facet normal 0 1 0
    outer loop
      vertex 4.5 -15 3
      vertex 8.5 -15 2
      vertex 4.5 -15 2
    endloop
  endfacet
  facet normal 0 0 1
    outer loop
      vertex 23.5 -12 2
      vertex 8.5 -15 2
      vertex 23.5 -17 2
    endloop
  endfacet
  facet normal -0 0 1
    outer loop
      vertex 4.5 -12 2
      vertex 8.5 -15 2
      vertex 23.5 -12 2
    endloop
  endfacet
  facet normal 0 0 1
    outer loop
      vertex 8.5 -15 2
      vertex 4.5 -12 2
      vertex 4.5 -15 2
    endloop
  endfacet
  facet normal 0 0 1
    outer loop
      vertex 23.5 -17 2
      vertex 8.5 -15 2
      vertex 8.5 -17 2
    endloop
  endfacet
  facet normal 0 0 1
    outer loop
      vertex -4.5 -12 2
      vertex -8.5 -15 2
      vertex -4.5 -15 2
    endloop
  endfacet
  facet normal -0 0 1
    outer loop
      vertex -23.5 -12 2
      vertex -8.5 -15 2
      vertex -4.5 -12 2
    endloop
  endfacet
  facet normal 0 0 1
    outer loop
      vertex -23.5 -17 2
      vertex -8.5 -15 2
      vertex -23.5 -12 2
    endloop
  endfacet
  facet normal 0 0 1
    outer loop
      vertex -8.5 -15 2
      vertex -23.5 -17 2
      vertex -8.5 -17 2
    endloop
  endfacet
  facet normal 0 0 -1
    outer loop
      vertex -8.5 -17 23
      vertex -23.5 -17 23
      vertex -8.5 -15 23
    endloop
  endfacet
  facet normal 0 0 -1
    outer loop
      vertex 8.5 -15 23
      vertex 23.5 -17 23
      vertex 8.5 -17 23
    endloop
  endfacet
  facet normal 0 0 -1
    outer loop
      vertex 23.5 -17 23
      vertex 8.5 -15 23
      vertex 23.5 -12 23
    endloop
  endfacet
  facet normal 0 0 -1
    outer loop
      vertex -8.5 -15 23
      vertex 23.5 -12 23
      vertex 8.5 -15 23
    endloop
  endfacet
  facet normal 0 0 -1
    outer loop
      vertex -8.5 -15 23
      vertex -23.5 -12 23
      vertex 23.5 -12 23
    endloop
  endfacet
  facet normal 0 0 -1
    outer loop
      vertex -23.5 -12 23
      vertex -8.5 -15 23
      vertex -23.5 -17 23
    endloop
  endfacet
  facet normal -1 0 0
    outer loop
      vertex -8.5 -17 2
      vertex -8.5 -15 3
      vertex -8.5 -15 2
    endloop
  endfacet
  facet normal -1 -0 0
    outer loop
      vertex -8.5 -15 3
      vertex -8.5 -17 2
      vertex -8.5 -17 3
    endloop
  endfacet
  facet normal -1 0 0
    outer loop
      vertex -8.5 -17 22
      vertex -8.5 -15 23
      vertex -8.5 -15 22
    endloop
  endfacet
  facet normal -1 -0 0
    outer loop
      vertex -8.5 -15 23
      vertex -8.5 -17 22
      vertex -8.5 -17 23
    endloop
  endfacet
  facet normal 1 -0 0
    outer loop
      vertex 8.5 -17 3
      vertex 8.5 -15 2
      vertex 8.5 -15 3
    endloop
  endfacet
  facet normal 1 0 0
    outer loop
      vertex 8.5 -15 2
      vertex 8.5 -17 3
      vertex 8.5 -17 2
    endloop
  endfacet
  facet normal 1 -0 0
    outer loop
      vertex 8.5 -17 23
      vertex 8.5 -15 22
      vertex 8.5 -15 23
    endloop
  endfacet
  facet normal 1 0 0
    outer loop
      vertex 8.5 -15 22
      vertex 8.5 -17 23
      vertex 8.5 -17 22
    endloop
  endfacet
  facet normal 1 0 0
    outer loop
      vertex -4.5 -15 3
      vertex -4.5 -17 3
      vertex -4.5 -15 2
    endloop
  endfacet
  facet normal 1 -0 0
    outer loop
      vertex -4.5 -15 2
      vertex -4.5 -12 2.66454e-15
      vertex -4.5 -12 2
    endloop
  endfacet
  facet normal 1 0 0
    outer loop
      vertex -4.5 -17 3.77476e-15
      vertex -4.5 -15 2
      vertex -4.5 -17 3
    endloop
  endfacet
  facet normal 1 0 0
    outer loop
      vertex -4.5 -15 2
      vertex -4.5 -17 3.77476e-15
      vertex -4.5 -12 2.66454e-15
    endloop
  endfacet
  facet normal -1 0 0
    outer loop
      vertex 4.5 -12 2.66454e-15
      vertex 4.5 -15 2
      vertex 4.5 -12 2
    endloop
  endfacet
  facet normal -1 0 0
    outer loop
      vertex 4.5 -17 3.77476e-15
      vertex 4.5 -15 2
      vertex 4.5 -12 2.66454e-15
    endloop
  endfacet
  facet normal -1 0 0
    outer loop
      vertex 4.5 -17 3
      vertex 4.5 -15 2
      vertex 4.5 -17 3.77476e-15
    endloop
  endfacet
  facet normal -1 0 0
    outer loop
      vertex 4.5 -15 2
      vertex 4.5 -17 3
      vertex 4.5 -15 3
    endloop
  endfacet
  facet normal -0.994522 0 -0.104529
    outer loop
      vertex -5 -3 12.5
      vertex -5.17482 3.14488e-15 14.1633
      vertex -5 2.77556e-15 12.5
    endloop
  endfacet
  facet normal -0.994522 -0 -0.104529
    outer loop
      vertex -5.17482 3.14488e-15 14.1633
      vertex -5 -3 12.5
      vertex -5.17482 -3 14.1633
    endloop
  endfacet
  facet normal 0 0 -1
    outer loop
      vertex -13.8362 -3 20.4562
      vertex -12.1638 4.54218e-15 20.4562
      vertex -12.1638 -3 20.4562
    endloop
  endfacet
  facet normal -0 0 -1
    outer loop
      vertex -12.1638 4.54218e-15 20.4562
      vertex -13.8362 -3 20.4562
      vertex -13.8362 4.54218e-15 20.4562
    endloop
  endfacet
  facet normal 0.587785 0 0.809017
    outer loop
      vertex -18.353 1.45547e-15 6.55484
      vertex -17 -3 5.5718
      vertex -17 1.23719e-15 5.5718
    endloop
  endfacet
  facet normal 0.587785 0 0.809017
    outer loop
      vertex -17 -3 5.5718
      vertex -18.353 1.45547e-15 6.55484
      vertex -18.353 -3 6.55484
    endloop
  endfacet
  facet normal -0.587786 0 -0.809017
    outer loop
      vertex -9 -3 19.4282
      vertex -7.64696 4.09565e-15 18.4452
      vertex -7.64696 -3 18.4452
    endloop
  endfacet
  facet normal -0.587786 0 -0.809017
    outer loop
      vertex -7.64696 4.09565e-15 18.4452
      vertex -9 -3 19.4282
      vertex -9 4.31393e-15 19.4282
    endloop
  endfacet
  facet normal -0.406736 0 -0.913546
    outer loop
      vertex -10.5279 -3 20.1085
      vertex -9 4.31393e-15 19.4282
      vertex -9 -3 19.4282
    endloop
  endfacet
  facet normal -0.406736 0 -0.913546
    outer loop
      vertex -9 4.31393e-15 19.4282
      vertex -10.5279 -3 20.1085
      vertex -10.5279 4.46497e-15 20.1085
    endloop
  endfacet
  facet normal 0.743145 0 -0.669131
    outer loop
      vertex -18.353 -3 18.4452
      vertex -19.4721 3.81967e-15 17.2023
      vertex -18.353 4.09565e-15 18.4452
    endloop
  endfacet
  facet normal 0.743145 0 -0.669131
    outer loop
      vertex -19.4721 3.81967e-15 17.2023
      vertex -18.353 -3 18.4452
      vertex -19.4721 -3 17.2023
    endloop
  endfacet
  facet normal 0.406736 0 -0.913546
    outer loop
      vertex -17 -3 19.4282
      vertex -15.4721 4.46497e-15 20.1085
      vertex -15.4721 -3 20.1085
    endloop
  endfacet
  facet normal 0.406736 0 -0.913546
    outer loop
      vertex -15.4721 4.46497e-15 20.1085
      vertex -17 -3 19.4282
      vertex -17 4.31393e-15 19.4282
    endloop
  endfacet
  facet normal -0.743145 0 0.669131
    outer loop
      vertex -7.64696 -3 6.55484
      vertex -6.52786 1.73144e-15 7.79772
      vertex -7.64696 1.45547e-15 6.55484
    endloop
  endfacet
  facet normal -0.743145 0 0.669131
    outer loop
      vertex -6.52786 1.73144e-15 7.79772
      vertex -7.64696 -3 6.55484
      vertex -6.52786 -3 7.79772
    endloop
  endfacet
  facet normal -0.866026 0 0.5
    outer loop
      vertex -6.52786 -3 7.79772
      vertex -5.69164 2.05305e-15 9.24611
      vertex -6.52786 1.73144e-15 7.79772
    endloop
  endfacet
  facet normal -0.866026 0 0.5
    outer loop
      vertex -5.69164 2.05305e-15 9.24611
      vertex -6.52786 -3 7.79772
      vertex -5.69164 -3 9.24611
    endloop
  endfacet
  facet normal 0.406737 0 0.913545
    outer loop
      vertex -17 1.23719e-15 5.5718
      vertex -15.4721 -3 4.89155
      vertex -15.4721 1.08614e-15 4.89155
    endloop
  endfacet
  facet normal 0.406737 0 0.913545
    outer loop
      vertex -15.4721 -3 4.89155
      vertex -17 1.23719e-15 5.5718
      vertex -17 -3 5.5718
    endloop
  endfacet
  facet normal -0.866026 0 -0.5
    outer loop
      vertex -5.69164 -3 15.7539
      vertex -6.52786 3.81967e-15 17.2023
      vertex -5.69164 3.49807e-15 15.7539
    endloop
  endfacet
  facet normal -0.866026 -0 -0.5
    outer loop
      vertex -6.52786 3.81967e-15 17.2023
      vertex -5.69164 -3 15.7539
      vertex -6.52786 -3 17.2023
    endloop
  endfacet
  facet normal -0.951057 0 -0.309017
    outer loop
      vertex -5.17482 -3 14.1633
      vertex -5.69164 3.49807e-15 15.7539
      vertex -5.17482 3.14488e-15 14.1633
    endloop
  endfacet
  facet normal -0.951057 -0 -0.309017
    outer loop
      vertex -5.69164 3.49807e-15 15.7539
      vertex -5.17482 -3 14.1633
      vertex -5.69164 -3 15.7539
    endloop
  endfacet
  facet normal -0.743145 0 -0.669131
    outer loop
      vertex -6.52786 -3 17.2023
      vertex -7.64696 4.09565e-15 18.4452
      vertex -6.52786 3.81967e-15 17.2023
    endloop
  endfacet
  facet normal -0.743145 -0 -0.669131
    outer loop
      vertex -7.64696 4.09565e-15 18.4452
      vertex -6.52786 -3 17.2023
      vertex -7.64696 -3 18.4452
    endloop
  endfacet
  facet normal -0.207912 0 -0.978148
    outer loop
      vertex -12.1638 -3 20.4562
      vertex -10.5279 4.46497e-15 20.1085
      vertex -10.5279 -3 20.1085
    endloop
  endfacet
  facet normal -0.207912 0 -0.978148
    outer loop
      vertex -10.5279 4.46497e-15 20.1085
      vertex -12.1638 -3 20.4562
      vertex -12.1638 4.54218e-15 20.4562
    endloop
  endfacet
  facet normal 0.951057 0 -0.309016
    outer loop
      vertex -20.3084 -3 15.7539
      vertex -20.8252 3.14488e-15 14.1633
      vertex -20.3084 3.49807e-15 15.7539
    endloop
  endfacet
  facet normal 0.951057 0 -0.309016
    outer loop
      vertex -20.8252 3.14488e-15 14.1633
      vertex -20.3084 -3 15.7539
      vertex -20.8252 -3 14.1633
    endloop
  endfacet
  facet normal 0.866026 0 -0.5
    outer loop
      vertex -19.4721 -3 17.2023
      vertex -20.3084 3.49807e-15 15.7539
      vertex -19.4721 3.81967e-15 17.2023
    endloop
  endfacet
  facet normal 0.866026 0 -0.5
    outer loop
      vertex -20.3084 3.49807e-15 15.7539
      vertex -19.4721 -3 17.2023
      vertex -20.3084 -3 15.7539
    endloop
  endfacet
  facet normal 0.994522 0 -0.104529
    outer loop
      vertex -20.8252 -3 14.1633
      vertex -21 2.77556e-15 12.5
      vertex -20.8252 3.14488e-15 14.1633
    endloop
  endfacet
  facet normal 0.994522 0 -0.104529
    outer loop
      vertex -21 2.77556e-15 12.5
      vertex -20.8252 -3 14.1633
      vertex -21 -3 12.5
    endloop
  endfacet
  facet normal 0.587785 0 -0.809017
    outer loop
      vertex -18.353 -3 18.4452
      vertex -17 4.31393e-15 19.4282
      vertex -17 -3 19.4282
    endloop
  endfacet
  facet normal 0.587785 0 -0.809017
    outer loop
      vertex -17 4.31393e-15 19.4282
      vertex -18.353 -3 18.4452
      vertex -18.353 4.09565e-15 18.4452
    endloop
  endfacet
  facet normal 0.207912 0 -0.978148
    outer loop
      vertex -15.4721 -3 20.1085
      vertex -13.8362 4.54218e-15 20.4562
      vertex -13.8362 -3 20.4562
    endloop
  endfacet
  facet normal 0.207912 0 -0.978148
    outer loop
      vertex -13.8362 4.54218e-15 20.4562
      vertex -15.4721 -3 20.1085
      vertex -15.4721 4.46497e-15 20.1085
    endloop
  endfacet
  facet normal -0.994522 0 0.104529
    outer loop
      vertex -5.17482 -3 10.8367
      vertex -5 2.77556e-15 12.5
      vertex -5.17482 2.40623e-15 10.8367
    endloop
  endfacet
  facet normal -0.994522 0 0.104529
    outer loop
      vertex -5 2.77556e-15 12.5
      vertex -5.17482 -3 10.8367
      vertex -5 -3 12.5
    endloop
  endfacet
  facet normal -0.207912 0 0.978148
    outer loop
      vertex -12.1638 1.00893e-15 4.54382
      vertex -10.5279 -3 4.89155
      vertex -10.5279 1.08614e-15 4.89155
    endloop
  endfacet
  facet normal -0.207912 0 0.978148
    outer loop
      vertex -10.5279 -3 4.89155
      vertex -12.1638 1.00893e-15 4.54382
      vertex -12.1638 -3 4.54382
    endloop
  endfacet
  facet normal -0.587785 0 0.809017
    outer loop
      vertex -9 1.23719e-15 5.5718
      vertex -7.64696 -3 6.55484
      vertex -7.64696 1.45547e-15 6.55484
    endloop
  endfacet
  facet normal -0.587785 0 0.809017
    outer loop
      vertex -7.64696 -3 6.55484
      vertex -9 1.23719e-15 5.5718
      vertex -9 -3 5.5718
    endloop
  endfacet
  facet normal 0.207912 0 0.978148
    outer loop
      vertex -15.4721 1.08614e-15 4.89155
      vertex -13.8362 -3 4.54382
      vertex -13.8362 1.00893e-15 4.54382
    endloop
  endfacet
  facet normal 0.207912 0 0.978148
    outer loop
      vertex -13.8362 -3 4.54382
      vertex -15.4721 1.08614e-15 4.89155
      vertex -15.4721 -3 4.89155
    endloop
  endfacet
  facet normal 0.743145 -0 0.669131
    outer loop
      vertex -19.4721 -3 7.79772
      vertex -18.353 1.45547e-15 6.55484
      vertex -19.4721 1.73144e-15 7.79772
    endloop
  endfacet
  facet normal 0.743145 0 0.669131
    outer loop
      vertex -18.353 1.45547e-15 6.55484
      vertex -19.4721 -3 7.79772
      vertex -18.353 -3 6.55484
    endloop
  endfacet
  facet normal 0.951057 -0 0.309016
    outer loop
      vertex -20.8252 -3 10.8367
      vertex -20.3084 2.05305e-15 9.24611
      vertex -20.8252 2.40623e-15 10.8367
    endloop
  endfacet
  facet normal 0.951057 0 0.309016
    outer loop
      vertex -20.3084 2.05305e-15 9.24611
      vertex -20.8252 -3 10.8367
      vertex -20.3084 -3 9.24611
    endloop
  endfacet
  facet normal 0.994522 -0 0.104529
    outer loop
      vertex -21 -3 12.5
      vertex -20.8252 2.40623e-15 10.8367
      vertex -21 2.77556e-15 12.5
    endloop
  endfacet
  facet normal 0.994522 0 0.104529
    outer loop
      vertex -20.8252 2.40623e-15 10.8367
      vertex -21 -3 12.5
      vertex -20.8252 -3 10.8367
    endloop
  endfacet
  facet normal -0.406737 0 0.913545
    outer loop
      vertex -10.5279 1.08614e-15 4.89155
      vertex -9 -3 5.5718
      vertex -9 1.23719e-15 5.5718
    endloop
  endfacet
  facet normal -0.406737 0 0.913545
    outer loop
      vertex -9 -3 5.5718
      vertex -10.5279 1.08614e-15 4.89155
      vertex -10.5279 -3 4.89155
    endloop
  endfacet
  facet normal -0.951057 0 0.309017
    outer loop
      vertex -5.69164 -3 9.24611
      vertex -5.17482 2.40623e-15 10.8367
      vertex -5.69164 2.05305e-15 9.24611
    endloop
  endfacet
  facet normal -0.951057 0 0.309017
    outer loop
      vertex -5.17482 2.40623e-15 10.8367
      vertex -5.69164 -3 9.24611
      vertex -5.17482 -3 10.8367
    endloop
  endfacet
  facet normal -0 0 1
    outer loop
      vertex -13.8362 1.00893e-15 4.54382
      vertex -12.1638 -3 4.54382
      vertex -12.1638 1.00893e-15 4.54382
    endloop
  endfacet
  facet normal 0 0 1
    outer loop
      vertex -12.1638 -3 4.54382
      vertex -13.8362 1.00893e-15 4.54382
      vertex -13.8362 -3 4.54382
    endloop
  endfacet
  facet normal 0.866026 -0 0.5
    outer loop
      vertex -20.3084 -3 9.24611
      vertex -19.4721 1.73144e-15 7.79772
      vertex -20.3084 2.05305e-15 9.24611
    endloop
  endfacet
  facet normal 0.866026 0 0.5
    outer loop
      vertex -19.4721 1.73144e-15 7.79772
      vertex -20.3084 -3 9.24611
      vertex -19.4721 -3 7.79772
    endloop
  endfacet
  facet normal -0.406736 0 -0.913546
    outer loop
      vertex 15.4721 -3 20.1085
      vertex 17 4.31393e-15 19.4282
      vertex 17 -3 19.4282
    endloop
  endfacet
  facet normal -0.406736 0 -0.913546
    outer loop
      vertex 17 4.31393e-15 19.4282
      vertex 15.4721 -3 20.1085
      vertex 15.4721 4.46497e-15 20.1085
    endloop
  endfacet
  facet normal -0.994522 0 0.104529
    outer loop
      vertex 20.8252 -3 10.8367
      vertex 21 2.77556e-15 12.5
      vertex 20.8252 2.40623e-15 10.8367
    endloop
  endfacet
  facet normal -0.994522 0 0.104529
    outer loop
      vertex 21 2.77556e-15 12.5
      vertex 20.8252 -3 10.8367
      vertex 21 -3 12.5
    endloop
  endfacet
  facet normal 0.207912 0 0.978148
    outer loop
      vertex 10.5279 1.08614e-15 4.89155
      vertex 12.1638 -3 4.54382
      vertex 12.1638 1.00893e-15 4.54382
    endloop
  endfacet
  facet normal 0.207912 0 0.978148
    outer loop
      vertex 12.1638 -3 4.54382
      vertex 10.5279 1.08614e-15 4.89155
      vertex 10.5279 -3 4.89155
    endloop
  endfacet
  facet normal 0.406736 0 -0.913546
    outer loop
      vertex 9 -3 19.4282
      vertex 10.5279 4.46497e-15 20.1085
      vertex 10.5279 -3 20.1085
    endloop
  endfacet
  facet normal 0.406736 0 -0.913546
    outer loop
      vertex 10.5279 4.46497e-15 20.1085
      vertex 9 -3 19.4282
      vertex 9 4.31393e-15 19.4282
    endloop
  endfacet
  facet normal 0.951057 0 -0.309017
    outer loop
      vertex 5.69164 -3 15.7539
      vertex 5.17482 3.14488e-15 14.1633
      vertex 5.69164 3.49807e-15 15.7539
    endloop
  endfacet
  facet normal 0.951057 0 -0.309017
    outer loop
      vertex 5.17482 3.14488e-15 14.1633
      vertex 5.69164 -3 15.7539
      vertex 5.17482 -3 14.1633
    endloop
  endfacet
  facet normal -0.866026 0 -0.5
    outer loop
      vertex 20.3084 -3 15.7539
      vertex 19.4721 3.81967e-15 17.2023
      vertex 20.3084 3.49807e-15 15.7539
    endloop
  endfacet
  facet normal -0.866026 -0 -0.5
    outer loop
      vertex 19.4721 3.81967e-15 17.2023
      vertex 20.3084 -3 15.7539
      vertex 19.4721 -3 17.2023
    endloop
  endfacet
  facet normal -0.743145 0 -0.669131
    outer loop
      vertex 19.4721 -3 17.2023
      vertex 18.353 4.09565e-15 18.4452
      vertex 19.4721 3.81967e-15 17.2023
    endloop
  endfacet
  facet normal -0.743145 -0 -0.669131
    outer loop
      vertex 18.353 4.09565e-15 18.4452
      vertex 19.4721 -3 17.2023
      vertex 18.353 -3 18.4452
    endloop
  endfacet
  facet normal -0.587786 0 -0.809017
    outer loop
      vertex 17 -3 19.4282
      vertex 18.353 4.09565e-15 18.4452
      vertex 18.353 -3 18.4452
    endloop
  endfacet
  facet normal -0.587786 0 -0.809017
    outer loop
      vertex 18.353 4.09565e-15 18.4452
      vertex 17 -3 19.4282
      vertex 17 4.31393e-15 19.4282
    endloop
  endfacet
  facet normal 0 0 -1
    outer loop
      vertex 12.1638 -3 20.4562
      vertex 13.8362 4.54218e-15 20.4562
      vertex 13.8362 -3 20.4562
    endloop
  endfacet
  facet normal -0 0 -1
    outer loop
      vertex 13.8362 4.54218e-15 20.4562
      vertex 12.1638 -3 20.4562
      vertex 12.1638 4.54218e-15 20.4562
    endloop
  endfacet
  facet normal 0.994522 -0 0.104528
    outer loop
      vertex 5 -3 12.5
      vertex 5.17482 2.40623e-15 10.8367
      vertex 5 2.77556e-15 12.5
    endloop
  endfacet
  facet normal 0.994522 0 0.104528
    outer loop
      vertex 5.17482 2.40623e-15 10.8367
      vertex 5 -3 12.5
      vertex 5.17482 -3 10.8367
    endloop
  endfacet
  facet normal 0.866026 0 -0.5
    outer loop
      vertex 6.52786 -3 17.2023
      vertex 5.69164 3.49807e-15 15.7539
      vertex 6.52786 3.81967e-15 17.2023
    endloop
  endfacet
  facet normal 0.866026 0 -0.5
    outer loop
      vertex 5.69164 3.49807e-15 15.7539
      vertex 6.52786 -3 17.2023
      vertex 5.69164 -3 15.7539
    endloop
  endfacet
  facet normal 0.587785 0 -0.809017
    outer loop
      vertex 7.64695 -3 18.4452
      vertex 9 4.31393e-15 19.4282
      vertex 9 -3 19.4282
    endloop
  endfacet
  facet normal 0.587785 0 -0.809017
    outer loop
      vertex 9 4.31393e-15 19.4282
      vertex 7.64695 -3 18.4452
      vertex 7.64695 4.09565e-15 18.4452
    endloop
  endfacet
  facet normal 0.207912 0 -0.978148
    outer loop
      vertex 10.5279 -3 20.1085
      vertex 12.1638 4.54218e-15 20.4562
      vertex 12.1638 -3 20.4562
    endloop
  endfacet
  facet normal 0.207912 0 -0.978148
    outer loop
      vertex 12.1638 4.54218e-15 20.4562
      vertex 10.5279 -3 20.1085
      vertex 10.5279 4.46497e-15 20.1085
    endloop
  endfacet
  facet normal 0.743145 0 -0.669131
    outer loop
      vertex 7.64695 -3 18.4452
      vertex 6.52786 3.81967e-15 17.2023
      vertex 7.64695 4.09565e-15 18.4452
    endloop
  endfacet
  facet normal 0.743145 0 -0.669131
    outer loop
      vertex 6.52786 3.81967e-15 17.2023
      vertex 7.64695 -3 18.4452
      vertex 6.52786 -3 17.2023
    endloop
  endfacet
  facet normal -0.994522 0 -0.104529
    outer loop
      vertex 21 -3 12.5
      vertex 20.8252 3.14488e-15 14.1633
      vertex 21 2.77556e-15 12.5
    endloop
  endfacet
  facet normal -0.994522 -0 -0.104529
    outer loop
      vertex 20.8252 3.14488e-15 14.1633
      vertex 21 -3 12.5
      vertex 20.8252 -3 14.1633
    endloop
  endfacet
  facet normal -0.207912 0 0.978148
    outer loop
      vertex 13.8362 1.00893e-15 4.54382
      vertex 15.4721 -3 4.89155
      vertex 15.4721 1.08614e-15 4.89155
    endloop
  endfacet
  facet normal -0.207912 0 0.978148
    outer loop
      vertex 15.4721 -3 4.89155
      vertex 13.8362 1.00893e-15 4.54382
      vertex 13.8362 -3 4.54382
    endloop
  endfacet
  facet normal -0.866026 0 0.5
    outer loop
      vertex 19.4721 -3 7.79772
      vertex 20.3084 2.05305e-15 9.24611
      vertex 19.4721 1.73144e-15 7.79772
    endloop
  endfacet
  facet normal -0.866026 0 0.5
    outer loop
      vertex 20.3084 2.05305e-15 9.24611
      vertex 19.4721 -3 7.79772
      vertex 20.3084 -3 9.24611
    endloop
  endfacet
  facet normal -0.951057 0 0.309017
    outer loop
      vertex 20.3084 -3 9.24611
      vertex 20.8252 2.40623e-15 10.8367
      vertex 20.3084 2.05305e-15 9.24611
    endloop
  endfacet
  facet normal -0.951057 0 0.309017
    outer loop
      vertex 20.8252 2.40623e-15 10.8367
      vertex 20.3084 -3 9.24611
      vertex 20.8252 -3 10.8367
    endloop
  endfacet
  facet normal -0.406737 0 0.913545
    outer loop
      vertex 15.4721 1.08614e-15 4.89155
      vertex 17 -3 5.5718
      vertex 17 1.23719e-15 5.5718
    endloop
  endfacet
  facet normal -0.406737 0 0.913545
    outer loop
      vertex 17 -3 5.5718
      vertex 15.4721 1.08614e-15 4.89155
      vertex 15.4721 -3 4.89155
    endloop
  endfacet
  facet normal -0.587785 0 0.809017
    outer loop
      vertex 17 1.23719e-15 5.5718
      vertex 18.353 -3 6.55484
      vertex 18.353 1.45547e-15 6.55484
    endloop
  endfacet
  facet normal -0.587785 0 0.809017
    outer loop
      vertex 18.353 -3 6.55484
      vertex 17 1.23719e-15 5.5718
      vertex 17 -3 5.5718
    endloop
  endfacet
  facet normal -0 0 1
    outer loop
      vertex 12.1638 1.00893e-15 4.54382
      vertex 13.8362 -3 4.54382
      vertex 13.8362 1.00893e-15 4.54382
    endloop
  endfacet
  facet normal 0 0 1
    outer loop
      vertex 13.8362 -3 4.54382
      vertex 12.1638 1.00893e-15 4.54382
      vertex 12.1638 -3 4.54382
    endloop
  endfacet
  facet normal 0.587785 0 0.809017
    outer loop
      vertex 7.64695 1.45547e-15 6.55484
      vertex 9 -3 5.5718
      vertex 9 1.23719e-15 5.5718
    endloop
  endfacet
  facet normal 0.587785 0 0.809017
    outer loop
      vertex 9 -3 5.5718
      vertex 7.64695 1.45547e-15 6.55484
      vertex 7.64695 -3 6.55484
    endloop
  endfacet
  facet normal 0.743145 -0 0.669131
    outer loop
      vertex 6.52786 -3 7.79772
      vertex 7.64695 1.45547e-15 6.55484
      vertex 6.52786 1.73144e-15 7.79772
    endloop
  endfacet
  facet normal 0.743145 0 0.669131
    outer loop
      vertex 7.64695 1.45547e-15 6.55484
      vertex 6.52786 -3 7.79772
      vertex 7.64695 -3 6.55484
    endloop
  endfacet
  facet normal 0.951057 -0 0.309017
    outer loop
      vertex 5.17482 -3 10.8367
      vertex 5.69164 2.05305e-15 9.24611
      vertex 5.17482 2.40623e-15 10.8367
    endloop
  endfacet
  facet normal 0.951057 0 0.309017
    outer loop
      vertex 5.69164 2.05305e-15 9.24611
      vertex 5.17482 -3 10.8367
      vertex 5.69164 -3 9.24611
    endloop
  endfacet
  facet normal -0.951057 0 -0.309017
    outer loop
      vertex 20.8252 -3 14.1633
      vertex 20.3084 3.49807e-15 15.7539
      vertex 20.8252 3.14488e-15 14.1633
    endloop
  endfacet
  facet normal -0.951057 -0 -0.309017
    outer loop
      vertex 20.3084 3.49807e-15 15.7539
      vertex 20.8252 -3 14.1633
      vertex 20.3084 -3 15.7539
    endloop
  endfacet
  facet normal -0.207912 0 -0.978148
    outer loop
      vertex 13.8362 -3 20.4562
      vertex 15.4721 4.46497e-15 20.1085
      vertex 15.4721 -3 20.1085
    endloop
  endfacet
  facet normal -0.207912 0 -0.978148
    outer loop
      vertex 15.4721 4.46497e-15 20.1085
      vertex 13.8362 -3 20.4562
      vertex 13.8362 4.54218e-15 20.4562
    endloop
  endfacet
  facet normal 0.994522 0 -0.104528
    outer loop
      vertex 5.17482 -3 14.1633
      vertex 5 2.77556e-15 12.5
      vertex 5.17482 3.14488e-15 14.1633
    endloop
  endfacet
  facet normal 0.994522 0 -0.104528
    outer loop
      vertex 5 2.77556e-15 12.5
      vertex 5.17482 -3 14.1633
      vertex 5 -3 12.5
    endloop
  endfacet
  facet normal -0.743145 0 0.669131
    outer loop
      vertex 18.353 -3 6.55484
      vertex 19.4721 1.73144e-15 7.79772
      vertex 18.353 1.45547e-15 6.55484
    endloop
  endfacet
  facet normal -0.743145 0 0.669131
    outer loop
      vertex 19.4721 1.73144e-15 7.79772
      vertex 18.353 -3 6.55484
      vertex 19.4721 -3 7.79772
    endloop
  endfacet
  facet normal 0.406737 0 0.913545
    outer loop
      vertex 9 1.23719e-15 5.5718
      vertex 10.5279 -3 4.89155
      vertex 10.5279 1.08614e-15 4.89155
    endloop
  endfacet
  facet normal 0.406737 0 0.913545
    outer loop
      vertex 10.5279 -3 4.89155
      vertex 9 1.23719e-15 5.5718
      vertex 9 -3 5.5718
    endloop
  endfacet
  facet normal 0.866026 -0 0.5
    outer loop
      vertex 5.69164 -3 9.24611
      vertex 6.52786 1.73144e-15 7.79772
      vertex 5.69164 2.05305e-15 9.24611
    endloop
  endfacet
  facet normal 0.866026 0 0.5
    outer loop
      vertex 6.52786 1.73144e-15 7.79772
      vertex 5.69164 -3 9.24611
      vertex 6.52786 -3 7.79772
    endloop
  endfacet
  facet normal 0.573576 -0.819152 0
    outer loop
      vertex 30 -1.5617 3.46767e-16
      vertex 65.5826 23.3535 25
      vertex 30 -1.5617 25
    endloop
  endfacet
  facet normal 0.573576 -0.819152 0
    outer loop
      vertex 65.5826 23.3535 25
      vertex 30 -1.5617 3.46767e-16
      vertex 65.5826 23.3535 -5.18551e-15
    endloop
  endfacet
  facet normal 0.819151 0.573577 0
    outer loop
      vertex 65.5826 23.3535 25
      vertex 63.8618 25.8109 -5.73118e-15
      vertex 63.8618 25.8109 25
    endloop
  endfacet
  facet normal 0.819151 0.573577 0
    outer loop
      vertex 63.8618 25.8109 -5.73118e-15
      vertex 65.5826 23.3535 25
      vertex 65.5826 23.3535 -5.18551e-15
    endloop
  endfacet
  facet normal -0.573576 0.819152 -2.0211e-16
    outer loop
      vertex 63.8618 25.8109 25
      vertex 27 0 0
      vertex 27 5.55112e-15 25
    endloop
  endfacet
  facet normal -0.573576 0.819152 0
    outer loop
      vertex 27 0 0
      vertex 63.8618 25.8109 25
      vertex 63.8618 25.8109 -5.73118e-15
    endloop
  endfacet
  facet normal 0.573576 0.819152 -1.81888e-16
    outer loop
      vertex -26.0541 0 0
      vertex -62.1411 25.2684 25
      vertex -26.0541 5.55112e-15 25
    endloop
  endfacet
  facet normal 0.573576 0.819152 -6.24963e-08
    outer loop
      vertex -62.1411 25.2684 25
      vertex -26.0541 0 0
      vertex -62.1411 25.2684 -5.61071e-15
    endloop
  endfacet
  facet normal -0.573576 -0.819152 0
    outer loop
      vertex -63.8618 22.8109 25
      vertex -30 -0.899377 1.99702e-16
      vertex -30 -0.899377 25
    endloop
  endfacet
  facet normal -0.573576 -0.819152 0
    outer loop
      vertex -30 -0.899377 1.99702e-16
      vertex -63.8618 22.8109 25
      vertex -63.8618 22.8109 -5.06505e-15
    endloop
  endfacet
  facet normal -0.819152 0.573576 -4.37604e-08
    outer loop
      vertex -63.8618 22.8109 -5.06505e-15
      vertex -62.1411 25.2684 25
      vertex -62.1411 25.2684 -5.61071e-15
    endloop
  endfacet
  facet normal -0.819153 0.573576 0
    outer loop
      vertex -62.1411 25.2684 25
      vertex -63.8618 22.8109 -5.06505e-15
      vertex -63.8618 22.8109 25
    endloop
  endfacet
  facet normal -1 0 0
    outer loop
      vertex 27 -60 1.33227e-14
      vertex 27 -5 25
      vertex 27 -5 1.11022e-15
    endloop
  endfacet
  facet normal -1 -0 0
    outer loop
      vertex 27 -5 25
      vertex 27 -60 1.33227e-14
      vertex 27 -60 25
    endloop
  endfacet
  facet normal 0 1 -0
    outer loop
      vertex 27 -60 1.33227e-14
      vertex -27 -60 25
      vertex 27 -60 25
    endloop
  endfacet
  facet normal 0 1 0
    outer loop
      vertex -27 -60 25
      vertex 27 -60 1.33227e-14
      vertex -27 -60 1.33227e-14
    endloop
  endfacet
  facet normal -1 0 0
    outer loop
      vertex -30 -60 1.33227e-14
      vertex -30 -5 25
      vertex -30 -5 1.11022e-15
    endloop
  endfacet
  facet normal -1 -0 0
    outer loop
      vertex -30 -5 25
      vertex -30 -60 1.33227e-14
      vertex -30 -60 25
    endloop
  endfacet
  facet normal 1 -0 0
    outer loop
      vertex -27 -60 25
      vertex -27 -5 1.11022e-15
      vertex -27 -5 25
    endloop
  endfacet
  facet normal 1 0 0
    outer loop
      vertex -27 -5 1.11022e-15
      vertex -27 -60 25
      vertex -27 -60 1.33227e-14
    endloop
  endfacet
  facet normal -1 0 0
    outer loop
      vertex -30 -60 1.33227e-14
      vertex -30 -63 3
      vertex -30 -60 25
    endloop
  endfacet
  facet normal -1 0 0
    outer loop
      vertex -30 -76 1.68754e-14
      vertex -30 -63 3
      vertex -30 -60 1.33227e-14
    endloop
  endfacet
  facet normal -1 -0 0
    outer loop
      vertex -30 -63 3
      vertex -30 -76 1.68754e-14
      vertex -30 -76 3
    endloop
  endfacet
  facet normal -1 -0 0
    outer loop
      vertex -30 -60 25
      vertex -30 -63 3
      vertex -30 -63 25
    endloop
  endfacet
  facet normal 0 -1 0
    outer loop
      vertex -30 -63 3
      vertex 30 -63 25
      vertex -30 -63 25
    endloop
  endfacet
  facet normal 0 -1 -0
    outer loop
      vertex 30 -63 25
      vertex -30 -63 3
      vertex 30 -63 3
    endloop
  endfacet
  facet normal 0 -1 0
    outer loop
      vertex -30 -76 1.68754e-14
      vertex 0 -76 3
      vertex -30 -76 3
    endloop
  endfacet
  facet normal 0 -1 0
    outer loop
      vertex 30 -76 1.68754e-14
      vertex 0 -76 3
      vertex -30 -76 1.68754e-14
    endloop
  endfacet
  facet normal 0 -1 0
    outer loop
      vertex 0 -76 3
      vertex 30 -76 1.68754e-14
      vertex 10 -76 3
    endloop
  endfacet
  facet normal 0 -1 0
    outer loop
      vertex 10 -76 3
      vertex 30 -76 1.68754e-14
      vertex 30 -76 3
    endloop
  endfacet
  facet normal 0 -1 0
    outer loop
      vertex 0 -76 3
      vertex 10 -76 10
      vertex 0 -76 10
    endloop
  endfacet
  facet normal 0 -1 -0
    outer loop
      vertex 10 -76 10
      vertex 0 -76 3
      vertex 10 -76 3
    endloop
  endfacet
  facet normal 0 0 1
    outer loop
      vertex 30 -63 3
      vertex 10 -72 3
      vertex 30 -76 3
    endloop
  endfacet
  facet normal 0 0 1
    outer loop
      vertex 30 -63 3
      vertex 0 -72 3
      vertex 10 -72 3
    endloop
  endfacet
  facet normal -0 0 1
    outer loop
      vertex -30 -63 3
      vertex 0 -72 3
      vertex 30 -63 3
    endloop
  endfacet
  facet normal 0 0 1
    outer loop
      vertex -30 -76 3
      vertex 0 -72 3
      vertex -30 -63 3
    endloop
  endfacet
  facet normal 0 0 1
    outer loop
      vertex 0 -72 3
      vertex -30 -76 3
      vertex 0 -76 3
    endloop
  endfacet
  facet normal 0 0 1
    outer loop
      vertex 30 -76 3
      vertex 10 -72 3
      vertex 10 -76 3
    endloop
  endfacet
  facet normal -1 0 0
    outer loop
      vertex 0 -76 3
      vertex 0 -72 10
      vertex 0 -72 3
    endloop
  endfacet
  facet normal -1 -0 0
    outer loop
      vertex 0 -72 10
      vertex 0 -76 3
      vertex 0 -76 10
    endloop
  endfacet
  facet normal 1 -0 0
    outer loop
      vertex 10 -76 10
      vertex 10 -72 3
      vertex 10 -72 10
    endloop
  endfacet
  facet normal 1 0 0
    outer loop
      vertex 10 -72 3
      vertex 10 -76 10
      vertex 10 -76 3
    endloop
  endfacet
  facet normal -0 0 1
    outer loop
      vertex 0 -72 10
      vertex 10 -76 10
      vertex 10 -72 10
    endloop
  endfacet
  facet normal 0 0 1
    outer loop
      vertex 10 -76 10
      vertex 0 -72 10
      vertex 0 -76 10
    endloop
  endfacet
  facet normal 0 1 -0
    outer loop
      vertex 10 -72 3
      vertex 0 -72 10
      vertex 10 -72 10
    endloop
  endfacet
  facet normal 0 1 0
    outer loop
      vertex 0 -72 10
      vertex 10 -72 3
      vertex 0 -72 3
    endloop
  endfacet
endsolid OpenSCAD_Model
